<svg width="48" height="48" viewBox="0 0 48 48" xmlns="http://www.w3.org/2000/svg"><title>dislike3-line</title><g stroke="currentColor" fill="none" fill-rule="evenodd"><path d="M30.75 26.43c-4.84 3.49-9 15.35-9 15.35s.7 4.19-.68 4.19c-2.77 0-7.6-1.4-4.15-10.47 2.76-7.67 0-6.98 0-6.98s-10.37 2.8-13.14 0c-2.76-2.79-.69-5.58-.69-5.58-3.46-3.49 0-6.98 0-6.98C-.37 11.08 5.16 9 5.16 9S1.71 4.1 10.7 2.7c0 0 13.13-1.4 20.05.7l4.14 17.44c-2.76 1.4-2.76 4.19-4.14 5.58z" stroke-linecap="square"/><path d="M37.45 18.05L34.18 3.76s-.66-2.04 1.96-2.04h7.85c1.96 0 1.3 2.04 1.3 2.04L44 18.05c0 1.36-1.3 1.36-1.3 1.36h-3.93c-1.31 0-1.31-1.36-1.31-1.36z" stroke-linecap="square"/><ellipse transform="rotate(180 39.879 6.75)" cx="39.879" cy="6.75" rx="2.136" ry="2.156"/></g></svg>