<svg width="48" height="48" viewBox="0 0 48 48" xmlns="http://www.w3.org/2000/svg"><title>dislike1-line</title><g stroke="currentColor" fill="none" fill-rule="evenodd" stroke-linecap="square"><path d="M46.5 26h-15V1h15z"/><ellipse transform="rotate(180 38.41 8.938)" cx="38.409" cy="8.938" rx="2.909" ry="2.938"/><path d="M31.5 4.4s-2.4-1.46-5.32-1.46H7.28S2.17 4.4 4.35 8.8c0 0-4.36 2.2-1.45 5.88 0 0-3.64 3.67 0 6.6 0 0-3.64 5.88 2.18 6.62h8s2.91-.74 0 2.93C4.36 38.92 14.55 51.41 16 42.6c1.45-5.87 4.26-7.56 7.27-10.28 4.23-3.81 6.23-8.81 8.23-8.81"/></g></svg>