<svg width="48" height="48" viewBox="0 0 48 48" xmlns="http://www.w3.org/2000/svg"><title>dislike3-line</title><g stroke="currentColor" fill="none" fill-rule="evenodd"><path d="M30.9 26.34c-4.8 3.5-8.9 15.45-8.9 15.45S22.68 46 21.3 46c-2.73 0-7.52-1.4-4.1-10.53 2.73-7.73 0-7.03 0-7.03s-10.27 2.81-13 0c-2.74-2.8-.69-5.62-.69-5.62-3.42-3.5 0-7.02 0-7.02C.1 10.9 5.57 8.78 5.57 8.78s-3.42-4.92 5.48-6.32c0 0 13-1.4 19.84.7L35 20.72c-2.74 1.4-2.74 4.21-4.1 5.62z" stroke-linecap="square"/><path d="M37.45 18.05L34.18 3.76s-.66-2.04 1.96-2.04h7.85c1.96 0 1.3 2.04 1.3 2.04L44 18.05c0 1.36-1.3 1.36-1.3 1.36h-3.93c-1.31 0-1.31-1.36-1.31-1.36z" stroke-linecap="square"/><ellipse transform="rotate(180 39.879 6.75)" cx="39.879" cy="6.75" rx="2.136" ry="2.156"/></g></svg>