<svg width="48" height="48" viewBox="0 0 48 48" xmlns="http://www.w3.org/2000/svg"><title>dislike1-line</title><g stroke="currentColor" fill="none" fill-rule="evenodd" stroke-linecap="square"><path d="M46.5 26h-15V1h15z"/><ellipse transform="rotate(180 38.41 8.938)" cx="38.409" cy="8.938" rx="2.909" ry="2.938"/><path d="M31 4.48S28.6 3 25.72 3H6.94S1.88 4.48 4.05 8.92c0 0-4.33 2.22-1.44 5.92 0 0-3.62 3.7 0 6.66 0 0-3.62 5.92 2.16 6.66h7.95s2.89-.74 0 2.96c-8.67 8.14 1.44 20.72 2.89 11.84 1.44-5.92 4.23-7.62 7.22-10.36 4.2-3.84 6.18-8.88 8.17-8.88"/></g></svg>