<svg width="48" height="48" viewBox="0 0 48 48" xmlns="http://www.w3.org/2000/svg"><title>like3-line</title><g stroke="currentColor" fill="none" fill-rule="evenodd"><path d="M16.25 21.26c4.84-3.5 9-15.35 9-15.35s-.7-4.2.68-4.2c2.77 0 7.6 1.4 4.15 10.48-2.76 7.67 0 6.97 0 6.97s10.37-2.79 13.14 0c2.76 2.8.69 5.59.69 5.59 3.46 3.49 0 6.97 0 6.97 3.46 4.89-2.07 6.98-2.07 6.98s3.45 4.89-5.54 6.28c0 0-13.13 1.4-20.05-.7l-4.14-17.44c2.76-1.4 2.76-4.19 4.14-5.58z" stroke-linecap="square"/><path d="M9.55 28.95l3.28 14.3s.65 2.03-1.97 2.03H3.01c-1.96 0-1.3-2.04-1.3-2.04L3 28.95c0-1.36 1.31-1.36 1.31-1.36h3.93c1.3 0 1.3 1.36 1.3 1.36z" stroke-linecap="square"/><ellipse cx="7.121" cy="40.25" rx="2.136" ry="2.156"/></g></svg>