<svg width="48" height="48" viewBox="0 0 48 48" xmlns="http://www.w3.org/2000/svg"><title>like3-line</title><g stroke="currentColor" fill="none" fill-rule="evenodd"><path d="M16.1 21.66C20.9 18.16 25 6.21 25 6.21S24.32 2 25.7 2c2.73 0 7.52 1.4 4.1 10.53-2.73 7.73 0 7.03 0 7.03s10.27-2.81 13 0c2.74 2.8.69 5.62.69 5.62 3.42 3.5 0 7.02 0 7.02 3.42 4.91-2.05 7.02-2.05 7.02s3.42 4.92-5.48 6.32c0 0-13 1.4-19.84-.7L12 27.28c2.74-1.4 2.74-4.21 4.1-5.62z" stroke-linecap="square"/><path d="M9.55 28.95l3.28 14.3s.65 2.03-1.97 2.03H3.01c-1.96 0-1.3-2.04-1.3-2.04L3 28.95c0-1.36 1.31-1.36 1.31-1.36h3.93c1.3 0 1.3 1.36 1.3 1.36z" stroke-linecap="square"/><ellipse cx="7.121" cy="40.25" rx="2.136" ry="2.156"/></g></svg>