<svg width="48" height="48" viewBox="0 0 48 48" xmlns="http://www.w3.org/2000/svg"><title>like1-line</title><g stroke="currentColor" fill="none" fill-rule="evenodd" stroke-linecap="square"><path d="M1.5 21h15v25h-15z"/><ellipse cx="8.909" cy="37.938" rx="2.909" ry="2.938"/><path d="M16.5 42.6s2.4 1.46 5.32 1.46h18.9s5.1-1.47 2.92-5.87c0 0 4.36-2.2 1.45-5.88 0 0 3.64-3.67 0-6.6 0 0 3.64-5.88-2.18-6.62h-8s-2.91.74 0-2.93C43.64 8.08 33.45-4.41 32 4.4c-1.45 5.87-4.26 7.56-7.27 10.28-4.23 3.81-6.23 8.81-8.23 8.81"/></g></svg>