<svg width="48" height="48" viewBox="0 0 48 48" xmlns="http://www.w3.org/2000/svg"><title>like1-line</title><g stroke="currentColor" fill="none" fill-rule="evenodd" stroke-linecap="square"><path d="M1.5 21h15v25h-15z"/><ellipse cx="8.909" cy="37.938" rx="2.909" ry="2.938"/><path d="M16 42.52S18.4 44 21.28 44h18.78s5.06-1.48 2.89-5.92c0 0 4.33-2.22 1.44-5.92 0 0 3.62-3.7 0-6.66 0 0 3.62-5.92-2.16-6.66h-7.95s-2.89.74 0-2.96c8.67-8.14-1.44-20.72-2.89-11.84-1.44 5.92-4.23 7.62-7.22 10.36-4.2 3.84-6.18 8.88-8.17 8.88"/></g></svg>