<svg width="48" height="48" viewBox="0 0 48 48" xmlns="http://www.w3.org/2000/svg" xmlns:xlink="http://www.w3.org/1999/xlink"><title>user2-line</title><defs><path d="M38.5 6.64A26.87 26.87 0 0 0 27.3.5c-.76 2.89-3.74 5.04-7.3 5.04-3.56 0-6.54-2.15-7.3-5.04A26.79 26.79 0 0 0 .5 7.6v6.9h38V6.64z" id="a"/></defs><g fill="none" fill-rule="evenodd"><use stroke="currentColor" xlink:href="#a" transform="translate(4.5 28.5)"/><path d="M24.5 27.52c3.7 0 8.53-5.94 8.53-12.02 0-6.09-2.82-10.02-8.53-10.02-5.71 0-8.53 3.93-8.53 10.02 0 6.08 4.82 12.02 8.53 12.02z" stroke="currentColor"/></g></svg>