<svg viewBox="0 0 800 800" xmlns="http://www.w3.org/2000/svg"><path fill="#fff" stroke="#000" vector-effect="non-scaling-stroke" d="M460 668c36-19 84 7 74 43H266c-10-36 38-62 74-43h120z"></path><ellipse fill="#fff" stroke="#000" vector-effect="non-scaling-stroke" cx="472" cy="536" rx="72" ry="86"></ellipse><ellipse fill="#fff" stroke="#000" vector-effect="non-scaling-stroke" cx="328" cy="536" rx="72" ry="86"></ellipse><path fill="#fff" stroke="#000" vector-effect="non-scaling-stroke" d="M425 711c55-30 89-158 67-268H308c-22 110 12 238 67 268h50z"></path><circle fill="#fff" stroke="#000" vector-effect="non-scaling-stroke" cx="578" cy="269" r="44"></circle><circle fill="#fff" stroke="#000" vector-effect="non-scaling-stroke" cx="222" cy="269" r="44"></circle><ellipse fill="#fff" stroke="#000" vector-effect="non-scaling-stroke" cx="400" cy="329" rx="197" ry="129"></ellipse><circle fill="#EE4B2D" class="reddit-eyes" cx="331" cy="304" r="32"></circle><circle fill="#EE4B2D" class="reddit-eyes" cx="469" cy="304" r="32"></circle><path fill="none" stroke="#000" vector-effect="non-scaling-stroke" class="reddit-line" d="M521 116l-88-20-32 102m67 190s-16 21-68 21-68-21-68-21"></path><circle fill="#fff" stroke="#000" vector-effect="non-scaling-stroke" cx="556" cy="123" r="34"></circle></svg>