<?xml version="1.0" encoding="UTF-8"?>
<svg width="48px" height="48px" viewBox="0 0 48 48" version="1.1" xmlns="http://www.w3.org/2000/svg" xmlns:xlink="http://www.w3.org/1999/xlink">
    <!-- Generator: Sketch 41.2 (35397) - http://www.bohemiancoding.com/sketch -->
    <title>dislike1-line</title>
    <desc>Created with Sketch.</desc>
    <defs></defs>
    <g id="line" stroke="none" stroke-width="1" fill="none" fill-rule="evenodd" stroke-linecap="square">
        <g id="dislike1-line" stroke="#000000">
            <rect id="Rectangle-4" transform="translate(39.500000, 13.500000) scale(-1, -1) translate(-39.500000, -13.500000) " x="31.5" y="1" width="16" height="25"></rect>
            <ellipse id="Oval-8" transform="translate(39.590909, 9.062500) scale(-1, -1) translate(-39.590909, -9.062500) " cx="39.5909091" cy="9.0625" rx="2.90909091" ry="2.9375"></ellipse>
            <path d="M1.29292929,44.1454667 C1.29292929,44.1454667 3.7020202,45.6142167 6.61111111,45.6142167 L25.520202,45.6142167 C25.520202,45.6142167 30.6111111,44.1454667 28.4292929,39.7392167 C28.4292929,39.7392167 32.7929293,37.5360917 29.8838384,33.8642167 C29.8838384,33.8642167 33.520202,30.1923417 29.8838384,27.2548417 C29.8838384,27.2548417 33.520202,21.3798417 27.7020202,20.6454667 L19.7020202,20.6454667 C19.7020202,20.6454667 16.7929293,21.3798417 19.7020202,17.7079667 C28.4292929,9.62984173 18.2474747,-2.85453327 16.7929293,5.95796673 C15.3383838,11.8329667 12.5341788,13.5209661 9.52020202,16.2392167 C5.29292929,20.0517167 3.29292929,25.0517167 1.29292929,25.0517167 L1.29292929,44.1454667 Z" id="Path-2" transform="translate(16.396465, 24.275858) scale(-1, -1) translate(-16.396465, -24.275858) "></path>
        </g>
    </g>
</svg>