<?xml version="1.0" encoding="UTF-8"?>
<svg width="48px" height="48px" viewBox="0 0 48 48" version="1.1" xmlns="http://www.w3.org/2000/svg" xmlns:xlink="http://www.w3.org/1999/xlink">
    <!-- Generator: Sketch 41.2 (35397) - http://www.bohemiancoding.com/sketch -->
    <title>dislike1-line</title>
    <desc>Created with Sketch.</desc>
    <defs></defs>
    <g id="line" stroke="none" stroke-width="1" fill="none" fill-rule="evenodd">
        <g id="dislike1-line" stroke="#000000">
            <path d="M18.5,23.8620164 L18.5,39.7639181 C18.5,39.7639181 20.7327132,41.3797029 23.7902757,41.9750478 C26.8478383,42.5703926 32.3155399,42.7128248 35.9051248,42.1226032 C39.4947097,41.5323816 38.603546,37.4549578 38.603546,37.4549578 C38.603546,37.4549578 42.2059216,36.3511804 40.0121242,32.4198193 C43.2551209,30.7807479 41.5954444,28.1202234 41.5454151,27.5509014 C45.2993794,25 42.7628963,22.056957 41.2246775,22.056957 C39.6864587,22.056957 30.3053323,22.056957 30.3053323,22.056957 C30.3053323,22.056957 30.0101034,20.5184438 30.7766604,18.6975775 C31.5432174,16.8767113 32.1905855,16.253877 32.4218868,14.7135818 C33.020151,10.7295861 31.5948198,7.5 29.5875259,7.5 C27.5802321,7.5 27.452536,12.1999076 26.1401033,14.9944873 C24.8276707,17.7890671 18.5,23.8620164 18.5,23.8620164 Z M5.5,22.5 L15.5,22.5 L15.5,42.5 L5.5,42.5 L5.5,22.5 Z" id="Combined-Shape" transform="translate(24.500000, 25.000000) rotate(180.000000) translate(-24.500000, -25.000000) "></path>
        </g>
    </g>
</svg>