<?xml version="1.0" encoding="UTF-8"?>
<svg width="48px" height="48px" viewBox="0 0 48 48" version="1.1" xmlns="http://www.w3.org/2000/svg" xmlns:xlink="http://www.w3.org/1999/xlink">
    <!-- Generator: Sketch 41.2 (35397) - http://www.bohemiancoding.com/sketch -->
    <title>dislike1-line</title>
    <desc>Created with Sketch.</desc>
    <defs></defs>
    <g id="line" stroke="none" stroke-width="1" fill="none" fill-rule="evenodd" stroke-linecap="square">
        <g id="dislike1-line" stroke="#000000">
            <rect id="Rectangle-4" transform="translate(39.000000, 13.500000) scale(-1, -1) translate(-39.000000, -13.500000) " x="31.5" y="1" width="15" height="25"></rect>
            <ellipse id="Oval-8" transform="translate(38.409091, 8.937500) scale(-1, -1) translate(-38.409091, -8.937500) " cx="38.4090909" cy="8.9375" rx="2.90909091" ry="2.9375"></ellipse>
            <path d="M1,44.520124 C1,44.520124 3.39257649,46 6.28172546,46 L25.0611938,46 C25.0611938,46 30.1172045,44.520124 27.9503428,40.0804959 C27.9503428,40.0804959 32.2840662,37.8606819 29.3949172,34.1609918 C29.3949172,34.1609918 33.0063535,30.4613017 29.3949172,27.5015497 C29.3949172,27.5015497 33.0063535,21.5820456 27.2280555,20.8421075 L19.2828958,20.8421075 C19.2828958,20.8421075 16.3937469,21.5820456 19.2828958,17.8823555 C27.9503428,9.74303734 17.8383214,-2.83590889 16.3937469,6.04334727 C14.9491724,11.9628514 12.1641903,13.6636377 9.17087444,16.4024795 C4.97257984,20.2438598 2.98628992,25.2817356 1,25.2817356" id="Path-2" transform="translate(16.000000, 24.500000) scale(-1, -1) translate(-16.000000, -24.500000) "></path>
        </g>
    </g>
</svg>