<?xml version="1.0" encoding="UTF-8"?>
<svg width="48px" height="48px" viewBox="0 0 48 48" version="1.1" xmlns="http://www.w3.org/2000/svg" xmlns:xlink="http://www.w3.org/1999/xlink">
    <!-- Generator: Sketch 41.2 (35397) - http://www.bohemiancoding.com/sketch -->
    <title>dislike3-line</title>
    <desc>Created with Sketch.</desc>
    <defs></defs>
    <g id="line" stroke="none" stroke-width="1" fill="none" fill-rule="evenodd">
        <g id="dislike3-line" stroke="#000000">
            <path d="M4.82659933,21.3743622 C9.81144781,17.7806122 14.0841751,5.56186224 14.0841751,5.56186224 C14.0841751,5.56186224 13.3720539,1.24936224 14.7962963,1.24936224 C17.6447811,1.24936224 22.6296296,2.68686224 19.0690236,12.0306122 C16.2205387,19.9368622 19.0690236,19.2181122 19.0690236,19.2181122 C19.0690236,19.2181122 29.7508418,16.3431122 32.5993266,19.2181122 C35.4478114,22.0931122 33.3114478,24.9681122 33.3114478,24.9681122 C36.8720539,28.5618622 33.3114478,32.1556122 33.3114478,32.1556122 C36.8720539,37.1868622 31.1750842,39.3431122 31.1750842,39.3431122 C31.1750842,39.3431122 34.7356902,44.3743622 25.4781145,45.8118622 C25.4781145,45.8118622 11.9478114,47.2493622 4.82659933,45.0931122 C4.82659933,45.0931122 0.553872054,27.1243622 0.553872054,27.1243622 C3.4023569,25.6868622 3.4023569,22.8118622 4.82659933,21.3743622 Z" id="Shape" stroke-linecap="square" transform="translate(17.723906, 23.765306) scale(-1, -1) translate(-17.723906, -23.765306) "></path>
            <path d="M42.7620875,3.15625 L46.3226936,18.25 C46.3226936,18.25 47.0348148,20.40625 44.18633,20.40625 C44.18633,20.40625 35.6408754,20.40625 35.6408754,20.40625 C33.5045118,20.40625 34.216633,18.25 34.216633,18.25 L35.6408754,3.15625 C35.6408754,1.71875 37.0651178,1.71875 37.0651178,1.71875 L41.3378451,1.71875 C42.7620875,1.71875 42.7620875,3.15625 42.7620875,3.15625 Z" id="Path" stroke-linecap="square" transform="translate(40.252256, 11.062500) scale(-1, -1) translate(-40.252256, -11.062500) "></path>
            <ellipse id="Oval-13" transform="translate(39.878788, 6.750000) scale(-1, -1) translate(-39.878788, -6.750000) " cx="39.8787879" cy="6.75" rx="2.13636364" ry="2.15625"></ellipse>
        </g>
    </g>
</svg>