<?xml version="1.0" encoding="UTF-8"?>
<svg width="48px" height="48px" viewBox="0 0 48 48" version="1.1" xmlns="http://www.w3.org/2000/svg" xmlns:xlink="http://www.w3.org/1999/xlink">
    <!-- Generator: Sketch 41.2 (35397) - http://www.bohemiancoding.com/sketch -->
    <title>dislike3-line</title>
    <desc>Created with Sketch.</desc>
    <defs></defs>
    <g id="line" stroke="none" stroke-width="1" fill="none" fill-rule="evenodd">
        <g id="dislike3-line" stroke="#000000">
            <path d="M6.10599078,21.6638436 C10.8963134,18.152443 15.0023041,6.21368078 15.0023041,6.21368078 C15.0023041,6.21368078 14.3179724,2 15.6866359,2 C18.4239631,2 23.2142857,3.40456026 19.7926267,12.534202 C17.0552995,20.2592834 19.7926267,19.5570033 19.7926267,19.5570033 C19.7926267,19.5570033 30.0576037,16.7478827 32.7949309,19.5570033 C35.5322581,22.3661238 33.4792627,25.1752443 33.4792627,25.1752443 C36.9009217,28.686645 33.4792627,32.1980456 33.4792627,32.1980456 C36.9009217,37.1140065 31.4262673,39.2208469 31.4262673,39.2208469 C31.4262673,39.2208469 34.8479263,44.1368078 25.9516129,45.5413681 C25.9516129,45.5413681 12.9493088,46.9459283 6.10599078,44.8390879 C6.10599078,44.8390879 2,27.2820847 2,27.2820847 C4.73732719,25.8775244 4.73732719,23.0684039 6.10599078,21.6638436 Z" id="Shape" stroke-linecap="square" transform="translate(18.500000, 24.000000) scale(-1, -1) translate(-18.500000, -24.000000) "></path>
            <path d="M42.0586382,3.07951927 L45.3299969,17.3675966 C45.3299969,17.3675966 45.9842687,19.4087505 43.3671817,19.4087505 C43.3671817,19.4087505 35.5159206,19.4087505 35.5159206,19.4087505 C33.5531053,19.4087505 34.2073771,17.3675966 34.2073771,17.3675966 L35.5159206,3.07951927 C35.5159206,1.71875 36.8244641,1.71875 36.8244641,1.71875 L40.7500946,1.71875 C42.0586382,1.71875 42.0586382,3.07951927 42.0586382,3.07951927 Z" id="Path" stroke-linecap="square" transform="translate(39.752694, 10.563750) scale(-1, -1) translate(-39.752694, -10.563750) "></path>
            <ellipse id="Oval-13" transform="translate(39.878788, 6.750000) scale(-1, -1) translate(-39.878788, -6.750000) " cx="39.8787879" cy="6.75" rx="2.13636364" ry="2.15625"></ellipse>
        </g>
    </g>
</svg>