<?xml version="1.0" encoding="UTF-8"?>
<svg width="48px" height="48px" viewBox="0 0 48 48" version="1.1" xmlns="http://www.w3.org/2000/svg" xmlns:xlink="http://www.w3.org/1999/xlink">
    <!-- Generator: Sketch 41.2 (35397) - http://www.bohemiancoding.com/sketch -->
    <title>dislike3-line</title>
    <desc>Created with Sketch.</desc>
    <defs></defs>
    <g id="line" stroke="none" stroke-width="1" fill="none" fill-rule="evenodd">
        <g id="dislike3-line" stroke="#000000">
            <path d="M5.702167,21.7882728 C10.5418444,18.2991816 14.6901394,6.43627164 14.6901394,6.43627164 C14.6901394,6.43627164 13.9987569,2.24936224 15.3815219,2.24936224 C18.1470519,2.24936224 22.9867293,3.64499871 19.5298168,12.7166357 C16.7642869,20.3926363 19.5298168,19.6948181 19.5298168,19.6948181 C19.5298168,19.6948181 29.9005542,16.9035451 32.6660842,19.6948181 C35.4316141,22.486091 33.3574667,25.2773639 33.3574667,25.2773639 C36.8143791,28.7664551 33.3574667,32.2555463 33.3574667,32.2555463 C36.8143791,37.1402739 31.2833192,39.2337286 31.2833192,39.2337286 C31.2833192,39.2337286 34.7402317,44.1184562 25.7522593,45.5140927 C25.7522593,45.5140927 12.6159919,46.9097292 5.702167,44.8162745 C5.702167,44.8162745 1.55387205,27.3708186 1.55387205,27.3708186 C4.31940202,25.9751822 4.31940202,23.1839092 5.702167,21.7882728 Z" id="Shape" stroke-linecap="square" transform="translate(18.223872, 24.109586) scale(-1, -1) translate(-18.223872, -24.109586) "></path>
            <path d="M42.0586382,3.07951927 L45.3299969,17.3675966 C45.3299969,17.3675966 45.9842687,19.4087505 43.3671817,19.4087505 C43.3671817,19.4087505 35.5159206,19.4087505 35.5159206,19.4087505 C33.5531053,19.4087505 34.2073771,17.3675966 34.2073771,17.3675966 L35.5159206,3.07951927 C35.5159206,1.71875 36.8244641,1.71875 36.8244641,1.71875 L40.7500946,1.71875 C42.0586382,1.71875 42.0586382,3.07951927 42.0586382,3.07951927 Z" id="Path" stroke-linecap="square" transform="translate(39.752694, 10.563750) scale(-1, -1) translate(-39.752694, -10.563750) "></path>
            <ellipse id="Oval-13" transform="translate(39.878788, 6.750000) scale(-1, -1) translate(-39.878788, -6.750000) " cx="39.8787879" cy="6.75" rx="2.13636364" ry="2.15625"></ellipse>
        </g>
    </g>
</svg>