<?xml version="1.0" encoding="UTF-8"?>
<svg width="48px" height="48px" viewBox="0 0 48 48" version="1.1" xmlns="http://www.w3.org/2000/svg" xmlns:xlink="http://www.w3.org/1999/xlink">
    <!-- Generator: Sketch 41.2 (35397) - http://www.bohemiancoding.com/sketch -->
    <title>like1-line</title>
    <desc>Created with Sketch.</desc>
    <defs></defs>
    <g id="line" stroke="none" stroke-width="1" fill="none" fill-rule="evenodd" stroke-linecap="square">
        <g id="like1-line" stroke="#000000">
            <rect id="Rectangle-4" x="0.5" y="21" width="16" height="25"></rect>
            <ellipse id="Oval-8" cx="8.40909091" cy="37.9375" rx="2.90909091" ry="2.9375"></ellipse>
            <path d="M16.5,42.59375 C16.5,42.59375 18.9090909,44.0625 21.8181818,44.0625 L40.7272727,44.0625 C40.7272727,44.0625 45.8181818,42.59375 43.6363636,38.1875 C43.6363636,38.1875 48,35.984375 45.0909091,32.3125 C45.0909091,32.3125 48.7272727,28.640625 45.0909091,25.703125 C45.0909091,25.703125 48.7272727,19.828125 42.9090909,19.09375 L34.9090909,19.09375 C34.9090909,19.09375 32,19.828125 34.9090909,16.15625 C43.6363636,8.078125 33.4545455,-4.40625 32,4.40625 C30.5454545,10.28125 27.7412496,11.9692494 24.7272727,14.6875 C20.5,18.5 18.5,23.5 16.5,23.5 L16.5,42.59375 Z" id="Path-2"></path>
        </g>
    </g>
</svg>