<?xml version="1.0" encoding="UTF-8"?>
<svg width="48px" height="48px" viewBox="0 0 48 48" version="1.1" xmlns="http://www.w3.org/2000/svg" xmlns:xlink="http://www.w3.org/1999/xlink">
    <!-- Generator: Sketch 41.2 (35397) - http://www.bohemiancoding.com/sketch -->
    <title>like3-line</title>
    <desc>Created with Sketch.</desc>
    <defs></defs>
    <g id="line" stroke="none" stroke-width="1" fill="none" fill-rule="evenodd">
        <g id="like3-line" stroke="#000000">
            <path d="M16.1059908,21.6638436 C20.8963134,18.152443 25.0023041,6.21368078 25.0023041,6.21368078 C25.0023041,6.21368078 24.3179724,2 25.6866359,2 C28.4239631,2 33.2142857,3.40456026 29.7926267,12.534202 C27.0552995,20.2592834 29.7926267,19.5570033 29.7926267,19.5570033 C29.7926267,19.5570033 40.0576037,16.7478827 42.7949309,19.5570033 C45.5322581,22.3661238 43.4792627,25.1752443 43.4792627,25.1752443 C46.9009217,28.686645 43.4792627,32.1980456 43.4792627,32.1980456 C46.9009217,37.1140065 41.4262673,39.2208469 41.4262673,39.2208469 C41.4262673,39.2208469 44.8479263,44.1368078 35.9516129,45.5413681 C35.9516129,45.5413681 22.9493088,46.9459283 16.1059908,44.8390879 C16.1059908,44.8390879 12,27.2820847 12,27.2820847 C14.7373272,25.8775244 14.7373272,23.0684039 16.1059908,21.6638436 Z" id="Shape" stroke-linecap="square"></path>
            <path d="M9.55412637,28.9545193 L12.8254851,43.2425966 C12.8254851,43.2425966 13.4797569,45.2837505 10.8626699,45.2837505 C10.8626699,45.2837505 3.01140881,45.2837505 3.01140881,45.2837505 C1.04859354,45.2837505 1.7028653,43.2425966 1.7028653,43.2425966 L3.01140881,28.9545193 C3.01140881,27.59375 4.31995232,27.59375 4.31995232,27.59375 L8.24558286,27.59375 C9.55412637,27.59375 9.55412637,28.9545193 9.55412637,28.9545193 Z" id="Path" stroke-linecap="square"></path>
            <ellipse id="Oval-13" cx="7.12121212" cy="40.25" rx="2.13636364" ry="2.15625"></ellipse>
        </g>
    </g>
</svg>