<?xml version="1.0" encoding="UTF-8"?>
<svg width="48px" height="48px" viewBox="0 0 48 48" version="1.1" xmlns="http://www.w3.org/2000/svg" xmlns:xlink="http://www.w3.org/1999/xlink">
    <!-- Generator: Sketch 41.2 (35397) - http://www.bohemiancoding.com/sketch -->
    <title>like3-line</title>
    <desc>Created with Sketch.</desc>
    <defs></defs>
    <g id="line" stroke="none" stroke-width="1" fill="none" fill-rule="evenodd">
        <g id="like3-line" stroke="#000000">
            <path d="M16.2543556,21.2576605 C21.094033,17.7685694 25.2423279,5.9056594 25.2423279,5.9056594 C25.2423279,5.9056594 24.5509455,1.71875 25.9337104,1.71875 C28.6992404,1.71875 33.5389178,3.11438647 30.0820054,12.1860235 C27.3164754,19.8620241 30.0820054,19.1642058 30.0820054,19.1642058 C30.0820054,19.1642058 40.4527428,16.3729329 43.2182727,19.1642058 C45.9838027,21.9554788 43.9096552,24.7467517 43.9096552,24.7467517 C47.3665677,28.2358429 43.9096552,31.724934 43.9096552,31.724934 C47.3665677,36.6096616 41.8355077,38.7031163 41.8355077,38.7031163 C41.8355077,38.7031163 45.2924202,43.587844 36.3044478,44.9834804 C36.3044478,44.9834804 23.1681805,46.3791169 16.2543556,44.2856622 C16.2543556,44.2856622 12.1060606,26.8402064 12.1060606,26.8402064 C14.8715906,25.4445699 14.8715906,22.653297 16.2543556,21.2576605 Z" id="Shape" stroke-linecap="square"></path>
            <path d="M9.55412637,28.9545193 L12.8254851,43.2425966 C12.8254851,43.2425966 13.4797569,45.2837505 10.8626699,45.2837505 C10.8626699,45.2837505 3.01140881,45.2837505 3.01140881,45.2837505 C1.04859354,45.2837505 1.7028653,43.2425966 1.7028653,43.2425966 L3.01140881,28.9545193 C3.01140881,27.59375 4.31995232,27.59375 4.31995232,27.59375 L8.24558286,27.59375 C9.55412637,27.59375 9.55412637,28.9545193 9.55412637,28.9545193 Z" id="Path" stroke-linecap="square"></path>
            <ellipse id="Oval-13" cx="7.12121212" cy="40.25" rx="2.13636364" ry="2.15625"></ellipse>
        </g>
    </g>
</svg>