<?xml version="1.0" encoding="UTF-8"?>
<svg width="48px" height="48px" viewBox="0 0 48 48" version="1.1" xmlns="http://www.w3.org/2000/svg" xmlns:xlink="http://www.w3.org/1999/xlink">
    <!-- Generator: Sketch 41.2 (35397) - http://www.bohemiancoding.com/sketch -->
    <title>like1-line</title>
    <desc>Created with Sketch.</desc>
    <defs></defs>
    <g id="line" stroke="none" stroke-width="1" fill="none" fill-rule="evenodd" stroke-linecap="square">
        <g id="like1-line" stroke="#000000">
            <rect id="Rectangle-4" x="1.5" y="21" width="15" height="25"></rect>
            <ellipse id="Oval-8" cx="8.90909091" cy="37.9375" rx="2.90909091" ry="2.9375"></ellipse>
            <path d="M16,42.520124 C16,42.520124 18.3925765,44 21.2817255,44 L40.0611938,44 C40.0611938,44 45.1172045,42.520124 42.9503428,38.0804959 C42.9503428,38.0804959 47.2840662,35.8606819 44.3949172,32.1609918 C44.3949172,32.1609918 48.0063535,28.4613017 44.3949172,25.5015497 C44.3949172,25.5015497 48.0063535,19.5820456 42.2280555,18.8421075 L34.2828958,18.8421075 C34.2828958,18.8421075 31.3937469,19.5820456 34.2828958,15.8823555 C42.9503428,7.74303734 32.8383214,-4.83590889 31.3937469,4.04334727 C29.9491724,9.96285138 27.1641903,11.6636377 24.1708744,14.4024795 C19.9725798,18.2438598 17.9862899,23.2817356 16,23.2817356" id="Path-2"></path>
        </g>
    </g>
</svg>