<?xml version="1.0" encoding="UTF-8"?>
<svg width="48px" height="48px" viewBox="0 0 48 48" version="1.1" xmlns="http://www.w3.org/2000/svg" xmlns:xlink="http://www.w3.org/1999/xlink">
    <!-- Generator: Sketch 41.2 (35397) - http://www.bohemiancoding.com/sketch -->
    <title>like1-line</title>
    <desc>Created with Sketch.</desc>
    <defs></defs>
    <g id="line" stroke="none" stroke-width="1" fill="none" fill-rule="evenodd">
        <g id="like1-line" stroke="#000000">
            <path d="M17.5,23.3620164 L17.5,39.2639181 C17.5,39.2639181 19.7327132,40.8797029 22.7902757,41.4750478 C25.8478383,42.0703926 31.3155399,42.2128248 34.9051248,41.6226032 C38.4947097,41.0323816 37.603546,36.9549578 37.603546,36.9549578 C37.603546,36.9549578 41.2059216,35.8511804 39.0121242,31.9198193 C42.2551209,30.2807479 40.5954444,27.6202234 40.5454151,27.0509014 C44.2993794,24.5 41.7628963,21.556957 40.2246775,21.556957 C38.6864587,21.556957 29.3053323,21.556957 29.3053323,21.556957 C29.3053323,21.556957 29.0101034,20.0184438 29.7766604,18.1975775 C30.5432174,16.3767113 31.1905855,15.753877 31.4218868,14.2135818 C32.020151,10.2295861 30.5948198,7 28.5875259,7 C26.5802321,7 26.452536,11.6999076 25.1401033,14.4944873 C23.8276707,17.2890671 17.5,23.3620164 17.5,23.3620164 Z M5.5,22 L15.5,22 L15.5,42 L5.5,42 L5.5,22 Z" id="Combined-Shape"></path>
        </g>
    </g>
</svg>