<?xml version="1.0" encoding="UTF-8"?>
<svg width="48px" height="48px" viewBox="0 0 48 48" version="1.1" xmlns="http://www.w3.org/2000/svg" xmlns:xlink="http://www.w3.org/1999/xlink">
    <!-- Generator: Sketch 41.2 (35397) - http://www.bohemiancoding.com/sketch -->
    <title>like3-line</title>
    <desc>Created with Sketch.</desc>
    <defs></defs>
    <g id="line" stroke="none" stroke-width="1" fill="none" fill-rule="evenodd">
        <g id="like3-line" stroke="#000000">
            <path d="M16.3787879,20.84375 C21.3636364,17.25 25.6363636,5.03125 25.6363636,5.03125 C25.6363636,5.03125 24.9242424,0.71875 26.3484848,0.71875 C29.1969697,0.71875 34.1818182,2.15625 30.6212121,11.5 C27.7727273,19.40625 30.6212121,18.6875 30.6212121,18.6875 C30.6212121,18.6875 41.3030303,15.8125 44.1515152,18.6875 C47,21.5625 44.8636364,24.4375 44.8636364,24.4375 C48.4242424,28.03125 44.8636364,31.625 44.8636364,31.625 C48.4242424,36.65625 42.7272727,38.8125 42.7272727,38.8125 C42.7272727,38.8125 46.2878788,43.84375 37.030303,45.28125 C37.030303,45.28125 23.5,46.71875 16.3787879,44.5625 C16.3787879,44.5625 12.1060606,26.59375 12.1060606,26.59375 C14.9545455,25.15625 14.9545455,22.28125 16.3787879,20.84375 Z" id="Shape" stroke-linecap="square"></path>
            <path d="M9.25757576,28.03125 L12.8181818,43.125 C12.8181818,43.125 13.530303,45.28125 10.6818182,45.28125 C10.6818182,45.28125 2.13636364,45.28125 2.13636364,45.28125 C-9.55902024e-14,45.28125 0.712121212,43.125 0.712121212,43.125 L2.13636364,28.03125 C2.13636364,26.59375 3.56060606,26.59375 3.56060606,26.59375 L7.83333333,26.59375 C9.25757576,26.59375 9.25757576,28.03125 9.25757576,28.03125 Z" id="Path" stroke-linecap="square"></path>
            <ellipse id="Oval-13" cx="7.12121212" cy="40.25" rx="2.13636364" ry="2.15625"></ellipse>
        </g>
    </g>
</svg>