<?xml version="1.0" encoding="UTF-8"?>
<svg width="48px" height="48px" viewBox="0 0 48 48" version="1.1" xmlns="http://www.w3.org/2000/svg" xmlns:xlink="http://www.w3.org/1999/xlink">
    <!-- Generator: Sketch 41.2 (35397) - http://www.bohemiancoding.com/sketch -->
    <title>user3-line</title>
    <desc>Created with Sketch.</desc>
    <defs></defs>
    <g id="line" stroke="none" stroke-width="1" fill="none" fill-rule="evenodd">
        <g id="user3-line" stroke="#000000">
            <g id="body-man-suit" transform="translate(5.000000, 29.000000)">
                <polygon points="1.30851064 6.22727273 14.4361702 0.5 19.5 12.4090909 25.1595745 0.5 37.6914894 6.22727273 38.5 14.5 0.5 14.5"></polygon>
            </g>
            <g id="hear-man" transform="translate(14.500000, 5.000000)">
                <path d="M1.82280979,14.5191413 C1.33238519,13.937799 0.88913442,13.3051511 0.5,12.6290457 L0.5,9.99591445 C0.5,4.75146571 4.75214127,0.5 10,0.5 C15.2467051,0.5 19.5,4.75015576 19.5,9.99591445 L19.5,13.1133538 C19.0266233,13.8600131 18.4850212,14.5476471 17.8854983,15.1646069 L17.4032151,10.8240579 C17.2829097,9.74130963 16.2911315,8.72255737 15.1910463,8.57587934 L5.27236836,7.25338895 C4.17129664,7.10657939 3.11000459,7.8686348 2.8997029,8.95519357 L1.82280979,14.5191413 Z"></path>
            </g>
        </g>
    </g>
</svg>