<?xml version="1.0" encoding="UTF-8"?>
<svg width="48px" height="48px" viewBox="0 0 48 48" version="1.1" xmlns="http://www.w3.org/2000/svg" xmlns:xlink="http://www.w3.org/1999/xlink">
    <!-- Generator: Sketch 41.2 (35397) - http://www.bohemiancoding.com/sketch -->
    <title>user3-line</title>
    <desc>Created with Sketch.</desc>
    <defs></defs>
    <g id="line" stroke="none" stroke-width="1" fill="none" fill-rule="evenodd">
        <g id="user3-line" stroke="#000000">
            <path d="M30.2598214,21.2121212 C37.2151786,21.9090909 42.7794643,23.3030303 42.7794643,28.8787879 C42.7794643,35.8484848 32.3464286,46.3030303 24,46.3030303 C15.6535714,46.3030303 5.22053571,35.8484848 5.22053571,28.8787879 C5.22053571,24 10.0892857,21.9090909 16.3491071,21.2121212 C18.4357143,24 21.2178571,25.3939394 23.3044643,25.3939394 C25.3910714,25.3939394 28.1732143,24 30.2598214,21.2121212 Z" id="Combined-Shape"></path>
            <path d="M23.3044643,21.9090909 C27.4776786,21.9090909 32.3464286,15.6363636 32.3464286,10.0606061 C32.3464286,4.48484848 28.1732143,1.6969697 23.3044643,1.6969697 C18.4357143,1.6969697 14.2625,4.48484848 14.2625,10.0606061 C14.2625,15.6363636 19.13125,21.9090909 23.3044643,21.9090909 Z" id="Oval"></path>
        </g>
    </g>
</svg>