<?xml version="1.0" encoding="UTF-8"?>
<svg width="48px" height="48px" viewBox="0 0 48 48" version="1.1" xmlns="http://www.w3.org/2000/svg" xmlns:xlink="http://www.w3.org/1999/xlink">
    <!-- Generator: Sketch 41.2 (35397) - http://www.bohemiancoding.com/sketch -->
    <title>user3-line</title>
    <desc>Created with Sketch.</desc>
    <defs></defs>
    <g id="line" stroke="none" stroke-width="1" fill="none" fill-rule="evenodd">
        <g id="user3-line" stroke="#000000">
            <g id="Group" transform="translate(5.000000, 1.000000)">
                <path d="M25.2598214,20.2121212 C32.2151786,20.9090909 37.7794643,22.3030303 37.7794643,27.8787879 C37.7794643,34.8484848 27.3464286,45.3030303 19,45.3030303 C10.6535714,45.3030303 0.220535714,34.8484848 0.220535714,27.8787879 C0.220535714,23 5.08928571,20.9090909 11.3491071,20.2121212 C13.4357143,23 16.2178571,24.3939394 18.3044643,24.3939394 C20.3910714,24.3939394 23.1732143,23 25.2598214,20.2121212 Z" id="Combined-Shape"></path>
                <path d="M18.3044643,20.9090909 C22.4776786,20.9090909 27.3464286,14.6363636 27.3464286,9.06060606 C27.3464286,3.48484848 23.1732143,0.696969697 18.3044643,0.696969697 C13.4357143,0.696969697 9.2625,3.48484848 9.2625,9.06060606 C9.2625,14.6363636 14.13125,20.9090909 18.3044643,20.9090909 Z" id="Oval"></path>
            </g>
        </g>
    </g>
</svg>