<?xml version="1.0" encoding="UTF-8"?>
<svg width="48px" height="48px" viewBox="0 0 48 48" version="1.1" xmlns="http://www.w3.org/2000/svg" xmlns:xlink="http://www.w3.org/1999/xlink">
    <!-- Generator: Sketch 41.2 (35397) - http://www.bohemiancoding.com/sketch -->
    <title>user2-line</title>
    <desc>Created with Sketch.</desc>
    <defs></defs>
    <g id="line" stroke="none" stroke-width="1" fill="none" fill-rule="evenodd" stroke-linecap="square">
        <g id="user2-line" stroke="#000000">
            <path d="M33.640625,22.9756098 C35.046875,23.6747967 37.859375,16.6829268 35.046875,16.6829268 C37.15625,11.7886179 34.34375,2 24.5,2 C14.65625,2 11.84375,12.4878049 13.953125,16.6829268 C11.140625,16.6829268 13.953125,23.6747967 15.359375,22.9756098 C15.359375,22.9756098 16.0625,25.7723577 17.46875,27.8699187 L17.46875,31.3658537 C17.46875,33.4634146 2,34.1626155 2,39.7560976 C2,46.7479675 47,46.7479675 47,39.7560976 C47,34.1626105 31.53125,33.4634146 31.53125,31.3658537 L31.53125,27.8699187 C32.9375,25.7723577 33.640625,22.9756098 33.640625,22.9756098 Z" id="Shape"></path>
        </g>
    </g>
</svg>