<?xml version="1.0" encoding="UTF-8"?>
<svg width="48px" height="48px" viewBox="0 0 48 48" version="1.1" xmlns="http://www.w3.org/2000/svg" xmlns:xlink="http://www.w3.org/1999/xlink">
    <!-- Generator: Sketch 41.2 (35397) - http://www.bohemiancoding.com/sketch -->
    <title>user4-line</title>
    <desc>Created with Sketch.</desc>
    <defs></defs>
    <g id="line" stroke="none" stroke-width="1" fill="none" fill-rule="evenodd" stroke-linecap="square">
        <g id="user4-line" stroke="#000000">
            <ellipse id="Shape" cx="24" cy="24" rx="22.5" ry="22.5"></ellipse>
            <path d="M38,41.327128 C35.1617554,38.8063604 31.6497735,36.9912593 27.7574306,36.1671925 L27.520576,35.0152482 C31.0305562,33.5935459 33.1161789,30.0198527 33.1161789,25.8360656 C33.1161789,20.4037566 29.6000441,16 24.0152801,16 C18.430516,16 14.9143812,20.4037566 14.9143812,25.8360656 C14.9143812,30.0198527 17.0000039,33.5935459 20.5099841,35.0152482 L20.3434285,35.825293 C16.0736453,36.3202806 12.1750932,37.9915968 9,40.4966291 C13.0065515,43.9225129 18.2614954,46 24.0152801,46 C29.2880574,46 34.1419124,44.2553433 38,41.327128 Z" id="Combined-Shape"></path>
        </g>
    </g>
</svg>