<?xml version="1.0" encoding="UTF-8"?>
<svg width="48px" height="48px" viewBox="0 0 48 48" version="1.1" xmlns="http://www.w3.org/2000/svg" xmlns:xlink="http://www.w3.org/1999/xlink">
    <!-- Generator: Sketch 41.2 (35397) - http://www.bohemiancoding.com/sketch -->
    <title>user2-line</title>
    <desc>Created with Sketch.</desc>
    <defs>
        <path d="M38.5,6.63723331 C35.4066914,3.79142323 31.5784714,1.65325595 27.3092445,0.5 C26.5434522,3.38529222 23.5616549,5.53693558 20,5.53693558 C16.4383451,5.53693558 13.4565478,3.38529222 12.6907555,0.5 C7.94886256,1.78093831 3.75103405,4.27694899 0.5,7.60809811 L0.5,14.5 L38.5,14.5 L38.5,6.63723331 Z" id="path-1"></path>
    </defs>
    <g id="line" stroke="none" stroke-width="1" fill="none" fill-rule="evenodd">
        <g id="user2-line">
            <g id="body-woman-shirt" transform="translate(4.500000, 28.500000)">
                <mask id="mask-2" fill="white">
                    <use xlink:href="#path-1"></use>
                </mask>
                <use id="Combined-Shape" stroke="#000000" stroke-width="1" xlink:href="#path-1"></use>
            </g>
            <path d="M24.5,27.5208333 C28.2058582,27.5208333 33.0263158,21.5847442 33.0263158,15.4981061 C33.0263158,9.41146788 30.2120502,5.47916667 24.5,5.47916667 C18.7879498,5.47916667 15.9736842,9.41146788 15.9736842,15.4981061 C15.9736842,21.5847442 20.7941418,27.5208333 24.5,27.5208333 Z" id="head-oval" stroke="#000000"></path>
        </g>
    </g>
</svg>