<?xml version="1.0" encoding="UTF-8"?>
<svg width="48px" height="48px" viewBox="0 0 48 48" version="1.1" xmlns="http://www.w3.org/2000/svg" xmlns:xlink="http://www.w3.org/1999/xlink">
    <!-- Generator: Sketch 41.2 (35397) - http://www.bohemiancoding.com/sketch -->
    <title>volumeup1-line</title>
    <desc>Created with Sketch.</desc>
    <defs></defs>
    <g id="line" stroke="none" stroke-width="1" fill="none" fill-rule="evenodd">
        <g id="volumeup1-line" stroke="#000000">
            <g id="volume-base" transform="translate(11.000000, 13.000000)">
                <polygon id="Rectangle-13" points="0.5 7.5 4.5 7.5 11.5 0.5 11.5 22.5 4.5 15.5 0.5 15.5"></polygon>
            </g>
            <path d="M34.0016654,6.67660739 C39.9787607,10.1349386 44,16.5978639 44,24 C44,31.4021361 39.9787607,37.8650614 34.0016654,41.3233926 L34.0016654,41.3233926 L34.0016654,41.3233926" id="Combined-Shape"></path>
            <path d="M30.5010825,12.7397948 C34.3861944,14.9877101 37,19.1886115 37,24 C37,28.8113885 34.3861944,33.0122899 30.5010825,35.2602052 L30.5010825,35.2602052 L30.5010825,35.2602052" id="Combined-Shape"></path>
            <path d="M27.0004996,18.8029822 C28.7936282,19.8404816 30,21.7793592 30,24 C30,26.2206408 28.7936282,28.1595184 27.0004996,29.1970178 L27.0004996,29.1970178" id="Combined-Shape"></path>
        </g>
    </g>
</svg>