<svg viewBox="0 0 800 800" xmlns="http://www.w3.org/2000/svg">
  <path fill="#ffffff" stroke="currentColor" stroke-width="1" vector-effect="non-scaling-stroke" d="M460 668c36-19 84 7 74 43h-268c-10-36 38-62 74-43h120z"/>
  <ellipse fill="#ffffff" stroke="currentColor" stroke-width="1" vector-effect="non-scaling-stroke" cx="472" cy="536" rx="72" ry="86"/>
  <ellipse fill="#ffffff" stroke="currentColor" stroke-width="1" vector-effect="non-scaling-stroke" cx="328" cy="536" rx="72" ry="86"/>
  <path fill="#ffffff" stroke="currentColor" stroke-width="1" vector-effect="non-scaling-stroke" d="M425 711c55-30 89-158 67-268h-184c-22 110 12 238 67 268h50z"/>
  <circle fill="#ffffff" stroke="currentColor" stroke-width="1" vector-effect="non-scaling-stroke" cx="578" cy="269" r="44"/>
  <circle fill="#ffffff" stroke="currentColor" stroke-width="1" vector-effect="non-scaling-stroke" cx="222" cy="269" r="44"/>
  <ellipse fill="#ffffff" stroke="currentColor" stroke-width="1" vector-effect="non-scaling-stroke" cx="400" cy="329" rx="197" ry="129"/>
  <circle class="reddit-eyes" cx="331" cy="304" r="32"/>
  <circle class="reddit-eyes" cx="469" cy="304" r="32"/>
  <path fill="none" stroke="currentColor" stroke-width="1" vector-effect="non-scaling-stroke" class="reddit-line" d="M521 116l-88-20-32 102M468 388s-16 21-68 21-68-21-68-21"/>
  <circle fill="#ffffff" stroke="currentColor" stroke-width="1" vector-effect="non-scaling-stroke" cx="556" cy="123" r="34"/>
</svg>
