<?xml version="1.0" encoding="UTF-8"?>
<svg width="48px" height="48px" viewBox="0 0 48 48" version="1.1" xmlns="http://www.w3.org/2000/svg" xmlns:xlink="http://www.w3.org/1999/xlink">
    <!-- Generator: Sketch 41.2 (35397) - http://www.bohemiancoding.com/sketch -->
    <title>dislike1-fill</title>
    <desc>Created with Sketch.</desc>
    <defs></defs>
    <g id="page" stroke="none" stroke-width="1" fill="none" fill-rule="evenodd">
        <g id="dislike1-fill" fill="#000000">
            <path d="M0.583333333,45.1875 C0.583333333,45.1875 3.04108278,46.6875 5.83333333,46.6875 L25.3333333,46.6875 C25.3333333,46.6875 30.5833333,45.1875 28.3333333,40.6875 C28.3333333,40.6875 32.8333333,38.4375 29.8333333,34.6875 C29.8333333,34.6875 33.5833333,30.9375 29.8333333,27.9375 C29.8333333,27.9375 33.5833333,21.9375 27.5833333,21.1875 L19.3333333,21.1875 C19.3333333,21.1875 16.3333333,21.1875 19.3333333,18.1875 C27.5833333,9.1875 17.0833333,-2.8125 16.3333333,6.1875 C15.5833333,12.9375 11.8333333,13.6875 8.83333333,16.6875 C7.33333333,18.1875 4.33333333,21.9375 4.33333333,21.9375 C4.33333333,21.9375 2.08333333,25.6875 0.583333333,25.6875 L0.583333333,45.1875 Z" id="Path-2" transform="translate(16.041667, 24.843750) scale(-1, -1) translate(-16.041667, -24.843750) "></path>
            <path d="M33,0 L48,0 L48,25.5 L33,25.5 L33,0 Z M40.5,19.5 C42.1568542,19.5 43.5,18.1568542 43.5,16.5 C43.5,14.8431458 42.1568542,13.5 40.5,13.5 C38.8431458,13.5 37.5,14.8431458 37.5,16.5 C37.5,18.1568542 38.8431458,19.5 40.5,19.5 Z" id="Combined-Shape" transform="translate(40.500000, 12.750000) scale(-1, -1) translate(-40.500000, -12.750000) "></path>
        </g>
    </g>
</svg>