<?xml version="1.0" encoding="UTF-8"?>
<svg width="33px" height="33px" viewBox="0 0 33 33" version="1.1" xmlns="http://www.w3.org/2000/svg" xmlns:xlink="http://www.w3.org/1999/xlink">
    <!-- Generator: Sketch 41.2 (35397) - http://www.bohemiancoding.com/sketch -->
    <title>grid-circle-fill</title>
    <desc>Created with Sketch.</desc>
    <defs></defs>
    <g id="page" stroke="none" stroke-width="1" fill="none" fill-rule="evenodd">
        <g id="grid-circle-fill" fill="#000000">
            <path d="M3.5,7 C5.43299662,7 7,5.43299662 7,3.5 C7,1.56700338 5.43299662,0 3.5,0 C1.56700338,0 0,1.56700338 0,3.5 C0,5.43299662 1.56700338,7 3.5,7 Z M3.5,20 C5.43299662,20 7,18.4329966 7,16.5 C7,14.5670034 5.43299662,13 3.5,13 C1.56700338,13 0,14.5670034 0,16.5 C0,18.4329966 1.56700338,20 3.5,20 Z M16.5,7 C18.4329966,7 20,5.43299662 20,3.5 C20,1.56700338 18.4329966,0 16.5,0 C14.5670034,0 13,1.56700338 13,3.5 C13,5.43299662 14.5670034,7 16.5,7 Z M16.5,20 C18.4329966,20 20,18.4329966 20,16.5 C20,14.5670034 18.4329966,13 16.5,13 C14.5670034,13 13,14.5670034 13,16.5 C13,18.4329966 14.5670034,20 16.5,20 Z M29.5,7 C31.4329966,7 33,5.43299662 33,3.5 C33,1.56700338 31.4329966,0 29.5,0 C27.5670034,0 26,1.56700338 26,3.5 C26,5.43299662 27.5670034,7 29.5,7 Z M29.5,20 C31.4329966,20 33,18.4329966 33,16.5 C33,14.5670034 31.4329966,13 29.5,13 C27.5670034,13 26,14.5670034 26,16.5 C26,18.4329966 27.5670034,20 29.5,20 Z M3.5,33 C5.43299662,33 7,31.4329966 7,29.5 C7,27.5670034 5.43299662,26 3.5,26 C1.56700338,26 0,27.5670034 0,29.5 C0,31.4329966 1.56700338,33 3.5,33 Z M16.5,33 C18.4329966,33 20,31.4329966 20,29.5 C20,27.5670034 18.4329966,26 16.5,26 C14.5670034,26 13,27.5670034 13,29.5 C13,31.4329966 14.5670034,33 16.5,33 Z M29.5,33 C31.4329966,33 33,31.4329966 33,29.5 C33,27.5670034 31.4329966,26 29.5,26 C27.5670034,26 26,27.5670034 26,29.5 C26,31.4329966 27.5670034,33 29.5,33 Z" id="Combined-Shape"></path>
        </g>
    </g>
</svg>