<?xml version="1.0" encoding="UTF-8"?>
<svg width="34px" height="34px" viewBox="0 0 34 34" version="1.1" xmlns="http://www.w3.org/2000/svg" xmlns:xlink="http://www.w3.org/1999/xlink">
    <!-- Generator: Sketch 41.2 (35397) - http://www.bohemiancoding.com/sketch -->
    <title>grid-rect-line</title>
    <desc>Created with Sketch.</desc>
    <defs></defs>
    <g id="page" stroke="none" stroke-width="1" fill="none" fill-rule="evenodd" stroke-linecap="square">
        <g id="grid-rect-line" stroke="#000000">
            <path d="M0.5,0.5 L7.5,0.5 L7.5,7.5 L0.5,7.5 L0.5,0.5 Z M0.5,13.5 L7.5,13.5 L7.5,20.5 L0.5,20.5 L0.5,13.5 Z M13.5,0.5 L20.5,0.5 L20.5,7.5 L13.5,7.5 L13.5,0.5 Z M13.5,13.5 L20.5,13.5 L20.5,20.5 L13.5,20.5 L13.5,13.5 Z M26.5,0.5 L33.5,0.5 L33.5,7.5 L26.5,7.5 L26.5,0.5 Z M26.5,13.5 L33.5,13.5 L33.5,20.5 L26.5,20.5 L26.5,13.5 Z M0.5,26.5 L7.5,26.5 L7.5,33.5 L0.5,33.5 L0.5,26.5 Z M13.5,26.5 L20.5,26.5 L20.5,33.5 L13.5,33.5 L13.5,26.5 Z M26.5,26.5 L33.5,26.5 L33.5,33.5 L26.5,33.5 L26.5,26.5 Z" id="Combined-Shape"></path>
        </g>
    </g>
</svg>