<?xml version="1.0" encoding="UTF-8"?>
<svg width="33px" height="33px" viewBox="0 0 33 33" version="1.1" xmlns="http://www.w3.org/2000/svg" xmlns:xlink="http://www.w3.org/1999/xlink">
    <!-- Generator: Sketch 41.2 (35397) - http://www.bohemiancoding.com/sketch -->
    <title>grid-rect-fill</title>
    <desc>Created with Sketch.</desc>
    <defs></defs>
    <g id="page" stroke="none" stroke-width="1" fill="none" fill-rule="evenodd">
        <g id="grid-rect-fill" fill="#000000">
            <path d="M0,0 L7,0 L7,7 L0,7 L0,0 Z M0,13 L7,13 L7,20 L0,20 L0,13 Z M13,0 L20,0 L20,7 L13,7 L13,0 Z M13,13 L20,13 L20,20 L13,20 L13,13 Z M26,0 L33,0 L33,7 L26,7 L26,0 Z M26,13 L33,13 L33,20 L26,20 L26,13 Z M0,26 L7,26 L7,33 L0,33 L0,26 Z M13,26 L20,26 L20,33 L13,33 L13,26 Z M26,26 L33,26 L33,33 L26,33 L26,26 Z" id="Combined-Shape"></path>
        </g>
    </g>
</svg>