<?xml version="1.0" encoding="UTF-8"?>
<svg width="33px" height="33px" viewBox="0 0 33 33" version="1.1" xmlns="http://www.w3.org/2000/svg" xmlns:xlink="http://www.w3.org/1999/xlink">
    <!-- Generator: Sketch 41.2 (35397) - http://www.bohemiancoding.com/sketch -->
    <title>like3-line</title>
    <desc>Created with Sketch.</desc>
    <defs></defs>
    <g id="page" stroke="none" stroke-width="1" fill="none" fill-rule="evenodd">
        <g id="like3-line" stroke="#000000">
            <path d="M11.5,14.5 C15,12 18,3.5 18,3.5 C18,3.5 17.5,0.5 18.5,0.5 C20.5,0.5 24,1.5 21.5,8 C19.5,13.5 21.5,13 21.5,13 C21.5,13 29,11 31,13 C33,15 31.5,17 31.5,17 C34,19.5 31.5,22 31.5,22 C34,25.5 30,27 30,27 C30,27 32.5,30.5 26,31.5 C26,31.5 16.5,32.5 11.5,31 C11.5,31 8.5,18.5 8.5,18.5 C10.5,17.5 10.5,15.5 11.5,14.5 Z" id="Shape" stroke-linecap="square"></path>
            <path d="M6.5,19.5 L9,30 C9,30 9.5,31.5 7.5,31.5 C7.5,31.5 1.5,31.5 1.5,31.5 C1.66533454e-16,31.5 0.5,30 0.5,30 L1.5,19.5 C1.5,18.5 2.5,18.5 2.5,18.5 L5.5,18.5 C6.5,18.5 6.5,19.5 6.5,19.5 Z" id="Path" stroke-linecap="square"></path>
            <circle id="Oval-13" cx="5" cy="28" r="1.5"></circle>
        </g>
    </g>
</svg>