<?xml version="1.0" encoding="UTF-8"?>
<svg width="33px" height="32px" viewBox="0 0 33 32" version="1.1" xmlns="http://www.w3.org/2000/svg" xmlns:xlink="http://www.w3.org/1999/xlink">
    <!-- Generator: Sketch 41.2 (35397) - http://www.bohemiancoding.com/sketch -->
    <title>like3-fill</title>
    <desc>Created with Sketch.</desc>
    <defs></defs>
    <g id="page" stroke="none" stroke-width="1" fill="none" fill-rule="evenodd">
        <g id="like3-fill" fill="#000000">
            <path d="M11,14 C14.5,11.5 17.5,3 17.5,3 C17.5,3 17,0 18,0 C20,0 23.5,1 21,7.5 C19,13 21,12.5 21,12.5 C21,12.5 28.5,10.5 30.5,12.5 C32,14 31.5,15.5 31,16.5 C31,16.5 33.5,19 31,21.5 C31,21.5 32.5,24.5 29.5,26.5 C29.5,26.5 31,30 25.5,31 C25.5,31 16,32 11,30.5 C11,30.5 8.04874735,18 8,18 C10,17 10,15 11,14 Z" id="Shape"></path>
            <path d="M7,19 L9.5,29.5 C9.5,29.5 9.5,30.5 8,30.5 L1,30.5 C-7.07767178e-16,30.5 -4.4408921e-16,29.5 -4.4408921e-16,29.5 L1,19 C1,18 2,18 2,18 L6,18 C7,18 7,19 7,19 Z M6,29.5 C6.82842712,29.5 7.5,28.8284271 7.5,28 C7.5,27.1715729 6.82842712,26.5 6,26.5 C5.17157288,26.5 4.5,27.1715729 4.5,28 C4.5,28.8284271 5.17157288,29.5 6,29.5 Z" id="Combined-Shape"></path>
        </g>
    </g>
</svg>