<?xml version="1.0" encoding="UTF-8"?>
<svg width="34px" height="8px" viewBox="0 0 34 8" version="1.1" xmlns="http://www.w3.org/2000/svg" xmlns:xlink="http://www.w3.org/1999/xlink">
    <!-- Generator: Sketch 41.2 (35397) - http://www.bohemiancoding.com/sketch -->
    <title>menu-circle-line-horizontal</title>
    <desc>Created with Sketch.</desc>
    <defs></defs>
    <g id="page" stroke="none" stroke-width="1" fill="none" fill-rule="evenodd">
        <g id="menu-circle-line-horizontal" stroke="#000000">
            <path d="M4,7.5 C5.93299662,7.5 7.5,5.93299662 7.5,4 C7.5,2.06700338 5.93299662,0.5 4,0.5 C2.06700338,0.5 0.5,2.06700338 0.5,4 C0.5,5.93299662 2.06700338,7.5 4,7.5 Z M17,7.5 C18.9329966,7.5 20.5,5.93299662 20.5,4 C20.5,2.06700338 18.9329966,0.5 17,0.5 C15.0670034,0.5 13.5,2.06700338 13.5,4 C13.5,5.93299662 15.0670034,7.5 17,7.5 Z M30,7.5 C31.9329966,7.5 33.5,5.93299662 33.5,4 C33.5,2.06700338 31.9329966,0.5 30,0.5 C28.0670034,0.5 26.5,2.06700338 26.5,4 C26.5,5.93299662 28.0670034,7.5 30,7.5 Z" id="Combined-Shape"></path>
        </g>
    </g>
</svg>