<?xml version="1.0" encoding="UTF-8"?>
<svg width="33px" height="7px" viewBox="0 0 33 7" version="1.1" xmlns="http://www.w3.org/2000/svg" xmlns:xlink="http://www.w3.org/1999/xlink">
    <!-- Generator: Sketch 41.2 (35397) - http://www.bohemiancoding.com/sketch -->
    <title>menu-circle-fill-horizontal</title>
    <desc>Created with Sketch.</desc>
    <defs></defs>
    <g id="page" stroke="none" stroke-width="1" fill="none" fill-rule="evenodd">
        <g id="menu-circle-fill-horizontal" fill="#000000">
            <path d="M3.5,7 C5.43299662,7 7,5.43299662 7,3.5 C7,1.56700338 5.43299662,0 3.5,0 C1.56700338,0 0,1.56700338 0,3.5 C0,5.43299662 1.56700338,7 3.5,7 Z M16.5,7 C18.4329966,7 20,5.43299662 20,3.5 C20,1.56700338 18.4329966,0 16.5,0 C14.5670034,0 13,1.56700338 13,3.5 C13,5.43299662 14.5670034,7 16.5,7 Z M29.5,7 C31.4329966,7 33,5.43299662 33,3.5 C33,1.56700338 31.4329966,0 29.5,0 C27.5670034,0 26,1.56700338 26,3.5 C26,5.43299662 27.5670034,7 29.5,7 Z" id="Combined-Shape"></path>
        </g>
    </g>
</svg>