<?xml version="1.0" encoding="UTF-8"?>
<svg width="8px" height="34px" viewBox="0 0 8 34" version="1.1" xmlns="http://www.w3.org/2000/svg" xmlns:xlink="http://www.w3.org/1999/xlink">
    <!-- Generator: Sketch 41.2 (35397) - http://www.bohemiancoding.com/sketch -->
    <title>menu-circle-line-vertical</title>
    <desc>Created with Sketch.</desc>
    <defs></defs>
    <g id="page" stroke="none" stroke-width="1" fill="none" fill-rule="evenodd">
        <g id="menu-circle-line-vertical" stroke="#000000">
            <path d="M4,7.5 C5.93299662,7.5 7.5,5.93299662 7.5,4 C7.5,2.06700338 5.93299662,0.5 4,0.5 C2.06700338,0.5 0.5,2.06700338 0.5,4 C0.5,5.93299662 2.06700338,7.5 4,7.5 Z M4,20.5 C5.93299662,20.5 7.5,18.9329966 7.5,17 C7.5,15.0670034 5.93299662,13.5 4,13.5 C2.06700338,13.5 0.5,15.0670034 0.5,17 C0.5,18.9329966 2.06700338,20.5 4,20.5 Z M4,33.5 C5.93299662,33.5 7.5,31.9329966 7.5,30 C7.5,28.0670034 5.93299662,26.5 4,26.5 C2.06700338,26.5 0.5,28.0670034 0.5,30 C0.5,31.9329966 2.06700338,33.5 4,33.5 Z" id="Combined-Shape"></path>
        </g>
    </g>
</svg>