<?xml version="1.0" encoding="UTF-8"?>
<svg width="26px" height="34px" viewBox="0 0 26 34" version="1.1" xmlns="http://www.w3.org/2000/svg" xmlns:xlink="http://www.w3.org/1999/xlink">
    <!-- Generator: Sketch 41.2 (35397) - http://www.bohemiancoding.com/sketch -->
    <title>user1-fill</title>
    <desc>Created with Sketch.</desc>
    <defs></defs>
    <g id="page" stroke="none" stroke-width="1" fill="none" fill-rule="evenodd">
        <g id="user1-fill" fill="#000000">
            <path d="M13,24.5 C14.5,24.5 20,23.5 20.5,12 C22,5.5 19.5,4 18.5,4 C18,2 15.4999994,0.500000138 13.5,1 C11.5,1.5 7,1 7,1 C6.5,2 7.5,3 7.5,3 C4,5 5,10 5.5,12 C5.5,23.5 11.5,24.5 13,24.5 Z M8,9 C9.5,9.5 9,10.5 14,8.5 C21.4993746,5.50025015 20,23 13,23 C6,23 6,9.5 8,9 Z" id="Shape"></path>
            <path d="M19.5,23 C19.5,23 17,26.4955102 13,26.4955102 C9,26.4955102 6,23 6,23 L0,26.9955102 C0,26.9955102 2,33.9955102 13,33.9955102 C24,33.9955102 26,27 26,27 L19.5,23 Z" id="Shape"></path>
        </g>
    </g>
</svg>