<?xml version="1.0" encoding="UTF-8"?>
<svg width="33px" height="33px" viewBox="0 0 33 33" version="1.1" xmlns="http://www.w3.org/2000/svg" xmlns:xlink="http://www.w3.org/1999/xlink">
    <!-- Generator: Sketch 41.2 (35397) - http://www.bohemiancoding.com/sketch -->
    <title>user4-fill</title>
    <desc>Created with Sketch.</desc>
    <defs></defs>
    <g id="page" stroke="none" stroke-width="1" fill="none" fill-rule="evenodd">
        <g id="user4-fill">
            <ellipse id="Shape" stroke="#000000" stroke-width="2" stroke-linecap="square" fill="#000000" cx="16.5" cy="16.5" rx="15.5" ry="15.5"></ellipse>
            <path d="M16.5,32 C11.5,32 8,29.5 8,29.5 C8,29.5 10,25.5 13,25.5 C14,25.5 14,24 14,24 C14,24 11,21.0455911 11,18 C11,16.5 11,11 16.5,11 C22,11 22,15.5 22,18 C22,21.539156 19,24 19,24 C19,24 19,25.5 20,25.5 C22.5,25.5 25,29.5 25,29.5 C25,29.5 21.5,32 16.5,32 Z" id="Path" fill="#FFFFFF"></path>
        </g>
    </g>
</svg>