<?xml version="1.0" encoding="UTF-8"?>
<svg width="48px" height="48px" viewBox="0 0 48 48" version="1.1" xmlns="http://www.w3.org/2000/svg" xmlns:xlink="http://www.w3.org/1999/xlink">
    <!-- Generator: Sketch 41.2 (35397) - http://www.bohemiancoding.com/sketch -->
    <title>user3-line</title>
    <desc>Created with Sketch.</desc>
    <defs></defs>
    <g id="page" stroke="none" stroke-width="1" fill="none" fill-rule="evenodd">
        <g id="user3-line" stroke="#000000">
            <path d="M30.5892857,21.0909091 C37.9107143,21.8181818 43.7678571,23.2727273 43.7678571,29.0909091 C43.7678571,36.3636364 32.7857143,47.2727273 24,47.2727273 C15.2142857,47.2727273 4.23214286,36.3636364 4.23214286,29.0909091 C4.23214286,24 9.35714286,21.8181818 15.9464286,21.0909091 C18.1428571,24 21.0714286,25.4545455 23.2678571,25.4545455 C25.4642857,25.4545455 28.3928571,24 30.5892857,21.0909091 Z" id="Combined-Shape"></path>
            <path d="M23.2678571,21.8181818 C27.6607143,21.8181818 32.7857143,15.2727273 32.7857143,9.45454545 C32.7857143,3.63636364 28.3928571,0.727272727 23.2678571,0.727272727 C18.1428571,0.727272727 13.75,3.63636364 13.75,9.45454545 C13.75,15.2727273 18.875,21.8181818 23.2678571,21.8181818 Z" id="Oval"></path>
        </g>
    </g>
</svg>