<?xml version="1.0" encoding="UTF-8"?>
<svg width="32px" height="32px" viewBox="0 0 32 32" version="1.1" xmlns="http://www.w3.org/2000/svg" xmlns:xlink="http://www.w3.org/1999/xlink">
    <!-- Generator: Sketch 41.2 (35397) - http://www.bohemiancoding.com/sketch -->
    <title>user4-line</title>
    <desc>Created with Sketch.</desc>
    <defs></defs>
    <g id="page" stroke="none" stroke-width="1" fill="none" fill-rule="evenodd" stroke-linecap="square">
        <g id="user4-line" stroke="#000000">
            <ellipse id="Shape" cx="16" cy="16" rx="15.5" ry="15.5"></ellipse>
            <path d="M16,31.5 C10,31.5 7,28.5 7,28.5 C7,28.5 9.5,25 12.5,25 C13.5,25 13.5,23.5 13.5,23.5 C13.5,23.5 10.5,20.5455911 10.5,17.5 C10.5,16 10.5,10.5 16,10.5 C21.5,10.5 21.5,15 21.5,17.5 C21.5,21.039156 18.5,23.5 18.5,23.5 C18.5,23.5 18.5,25 19.5,25 C22,25 25,28.5 25,28.5 C25,28.5 22,31.5 16,31.5 Z" id="Path"></path>
        </g>
    </g>
</svg>