<?xml version="1.0" encoding="UTF-8"?>
<svg width="27px" height="32px" viewBox="0 0 27 32" version="1.1" xmlns="http://www.w3.org/2000/svg" xmlns:xlink="http://www.w3.org/1999/xlink">
    <!-- Generator: Sketch 41.2 (35397) - http://www.bohemiancoding.com/sketch -->
    <title>user3-fill</title>
    <desc>Created with Sketch.</desc>
    <defs></defs>
    <g id="page" stroke="none" stroke-width="1" fill="none" fill-rule="evenodd">
        <g id="user3-fill" fill="#000000">
            <path d="M18,14 C23,14.5 27,15.5 27,19.5 C27,24.5 19.5,32 13.5,32 C7.5,32 0,24.5 0,19.5 C2.81025203e-16,16 3.5,14.5 8,14 C9.5,16 11.5,17 13,17 C14.5,17 16.5,16 18,14 Z" id="Combined-Shape"></path>
            <path d="M13,14.5 C16,14.5 19.5,10 19.5,6 C19.5,2 16.5,0 13,0 C9.5,4.7808327e-16 6.5,2 6.5,6 C6.5,10 10,14.5 13,14.5 Z" id="Oval"></path>
        </g>
    </g>
</svg>