<?xml version="1.0" encoding="UTF-8"?>
<svg width="33px" height="32px" viewBox="0 0 33 32" version="1.1" xmlns="http://www.w3.org/2000/svg" xmlns:xlink="http://www.w3.org/1999/xlink">
    <!-- Generator: Sketch 41.2 (35397) - http://www.bohemiancoding.com/sketch -->
    <title>user2-line</title>
    <desc>Created with Sketch.</desc>
    <defs></defs>
    <g id="page" stroke="none" stroke-width="1" fill="none" fill-rule="evenodd" stroke-linecap="square">
        <g id="user2-line" stroke="#000000">
            <path d="M23,15.5 C24,16 26,11 24,11 C25.5,7.5 23.5,0.5 16.5,0.5 C9.5,0.5 7.5,8 9,11 C7,11 9,16 10,15.5 C10,15.5 10.5,17.5 11.5,19 L11.5,21.5 C11.5,23 0.5,23.5000099 0.5,27.5 C0.5,32.5 32.5,32.5 32.5,27.5 C32.5,23.5000064 21.5,23 21.5,21.5 L21.5,19 C22.5,17.5 23,15.5 23,15.5 Z" id="Shape"></path>
        </g>
    </g>
</svg>