<?xml version="1.0" encoding="UTF-8"?>
<svg width="33px" height="33px" viewBox="0 0 33 33" version="1.1" xmlns="http://www.w3.org/2000/svg" xmlns:xlink="http://www.w3.org/1999/xlink">
    <!-- Generator: Sketch 41.2 (35397) - http://www.bohemiancoding.com/sketch -->
    <title>user4-fill</title>
    <desc>Created with Sketch.</desc>
    <defs></defs>
    <g id="page" stroke="none" stroke-width="1" fill="none" fill-rule="evenodd">
        <g id="user4-fill" fill="#000000">
            <path d="M16.5,33 C25.6126984,33 33,25.6126984 33,16.5 C33,7.38730163 25.6126984,0 16.5,0 C7.38730163,0 0,7.38730163 0,16.5 C0,25.6126984 7.38730163,33 16.5,33 Z M16.5,32 C11.5,32 8,29.5 8,29.5 C8,29.5 10,25.5 13,25.5 C14,25.5 14,24 14,24 C14,24 11,21.0455911 11,18 C11,16.5 11,11 16.5,11 C22,11 22,15.5 22,18 C22,21.539156 19,24 19,24 C19,24 19,25.5 20,25.5 C22.5,25.5 25,29.5 25,29.5 C25,29.5 21.5,32 16.5,32 Z" id="Combined-Shape"></path>
        </g>
    </g>
</svg>