<?xml version="1.0" encoding="UTF-8"?>
<svg width="48px" height="48px" viewBox="0 0 48 48" version="1.1" xmlns="http://www.w3.org/2000/svg" xmlns:xlink="http://www.w3.org/1999/xlink">
    <!-- Generator: Sketch 41.2 (35397) - http://www.bohemiancoding.com/sketch -->
    <title>user2-line</title>
    <desc>Created with Sketch.</desc>
    <defs></defs>
    <g id="page" stroke="none" stroke-width="1" fill="none" fill-rule="evenodd" stroke-linecap="square">
        <g id="user2-line" stroke="#000000">
            <path d="M33.546875,23.53125 C35.015625,24.265625 37.953125,16.921875 35.015625,16.921875 C37.21875,11.78125 34.28125,1.5 24,1.5 C13.71875,1.5 10.78125,12.515625 12.984375,16.921875 C10.046875,16.921875 12.984375,24.265625 14.453125,23.53125 C14.453125,23.53125 15.1875,26.46875 16.65625,28.671875 L16.65625,32.34375 C16.65625,34.546875 0.5,35.2812646 0.5,41.15625 C0.5,48.5 47.5,48.5 47.5,41.15625 C47.5,35.2812594 31.34375,34.546875 31.34375,32.34375 L31.34375,28.671875 C32.8125,26.46875 33.546875,23.53125 33.546875,23.53125 Z" id="Shape"></path>
        </g>
    </g>
</svg>