<?xml version="1.0" encoding="UTF-8"?>
<svg width="48px" height="48px" viewBox="0 0 48 48" version="1.1" xmlns="http://www.w3.org/2000/svg" xmlns:xlink="http://www.w3.org/1999/xlink">
    <!-- Generator: Sketch 41.2 (35397) - http://www.bohemiancoding.com/sketch -->
    <title>user2-fill</title>
    <desc>Created with Sketch.</desc>
    <defs></defs>
    <g id="page" stroke="none" stroke-width="1" fill="none" fill-rule="evenodd">
        <g id="user2-fill" fill="#000000">
            <path d="M33.75,23.5 C35.25,24.25 38.25,16.75 35.25,16.75 C37.5,11.5 34.5,1 24,1 C13.5,1 10.5,12.25 12.75,16.75 C9.75,16.75 12.75,24.25 14.25,23.5 C14.25,23.5 15,26.5 16.5,28.75 L16.5,32.5 C16.5,34.75 3.82327809e-16,35.5000149 0,41.5 C0,49 48,49 48,41.5 C48,35.5000096 31.5,34.75 31.5,32.5 L31.5,28.75 C33,26.5 33.75,23.5 33.75,23.5 Z" id="Shape"></path>
        </g>
    </g>
</svg>