<?xml version="1.0" encoding="UTF-8"?>
<svg width="28px" height="33px" viewBox="0 0 28 33" version="1.1" xmlns="http://www.w3.org/2000/svg" xmlns:xlink="http://www.w3.org/1999/xlink">
    <!-- Generator: Sketch 41.2 (35397) - http://www.bohemiancoding.com/sketch -->
    <title>user3-line</title>
    <desc>Created with Sketch.</desc>
    <defs></defs>
    <g id="page" stroke="none" stroke-width="1" fill="none" fill-rule="evenodd">
        <g id="user3-line" stroke="#000000">
            <path d="M18.5,14.5 C23.5,15 27.5,16 27.5,20 C27.5,25 20,32.5 14,32.5 C8,32.5 0.5,25 0.5,20 C0.5,16.5 4,15 8.5,14.5 C10,16.5 12,17.5 13.5,17.5 C15,17.5 17,16.5 18.5,14.5 Z" id="Combined-Shape"></path>
            <path d="M13.5,15 C16.5,15 20,10.5 20,6.5 C20,2.5 17,0.5 13.5,0.5 C10,0.5 7,2.5 7,6.5 C7,10.5 10.5,15 13.5,15 Z" id="Oval"></path>
        </g>
    </g>
</svg>