<?xml version="1.0" encoding="UTF-8"?>
<svg width="32px" height="31px" viewBox="0 0 32 31" version="1.1" xmlns="http://www.w3.org/2000/svg" xmlns:xlink="http://www.w3.org/1999/xlink">
    <!-- Generator: Sketch 41.2 (35397) - http://www.bohemiancoding.com/sketch -->
    <title>user2-fill</title>
    <desc>Created with Sketch.</desc>
    <defs></defs>
    <g id="page" stroke="none" stroke-width="1" fill="none" fill-rule="evenodd">
        <g id="user2-fill" fill="#000000">
            <path d="M22.5,15 C23.5,15.5 25.5,10.5 23.5,10.5 C25,7 23,0 16,0 C9,7.76885313e-16 7,7.5 8.5,10.5 C6.5,10.5 8.5,15.5 9.5,15 C9.5,15 10,17 11,18.5 L11,21 C11,22.5 2.54885206e-16,23.0000099 0,27 C0,32 32,32 32,27 C32,23.0000064 21,22.5 21,21 L21,18.5 C22,17 22.5,15 22.5,15 Z" id="Shape"></path>
        </g>
    </g>
</svg>