<?xml version="1.0" encoding="UTF-8"?>
<svg width="48px" height="48px" viewBox="0 0 48 48" version="1.1" xmlns="http://www.w3.org/2000/svg" xmlns:xlink="http://www.w3.org/1999/xlink">
    <!-- Generator: Sketch 41.2 (35397) - http://www.bohemiancoding.com/sketch -->
    <title>user4-line</title>
    <desc>Created with Sketch.</desc>
    <defs></defs>
    <g id="page" stroke="none" stroke-width="1" fill="none" fill-rule="evenodd" stroke-linecap="square">
        <g id="user4-line" stroke="#000000">
            <ellipse id="Shape" cx="24" cy="24" rx="23.5" ry="23.5"></ellipse>
            <path d="M39.306199,41.8322693 C36.2983248,39.1486581 32.5807226,37.2437402 28.4699545,36.4340777 L28.1575585,35.0059816 C31.2095473,33.3877073 33,29.9630779 33,26 C33,20.4771525 29.5228475,16 24,16 C18.4771525,16 15,20.4771525 15,26 C15,29.9630779 16.7904527,33.3877073 19.8424415,35.0059816 L19.5300455,36.4340777 C15.4192774,37.2437402 11.7016752,39.1486581 8.69380098,41.8322693 C12.8058321,45.3650598 18.153595,47.5 24,47.5 C29.846405,47.5 35.1941679,45.3650598 39.306199,41.8322693 Z" id="Combined-Shape"></path>
        </g>
    </g>
</svg>