<svg xmlns="http://www.w3.org/2000/svg" xmlns:xlink="http://www.w3.org/1999/xlink"><defs>
    <linearGradient id="goo1" gradientTransform="rotate(90)"><stop offset="0%" stop-color="#3588b7"/><stop offset="100%" stop-color="#66ffd4"/></linearGradient>
    <linearGradient id="goo2"><stop offset="0%" stop-color="#9635c2"/><stop offset="100%" stop-color="#e3424f"/></linearGradient>
    <linearGradient id="goo3"><stop offset="0%" stop-color="#60cab6"/><stop offset="100%" stop-color="#d6ffa2"/></linearGradient>
    <linearGradient id="goo4" gradientTransform="rotate(45)"><stop offset="0%" stop-color="#ff9877"/><stop offset="100%" stop-color="#ffc466"/></linearGradient>
  
    <linearGradient id="goo1" gradientTransform="rotate(90)"><stop offset="0%" stop-color="#3588b7"/><stop offset="100%" stop-color="#66ffd4"/></linearGradient>
    <linearGradient id="goo2"><stop offset="0%" stop-color="#9635c2"/><stop offset="100%" stop-color="#e3424f"/></linearGradient>
    <linearGradient id="goo3"><stop offset="0%" stop-color="#60cab6"/><stop offset="100%" stop-color="#d6ffa2"/></linearGradient>
    <linearGradient id="goo4" gradientTransform="rotate(45)"><stop offset="0%" stop-color="#ff9877"/><stop offset="100%" stop-color="#ffc466"/></linearGradient>
  <path d="M.02 14a19.31 19.31 0 0 1 1.44-8.27A26.91 26.91 0 0 1 12.19 0c.77 2.89 3.75 5.04 7.31 5.04 3.56 0 6.54-2.15 7.3-5.04 3.38.91 6.47 2.43 9.14 4.43A18.92 18.92 0 0 1 37.98 14H.02z" id="a"/><path d="M38.5 6.64A26.87 26.87 0 0 0 27.3.5c-.76 2.89-3.74 5.04-7.3 5.04-3.56 0-6.54-2.15-7.3-5.04A26.79 26.79 0 0 0 .5 7.6v6.9h38V6.64z" id="a"/></defs><symbol id="appstore" viewBox="0 0 2700 800">
  <path d="M1303 211s0-21 21-21c20 0 19 22 19 22v57h21v-57s1-40-33-40c-22 0-30 17-30 17l-1-15h-19l1 27v68h21v-58zm946 0s0-21 21-21c20 0 19 22 19 22v57h21v-57s1-40-33-40c-22 0-28 17-28 17v-58h-21v138h21v-58zm-820 423c113 0 113-200 6-200-49 0-66 36-66 36l-2-32h-38l2 43v227h43V607s13 27 55 27zm-8-166c67 0 67 133-1 133-45 0-46-47-46-47v-35s1-51 47-51zm-323-247c0-65-92-65-92 1 0 67 92 65 92-1zm-22 0c0 46-49 47-49 1 0-45 49-46 49-1zm469 0c0-65-92-65-92 1 0 67 92 65 92-1zm-22 0c0 46-49 47-49 1 0-45 49-46 49-1zm474-10s0-21 21-21c20 0 19 22 19 22v57h21v-57s1-40-33-40c-22 0-30 17-30 17l-1-15h-19l1 27v68h21v-58zM658 298s-33-51-101-51c-38 0-70 24-90 24-24 0-46-22-85-22-75 0-137 71-125 179 11 97 80 207 131 207 32 0 46-21 85-21s50 20 84 20c57 0 104-101 114-135-79-32-99-147-13-201zm-93-174c-55 4-108 58-102 118 59 2 108-58 102-118zm508 506l-86-266h-53l-86 266h44l24-78h87l24 78h46zm-78-111h-71l35-117zm213 115c113 0 113-200 6-200-49 0-66 36-66 36l-2-32h-38l2 46v224h43V607s13 27 55 27zm-8-166c68 0 68 133-1 133-45 0-46-47-46-47v-35s1-51 47-51zm465 166c55 0 96-27 96-79 0-42-30-63-67-78-24-10-51-20-51-47 0-23 21-35 46-35 29 0 51 12 51 12l11-34s-22-13-61-13c-49 0-90 28-90 75 0 33 23 59 70 76 26 9 48 21 48 48s-22 40-51 40c-37 0-61-17-61-17l-10 35s21 17 69 17zm148-67c0 43 15 67 54 67 21 0 33-5 33-5l-1-32s-8 2-19 2c-17 0-25-12-25-36v-93h47v-32h-47v-48l-42 13v35h-28v32h28v97zm301-34c0-133-188-134-188 3 0 133 188 131 188-3zm-44 1c0 92-101 93-101 1 0-91 101-93 101-1zm124-10s1-50 45-50c7 0 13 1 13 1v-40s-6-1-10-1c-42 0-53 43-53 43l-2-39h-37l1 41v151h43V524zm174 110c37 0 64-12 64-12l-6-30s-19 9-52 9c-63 0-60-57-60-57h128c6-60-18-110-79-110-65 0-90 57-90 102 0 52 29 98 95 98zm-54-120c0-10 10-51 46-51 45 0 42 51 42 51h-88zM981 200c0-42-26-63-71-63-20 0-36 3-36 3v128s18 2 30 2c48 0 77-23 77-70zm-22 1c0 33-17 52-50 52-9 0-15-1-15-1v-97s10-1 17-1c32 0 48 16 48 47zm296-27h-20l-19 75-20-75h-17l-22 75-17-75h-21l28 95h20l20-70 19 70h20zm146 95h21V131h-21v138zm168-26c0 31 41 37 57 15l2 11h19l-2-18v-40c0-26-12-39-37-39-20 0-32 8-32 8l4 14s9-7 25-7c14 0 19 7 19 21-28-1-55 9-55 35zm21-2c0-23 35-19 35-19v14c0 22-35 28-35 5zm125 30c24 0 31-17 31-17l1 15h19s-1-14-1-26V131h-21v54s-7-13-27-13c-54 0-56 99-2 99zm7-82c22 0 22 24 22 24v16s0 25-23 25c-32 0-34-65 1-65zm223 32c0-65-92-65-92 1 0 67 92 65 92-1zm-22 0c0 46-49 47-49 1 0-45 49-46 49-1zm232 17c0 20 8 33 26 33 12 0 17-3 17-3l-1-16s-3 1-9 1c-8 0-12-5-12-17v-46h23v-16h-23v-23l-21 6v17h-14v16h14v48zm232 32c20 0 32-5 32-5l-3-15s-8 4-26 4c-31 0-30-27-30-27h63c5-23-6-55-38-55-29 0-45 25-45 51 0 24 13 47 47 47zm-27-58s2-25 23-25c23 0 21 25 21 25h-44z"/>
</symbol><symbol id="googleplay" viewBox="0 0 2700 800">
  <path d="M499 464L235 664c-8-3-14-12-14-25V290c0-14 6-23 15-26l263 200z" fill="url(#goo1)"/>
  <path d="M499 530L258 661c-9 5-17 5-23 3l211-213 53 79z" fill="url(#goo2)"/>
  <path d="M236 264c6-2 14-1 22 4l240 131-53 77-209-212z" fill="url(#goo3)"/>
  <path d="M498 399l85 46c20 11 20 28 0 39l-84 46-66-66 65-65z" fill="url(#goo4)"/>
  <path d="M1292 230c35 0 61-27 61-61 0-35-27-62-61-62s-61 28-61 62 27 61 61 61zm0-14c-26 0-45-21-45-47s19-48 45-48 46 22 46 48-20 47-46 47zm-14 373c50 0 89-38 89-88s-39-89-89-89-89 39-89 89 39 88 89 88zm0-35c-28 0-50-24-50-53 0-30 21-54 50-54 30 0 50 23 50 54 0 29-22 53-50 53zm240 13v15c0 32-16 51-47 51-34 0-44-31-44-31l-34 14s19 52 78 52c54 0 84-35 84-92V418h-37v15c-7-10-26-21-47-21-47 0-85 41-85 89 0 47 38 88 85 88 21 0 39-9 47-22zm1030-156c0-1-46-1-46-1l-47 118-51-118-44 1 74 167-41 87h44zm-244 150h2v24h39V480c0-54-38-80-84-80-56 0-73 41-73 41l34 16s10-21 39-21c21 0 44 13 44 39-32-18-123-13-123 53 0 49 49 63 68 63 25 0 41-10 54-30zm-570 28c35 0 60-19 74-39l-31-20s-12 24-43 24c-19 0-34-9-43-27l118-49c-11-33-36-66-79-66-49 0-84 39-84 89s38 88 88 88zm-650 0c50 0 89-38 89-88s-39-89-89-89-89 39-89 89 39 88 89 88zm-233 0c80 0 140-60 126-150H851v38h89c-5 47-40 74-89 74-56 0-99-44-99-99 0-57 44-100 99-100 26 0 48 9 67 27l27-27c-27-24-58-38-94-38-75 0-140 62-140 138s64 137 140 137zm1299-4V327h-39v258h39zm-156-258h-90v258h39V485h51c48 0 83-32 83-79s-35-79-83-79zm-370 257V324h-39v260h39zm-150-30c-29 0-49-24-49-53 0-30 20-54 49-54s47 24 47 54c0 29-19 53-47 53zm-390 0c-28 0-50-24-50-53 0-30 21-54 50-54 30 0 50 23 50 54 0 29-22 53-50 53zm1171-2c-14 0-32-6-32-23 0-36 65-36 83-19 0 10-19 42-51 42zm-571-54c0-35 28-52 47-52 12 0 27 6 33 19zm311-133c27 0 42 23 42 41s-13 41-42 41h-52v-82h52zM842 165h-58v14h43c-1 23-20 37-43 37-25 0-46-20-46-47 0-30 23-48 46-48s33 14 33 14l10-10s-13-18-43-18c-34 0-61 27-61 62 0 33 26 61 61 61 34 0 63-25 58-65zm544 63v-97l60 97h16V110h-15v69l1 23h-1l-57-92h-19v118h15zm-198-104v-14h-81v14h33v104h15V124h33zm-97 104V110h-15v118h15zm-67-104v-14h-81v14h33v104h15V124h33zm-94 0v-14h-69v118h69v-15h-54v-37h49v-14h-49v-38h54z"/>
  
</symbol><symbol id="googleplay_alt" viewBox="0 0 2700 800">
  <path d="M499 400L235 600c-8-3-14-12-14-25V226c0-14 6-23 15-26l263 200z" fill="url(#goo1)"/>
  <path d="M499 466L258 597c-9 5-17 5-23 3l211-213 53 79z" fill="url(#goo2)"/>
  <path d="M236 200c6-2 14-1 22 4l240 131-53 77-209-212z" fill="url(#goo3)"/>
  <path d="M498 335l85 46c20 11 20 28 0 39l-84 46-66-66 65-65z" fill="url(#goo4)"/>
  <path d="M1293 264c35 0 61-27 61-61 0-35-27-62-61-62s-61 28-61 62 27 61 61 61zm0-14c-26 0-45-21-45-47s19-48 45-48 46 22 46 48-20 47-46 47zm-14 373c50 0 89-38 89-88s-39-89-89-89-89 39-89 89 39 88 89 88zm0-35c-28 0-50-24-50-53 0-30 21-54 50-54 30 0 50 23 50 54 0 29-22 53-50 53zm240 13v15c0 32-16 51-47 51-34 0-44-31-44-31l-34 14s19 52 78 52c54 0 84-35 84-92V452h-37v15c-7-10-26-21-47-21-47 0-85 41-85 89 0 47 38 88 85 88 21 0 39-9 47-22zm1030-156c0-1-46-1-46-1l-47 118-51-118-44 1 74 167-41 87h44l111-254zm-244 150h2v24h39V514c0-54-38-80-84-80-56 0-73 41-73 41l34 16s10-21 39-21c21 0 44 13 44 39-32-18-123-13-123 53 0 49 49 63 68 63 25 0 41-10 54-30zm-570 28c35 0 60-19 74-39l-31-20s-12 24-43 24c-19 0-34-9-43-27l118-49c-11-33-36-66-79-66-49 0-84 39-84 89s38 88 88 88zm-650 0c50 0 89-38 89-88s-39-89-89-89-89 39-89 89 39 88 89 88zm-233 0c80 0 140-60 126-150H852v38h89c-5 47-40 74-89 74-56 0-99-44-99-99 0-57 44-100 99-100 26 0 48 9 67 27l27-27c-27-24-58-38-94-38-75 0-140 62-140 138s64 137 140 137zm1299-4V361h-39v258h39zm-156-258h-90v258h39V519h51c48 0 83-32 83-79s-35-79-83-79zm-370 257V358h-39v260h39zm-150-30c-29 0-49-24-49-53 0-30 20-54 49-54s47 24 47 54c0 29-19 53-47 53zm-390 0c-28 0-50-24-50-53 0-30 21-54 50-54 30 0 50 23 50 54 0 29-22 53-50 53zm1171-2c-14 0-32-6-32-23 0-36 65-36 83-19 0 10-19 42-51 42zm-571-54c0-35 28-52 47-52 12 0 27 6 33 19l-80 33zm311-133c27 0 42 23 42 41s-13 41-42 41h-52v-82h52zM843 199h-58v14h43c-1 23-20 37-43 37-25 0-46-20-46-47 0-30 23-48 46-48s33 14 33 14l10-10s-13-18-43-18c-34 0-61 27-61 62 0 33 26 61 61 61 34 0 63-25 58-65zm544 63v-97l60 97h16V144h-15v69l1 23h-1l-57-92h-19v118h15zm-198-104v-14h-81v14h33v104h15V158h33zm-97 104V144h-15v118h15zm-67-104v-14h-81v14h33v104h15V158h33zm-94 0v-14h-69v118h69v-15h-54v-37h49v-14h-49v-38h54z"/>
  
</symbol><symbol id="bd" viewBox="0 0 40 40">
  <path fill="#006a4e" d="M0 0h40v40H0z"/>
  <circle fill="#f42a41" cx="18" cy="20" r="13"/>
</symbol><symbol id="br" viewBox="0 0 800 800">
  <g fill="#009b3a">
    <path d="M0 0h800v800H0z"/>
    <path d="M33 400l367 234 367-234-367-234L33 400z" fill="#fedf00"/>
    <circle fill="#002776" cx="400" cy="400" r="155"/>
    <path fill="#fff" d="M405 522v-3l2-1-3-1v-2l-2 2-2 1 1 1v3l2-2 2 2zm78-3v-3l2-2-3-1-1-3-2 3h-3l2 3-1 3 3-1 3 1zm-31-1v-6l4-4-6-1-2-5-3 5-5 1 4 4-1 5 5-2 4 3zm31-13l-1-3 3-2-3-1-2-3-2 3h-3l2 3v3l3-1 3 1zm-133-13l-1-6 4-4-6-1-2-5-2 5-6 1 4 4-1 5 5-2 5 3zm133-4v-3l2-2h-3l-1-3-2 3h-3l3 2-1 3 3-1 2 1zm12 0v-3l2-2h-3l-1-3-1 3h-3l2 2-1 3 3-1 2 1zm-57 0v-3l2-2h-3l-1-3-1 3h-3l2 2-1 3 3-1 2 1zm22 0v-3l2-2h-3l-1-3-1 3h-3l2 2-1 3 3-1 2 1zm49-3l-1-4 3-2-4-1-1-3-2 3-3 1 2 2-1 4 4-2 3 2zm-101-9l-1-5 4-3-5-1-2-4-2 4-5 1 4 3-1 5 4-2 4 2zm-91-2l-1-4 3-2-4-1-1-3-2 3h-4l3 3-1 4 4-2 3 2zm196-2l-1-3 3-2h-3l-2-3-1 3h-3l2 2-1 3 3-2 3 2zm-1-11l-1-5 4-3-5-1-2-5-2 5-5 1 4 3-1 5 4-3 4 3zm18-3v-3l2-2h-3l-1-3-1 3h-3l2 2-1 3 3-1 2 1zm-259-8l-1-3-2 3-4 1 3 2-1 4 3-2 4 2-1-3 3-3-4-1zm52 7l-1-3 3-3-3-1-2-3-2 3-3 1 2 2-1 4 4-2 3 2zm78-1v-3l2-2h-3l-1-3-1 3h-3l2 2-1 3 3-2 2 2zm44-98l4-1 4 2-1-5 4-3-5-1-2-4-2 4-5 1 3 3-1 4c-53-21-115-31-186-21-3 8-6 16-8 24 120-21 226 22 298 86 3-8 4-16 5-24-32-27-68-50-108-65zm-150 88l-1-6 4-3-5-1-3-6-2 5-6 1 4 4-1 5 5-2 5 3zm126-3v-3l2-3h-3l-2-4-1 4h-4l3 3-1 3 3-1 3 1zm-30 0l-1-3 3-3h-4l-1-4-2 4h-4l3 3-1 3 3-1 4 1zm-84-10v-3l2-1-3-1v-2l-2 2-2 1 2 1-1 3 2-1 2 1zm99-3l-1-5 4-4-5-1-2-5-3 5h-5l4 4-1 6 4-3 5 3zm-56-15l-1-5 4-4-6-1-2-5-2 5h-6l4 4-1 6 5-3 5 3zm94-15v-3l2-3-3-1-2-3-2 3-4 1 3 2-1 4 4-1 3 1zm-164-17l-1-6 4-4-5-1-3-5-2 5-6 1 4 4-1 5 5-2 5 3z"/>
    <path d="M534 420c6-8 16 0 10 8-5 7-17 1-10-8zm2 2c-4 7 4 8 6 4 4-7-4-8-6-4zm-17-9c-1 1 0 3 2 4s2 1 3 0c2-2-7-7-4-11 2-3 5-1 7 0 4 2 5 5 3 8l-2-2c1-1-1-3-2-4s-2-1-3 0c-1 2 7 7 4 11-2 3-4 2-7 0-4-2-5-5-3-8l2 2zm-16-11c-1 1 0 3 2 4s3 1 4 0c1-2-8-6-5-10 2-4 6-1 8 0s4 4 2 7l-2-2c1-1-1-3-2-4s-2-1-3 0c-2 2 8 6 5 11-2 3-6 2-8 0-2-1-5-4-3-7l2 1zm-21-7l7-13 11 7-1 2-9-5-1 3 7 4-1 2-8-4-2 3 10 5-2 3-11-7zm-7-9l-5-3-2 5-3-1 7-13 8 3c4 2 2 8-2 9 0 2-1 5-2 6l-2-1c1-1 1-3 1-5zm-15-5c-2 2-5 1-7 0s-4-5-2-9c3-6 10-5 12-1l-2 2c-2-4-5-3-7 0-1 2-1 5 1 6 1 1 4 0 5-1l-3-1 1-2 5 3-3 7-2-1s1-2 2-3zm11 0l5 2c3 1 4-2 2-3l-5-3-2 4zm-38-15c3-10 15-5 13 3-3 10-16 6-13-3zm3 0c-2 7 4 8 7 3s-6-8-7-3zm-21 1h-2l4-14 8 2c6 1 3 8 0 9 1 2 1 4 0 6h-3c1-1 1-4 0-6l-5-2-2 5zm-18-5h-2l4-14 8 2c4 1 5 10-4 8l-4-1-2 5zm21-2l5 1c3 0 3-3 0-4l-4-1-1 4zm-51-4l2-13 10 2v2l-8-1-1 3 7 1v2l-7-1v3l8 2v2l-11-2zm32-2l4 1c5 1 5-2 2-3l-5-1-1 3zm-138-4c-4-10 9-15 12-5 3 11-9 13-12 5zm78 3h-3l1-15h4l2 11 4-10h4l-2 15h-2l1-10-4 9h-3l-2-10v10zm-51-6l-6 1 1 5h-3l-1-14 8-1c6-1 7 8 3 8 2 1 2 5 2 7h-2c0-1-1-5-2-6zm-25 1c1 6 9 5 8-1-1-5-9-6-8 1zm68 4h-14l1-15 12 1v2h-10v3h8v3h-8v3l11 1v2zm-26 0h-6l-1-15h7c3 0 7 3 7 7v2c0 4-4 6-7 6zm0-12h-4v9h4c2 0 4-2 4-4v-1c0-2-2-4-4-4zm-18 1h-5v4h4c3 0 5-4 1-4z"/>
  </g>
</symbol><symbol id="cn" viewBox="0 0 800 800">
  <path fill="#de2910" d="M0 0h800v800H0z"/>
  <path fill="#ffde00" d="M314 163L130 297l70-217 71 217L86 163h228zm56-109l70 29-74 18 50-58-7 76-39-65zm92 70l53 55-75-13 69-34-36 67-11-75zm17 116l26 72-63-43 76-3-60 47 21-73zm-65 83l-3 76-42-64 71 27-73 20 47-59z"/>
</symbol><symbol id="cz" viewBox="0 0 512 512">
  <path fill="#fff" d="M512 256H308L0 49V0h512v256z"/>
  <path fill="#e80000" d="M512 256v256H0v-51l308-205H512z"/>
  <path fill="#00006f" d="M308 256L0 461V49l308 207z"/>
</symbol><symbol id="da" viewBox="0 0 800 800">
  <path fill="#fb1b22" d="M0 457h243v343H0V457zm800 343H357V457h443v343zm0-457H357V0h443v343zM243 0v343H0V0h243z"/>
  <path fill="#fff" d="M357 343V0H243v343H0v114h243v343h114V457h443V343H357z"/>
</symbol><symbol id="de" viewBox="0 0 3 3">
  <path fill="#ffe600" d="M0 2h3v1H0z"/>
  <path d="M0 0h3v1H0z"/>
  <path fill="#f00" d="M0 1h3v1H0z"/>
</symbol><symbol id="es" viewBox="0 0 4 4">
  <path fill="#c60b1e" d="M0 3h4v1H0V3zm0-3h4v1H0V0z"/>
  <path fill="#ffc400" d="M0 1h4v2H0z"/>
</symbol><symbol id="fr" viewBox="0 0 3 3">
  <path fill="#fff" d="M0 0h3v3H0z"/>
  <path fill="#00267f" d="M0 0h1v3H0z"/>
  <path fill="#f31830" d="M2 0h1v3H2z"/>
</symbol><symbol id="gb" viewBox="0 0 200 200">
  <path fill="#006" d="M0 0h200v200H0z"/>
  <path fill="#fff" d="M0 28v144l67-33v61h66v-61l67 33V28l-67 33V0H67v61z"/>
  <path fill="#c00" d="M200 120h-80v80H80v-80H0V80h80V0h40v80h80v40zM0 165v-15l33-17h30L0 165zm200-26v15l-41-21h30l11 6zM41 67H11L0 61V46l41 21zm126 0h-30l63-32v15z"/>
</symbol><symbol id="id" viewBox="0 0 2 2">
  <path fill="#fff" d="M0 1h2v1H0z"/>
  <path fill="#ce1126" d="M0 0h2v1H0z"/>
</symbol><symbol id="in" viewBox="0 0 900 900">
  <g fill="#008">
    <path fill="#fff" d="M0 300h900v300H0z"/>
    <path fill="#138808" d="M0 600h900v300H0z"/>
    <path fill="#f93" d="M0 0h900v300H0z"/>
    <circle cx="450" cy="450" r="120"/>
    <circle fill="#fff" cx="450" cy="450" r="104"/>
    <circle cx="450" cy="450" r="21"/>
    <path d="M450 555l-4-63 4-30 4 30-4 63zm-27-4l13-61 11-28-4 30-20 59zm-25-10l28-56 18-25-12 28-34 53zm-22-17l42-47 24-19-19 24-47 42zm-17-22l53-34 28-12-25 18-56 28zm-10-25l59-20 30-4-28 11-61 13zm-4-27l63-4 30 4-30 4-63-4zm4-27l61 13 28 11-30-4-59-20zm10-25l56 28 25 18-28-12-53-34zm17-22l47 42 19 24-24-19-42-47zm22-17l34 53 12 28-18-25-28-56zm25-10l20 59 4 30-11-28-13-61zm27-4l4 63-4 30-4-30 4-63zm27 4l-13 61-11 28 4-30 20-59zm25 10l-28 56-18 25 12-28 34-53zm22 17l-42 47-24 19 19-24 47-42zm17 22l-53 34-28 12 25-18 56-28zm10 25l-59 20-30 4 28-11 61-13zm4 27l-63 4-30-4 30-4 63 4zm-4 27l-61-13-28-11 30 4 59 20zm-10 25l-56-28-25-18 28 12 53 34zm-17 22l-47-42-19-24 24 19 42 47zm-22 17l-34-53-12-28 18 25 28 56zm-25 10l-20-59-4-30 11 28 13 61z"/>
  </g>
</symbol><symbol id="it" viewBox="0 0 3 3">
  <path fill="#fff" d="M0 0h3v3H0z"/>
  <path fill="#005700" d="M0 0h1v3H0z"/>
  <path fill="#fc0000" d="M2 0h1v3H2z"/>
</symbol><symbol id="jp" viewBox="0 0 26 26">
  <path fill="#fff" d="M0 0h26v26H0z"/>
  <circle fill="#d30000" cx="13" cy="13" r="8"/>
</symbol><symbol id="kr" viewBox="0 0 800 800">
  <path fill="#fff" d="M0 0h800v800H0z"/>
  <circle fill="#c60c30" cx="400" cy="400" r="200"/>
  <path fill="#003478" d="M234 289c-30 46-19 109 27 139s109 18 139-28 93-58 139-28 57 93 27 139c-61 91-186 116-277 55s-116-186-55-277z"/>
  <path d="M756 153l-28 18-51-76 28-19 51 77zm-83 55l-28 19-51-77 28-18 51 76zM123 95L12 261l-12-8v-34L95 76l28 19zm41 28L53 289l-27-18 111-167 27 19zm610 148l-27 18-111-166 27-19 111 167zm-92-49l51 76-28 19-51-76 28-19zm-476-72L95 317l-28-19 111-166 28 18zm448 409l51-76 28 19-51 76-28-19zm-550 28l-28 19-50-77 27-18 51 76zm592 0l51-76 27 18-50 77-28-19zm41 28l51-76 12 8v34l-35 52-28-18zm-92-42l28 19-51 76-28-18 51-77zm-439 77l-28 18L67 502l28-19 111 167zm-93-49l51 76-27 19-51-76 27-19zm574 0l27 19-51 76-27-19 51-76zM123 705l-28 19L0 581v-34l12-8 111 166zm605-76l28 18-51 77-28-19 51-76zm72-410v34l-12 8-51-76 28-18 35 52z"/>
</symbol><symbol id="ng" viewBox="0 0 3 3">
  <path fill="#008751" d="M3 3H2V0h1v3zM0 3V0h1v3H0z"/>
  <path fill="#fff" d="M1 0h1v3H1z"/>
</symbol><symbol id="nl" viewBox="0 0 3 3">
  <path fill="#fff" d="M0 0h3v3H0z"/>
  <path fill="#21468b" d="M0 2h3v1H0z"/>
  <path fill="#ae1c28" d="M0 0h3v1H0z"/>
</symbol><symbol id="ph" viewBox="0 0 800 800">
  <path d="M444 400L0 144v512z" fill="#fff"/>
  <path d="M0 320c44 0 80 36 80 80s-36 80-80 80V320zm0 249V400l10 158-10 11zm20-18L0 400l28 143-8 8zm73-30H81L0 400l93 121zm26-2h-14L0 400l119 105v14zm2-26L0 400l121 81v12zm162-119l31 9 19-25 1 32 30 10-30 10-1 32-19-25-31 9 19-26-19-26zm-132 46l-9 8L0 400l151 20zm18-20l-11 10L0 400l158-10 11 10zM0 400V231l10 11L0 400zm20-151l8 8L0 400l20-151zm99 32v14L0 400l105-119h14zm-26-2L0 400l81-121h12zm28 28v12L0 400l121-93zm30 73L0 400l142-28z" fill="#fcd116"/>
  <path d="M800 400v400H0V656l444-256z" fill="#ce1126"/>
  <path d="M800 400H444L0 144V0h800z" fill="#0038a8"/>
</symbol><symbol id="pk" viewBox="0 0 360 360">
  <g fill="#fff">
    <path d="M0 0h90v360H0z"/>
    <path fill="#01411c" d="M90 0h270v360H90z"/>
    <circle cx="224" cy="180" r="96"/>
    <circle fill="#01411c" cx="248" cy="160" r="88"/>
    <path d="M259 108l6 61 31-53-56 25 59 13-40-46z"/>
  </g>
</symbol><symbol id="pl" viewBox="0 0 2 2">
  <path fill="#fff" d="M0 0h2v2H0z"/>
  <path fill="#dc143c" d="M0 1h2v1H0z"/>
</symbol><symbol id="pt" viewBox="0 0 800 800">
  <path fill="#f00" d="M300 0h500v800H300z"/>
  <path fill="#060" d="M0 0h300v800H0z"/>
  <path fill="#ff0" d="M300 203c107 0 197 87 198 196 0 114-90 200-198 200-109 0-198-88-198-197 0-110 90-199 198-199zM175 526c27 27 67 49 115 52v-37c-49-3-85-8-115-15zm136 15v37c45-4 86-23 114-51-35 9-69 12-114 14zm77-38c-4 4-8 8-12 11 9-1 18-3 27-4-5-2-10-4-15-7zm-164 11c-9-8-17-18-24-28-17 3-31 7-46 13l1 2c23 5 45 10 69 13zm-82-34c14-6 32-11 48-14-4-9-7-19-8-29-24-4-43-9-57-13 3 21 9 39 17 56zm334-55c-14 4-35 9-56 12 17 13 32 24 42 34 6-14 12-30 14-46zm-57-40v30c18-3 41-8 58-13v-2c-18-7-38-12-58-15zm-237 0c-20 3-41 8-59 15v2c20 6 47 11 59 13v-30zm237-22c21 4 42 10 56 15-3-21-8-39-16-55-10 3-24 6-40 9v31zm-287-17c-3 10-5 20-7 31 10-3 22-7 35-10-11-8-21-15-28-21zm287-50v15c12-2 21-5 29-7 0-1-1-1-1-2-8-2-18-4-28-6zm-238-1c-2 0-5 1-7 2 2 1 7 2 7 2v-4zm0-25l-6 6 6-1v-5zm238 0v5l6 1-6-6zm-108-5h102c-25-21-60-38-102-41v41zm-21 0v-41c-42 3-76 20-102 41h102z"/>
  <path fill="#f00" d="M186 423c0 62 52 114 114 114 63 0 114-51 114-114V270H186v153zm114 69c-37 0-68-32-68-68V316h136v108c0 38-31 68-68 68zm92-11l-23 22-22-22 22-23 23 23zm-183 0l22-23 23 23-23 22-22-22zm166-110h32v32h-32v-32zm-149 32h-32v-32h32v32zm149-126h32v32h-32v-32zm-91 0h32v32h-32v-32zm-59 32h-32v-32h32v32z"/>
  <path fill="#0047cc" d="M300 474c-8 0-15-8-15-17v-21h30v21c0 9-6 17-15 17zm0-52c-8 0-15-7-15-16v-22h30v22c0 9-6 16-15 16zm42 0c-8 0-15-7-15-16v-22h30v22c0 9-6 16-15 16zm-84 0c-8 0-15-7-15-16v-22h30v22c0 9-6 16-15 16zm42-52c-8 0-15-7-15-16v-21h30v21c0 9-6 16-15 16z"/>
</symbol><symbol id="ru" viewBox="0 0 3 3">
  <path fill="#fff" d="M0 0h3v1H0z"/>
  <path fill="#01017e" d="M0 1h3v1H0z"/>
  <path fill="#fe0101" d="M0 2h3v1H0z"/>
</symbol><symbol id="se" viewBox="0 0 800 800">
  <path fill="#07c" d="M0 480h209v320H0V480zm369 0h431v320H369V480zm431-160H369V0h431v320zM0 320V0h209v320H0z"/>
  <path fill="#fecc00" d="M209 0h160v320h431v160H369v320H209V480H0V320h209V0z"/>
</symbol><symbol id="tr" viewBox="0 0 800 800">
  <g fill="#fff">
    <path fill="#e30a17" d="M0 0h800v800H0z"/>
    <circle cx="275" cy="400" r="200"/>
    <circle cx="325" cy="400" r="160" fill="#e30a17"/>
    <path d="M433 400l181 59-112-154v190l112-154-181 59z"/>
  </g>
</symbol><symbol id="us" viewBox="0 0 806 806">
  <g fill="#fff">
    <path fill="#C1133D" d="M0 0h806v806H0z"/>
    <path d="M806 682v62H0v-62h806zM0 558h806v62H0v-62zm0-124h806v62H0v-62zm0-124h806v62H0v-62zm0-124h806v62H0v-62zM0 62h806v62H0V62z"/>
    <path fill="#002663" d="M0 0h403v434H0z"/>
    <path d="M54 383l-6-17-5 17H25l14 11-5 17 14-11 15 11-6-17 15-11H54zm102 0l-6-17-5 17h-18l14 11-5 17 14-11 15 11-6-17 15-11h-18zm102 0l-5-17-6 17h-18l15 11-6 17 15-11 14 11-5-17 14-11h-18zm102 0l-5-17-6 17h-18l15 11-6 17 15-11 14 11-5-17 14-11h-18zM99 322l-5 18H76l14 10-5 17 14-10 15 10-6-17 15-10h-18l-6-18zm102 0l-5 18h-18l14 10-5 17 14-10 15 10-5-17 14-10h-18l-6-18zm108 18l-5-18-6 18h-18l15 10-6 17 15-10 14 10-5-17 14-10h-18zM54 296l-6-17-5 17H25l14 11-5 17 14-10 15 10-6-17 15-11H54zm306 0l-5-17-6 17h-18l15 11-6 17 15-10 14 10-5-17 14-11h-18zm-102 0l-5-17-6 17h-18l14 11-5 17 15-10 14 10-5-17 14-11h-18zm-102 0l-6-17-5 17h-18l14 11-5 17 14-10 15 10-5-17 14-11h-18zm153-43l-5-17-6 17h-18l15 11-6 17 15-11 14 11-5-17 14-11h-18zm-102 0l-6-17-5 17h-18l14 11-5 17 14-11 15 11-5-17 14-11h-18zm-102 0l-6-17-5 17H76l14 11-5 17 14-11 15 11-6-17 15-11h-18zm-51-43l-6-17-5 17H25l14 10-5 18 14-11 15 11-6-18 15-10H54zm102 0l-6-17-5 17h-18l14 10-5 18 14-11 15 11-6-18 15-10h-18zm102 0l-5-17-6 17h-18l15 10-6 18 15-11 14 11-5-18 14-10h-18zm102 0l-5-17-6 17h-18l15 10-6 18 15-11 14 11-5-18 14-10h-18zM99 149l-5 17H76l14 11-5 17 14-10 15 10-6-17 15-11h-18l-6-17zm210 17l-5-17-6 17h-18l15 11-6 17 15-10 14 10-5-17 14-11h-18zm-108-17l-5 17h-18l14 11-5 17 14-10 15 10-5-17 14-11h-18l-6-17zM54 123l-6-17-5 17H25l14 11-5 17 14-11 15 11-6-17 15-11H54zm102 0l-6-17-5 17h-18l14 11-5 17 14-11 15 11-6-17 15-11h-18zm97-17l-6 17h-18l15 11-6 17 15-11 14 11-5-17 14-11h-18l-5-17zm107 17l-5-17-6 17h-18l15 11-6 17 15-11 14 11-5-17 14-11h-18zM105 80l-6-17-5 17H76l14 10-5 18 14-11 15 11-6-18 15-10h-18zm102 0l-6-17-5 17h-18l14 10-5 18 14-11 15 11-5-18 14-10h-18zm102 0l-5-17-6 17h-18l15 10-6 18 15-11 14 11-5-18 14-10h-18zM54 37l-6-18-5 18H25l14 10-5 17 14-10 15 10-6-17 15-10H54zm102 0l-6-18-5 18h-18l14 10-5 17 14-10 15 10-6-17 15-10h-18zm102 0l-5-18-6 18h-18l15 10-6 17 15-10 14 10-5-17 14-10h-18zm102 0l-5-18-6 18h-18l15 10-6 17 15-10 14 10-5-17 14-10h-18z"/>
  </g>
</symbol><symbol id="amazon" viewBox="0 0 800 800">
  <path fill="#383940" class="amz-a" d="M445 358c0 31 0 59-15 85-13 22-34 37-56 37-31 0-49-25-49-59 0-69 62-80 120-80v17zm81 196l62-53c7-5 5-15 0-22-14-20-30-37-30-74V279c0-69 0-105-36-139-31-30-82-40-121-40-76 0-163 28-180 125-2 10 6 15 12 16l78 8c7 0 13-8 14-15 7-32 32-48 65-48 18 0 35 6 45 21s10 32 10 59v10c-46 4-108 9-151 27-51 22-87 66-87 133 0 80 52 125 121 125 57 0 89-14 133-59 14 22 20 31 46 54 5 4 14 2 19-2z"/>
  <path fill="#383940" class="amz-arrow" d="M642 626c10-7 3-20-10-15a591 591 0 0 1-522-33c-7-4-12 3-6 9a440 440 0 0 0 538 39zm28-32c8 10-10 56-18 76-3 6 4 7 9 3 35-29 44-91 37-100s-69-16-107 10c-8 6-1 10 3 9 20-4 68-7 76 2z"/>
</symbol><symbol id="behance" viewBox="0 0 800 800">
  <path fill="#1769ff" d="M569 532c28 0 49-15 56-33h62c-17 55-55 86-120 86-79 0-132-53-132-135 0-80 57-136 132-136 81 0 130 66 125 153H506c1 41 21 65 63 65zm-282 46H115V224h167c67 0 114 20 114 87 0 40-19 60-48 74 40 11 64 41 64 90 0 72-58 103-125 103zm-10-60c34 0 57-12 57-47 0-36-21-51-56-51h-85v98h84zm288-151c-34 0-57 22-59 55h115c-4-34-21-55-56-55zm-293 0c28 0 48-13 48-42 0-31-23-41-54-41h-73v83h79zm364-120v35H492v-35h144z"/>
</symbol><symbol id="buffer" viewBox="0 0 800 800">
  <path fill="#333333" d="M381 661L150 553c-13-6-13-12-1-18l39-18c12-6 23-8 40 0l154 72c12 6 24 6 36 0l154-72c17-8 28-6 40 0l39 18c12 6 12 12-1 18L419 661c-13 6-25 6-38 0zm0-144L149 409c-12-6-12-12 0-18l39-18c12-6 25-7 40 0l154 72c12 6 24 6 36 0l154-72c15-7 28-6 40 0l39 18c12 6 12 12 0 18L419 517c-13 6-25 6-38 0zm0-144L149 265c-13-6-11-12 1-18l230-107c15-7 25-7 40 0l230 107c12 6 14 12 1 18L419 373c-13 6-25 6-38 0z"/>
</symbol><symbol id="codepen" viewBox="0 0 800 800">
  <path fill="#383940" d="M140 478V321q0-12 10-19l238-158q12-8 24 0l238 158q10 7 10 19v158q0 12-10 19L412 656q-12 8-24 0L150 497q-10-7-10-19zm282-274v104l97 65 78-52zm-44 104V204L203 321l78 52zm-193 54v75l56-37zm193 234V492l-97-65-78 52zm22-143l79-53-79-53-79 53zm22 143l175-117-78-52-97 64v105zm193-159v-75l-56 38z"/>
</symbol><symbol id="delicious" viewBox="0 0 10 10">
  <path d="M2 5h3v3H2z" fill="#000"/>
  <path d="M5 5h3v3H5z" fill="#ddd"/>
  <path d="M2 2h3v3H2z" fill="#fff"/>
  <path d="M5 2h3v3H5z" fill="#3274d1"/>
</symbol><symbol id="dribbble" viewBox="0 0 800 800">
  <path fill="#ea4c89" d="M400 665c-146 0-265-119-265-265s119-265 265-265 265 119 265 265-119 265-265 265zm223-229s-69-22-140-9c30 81 43 161 43 161s82-49 97-152zM488 609s-15-90-48-172c-132 44-179 142-179 142s96 83 227 30zm-256-57c80-128 193-152 193-152s-12-27-19-39c-124 37-232 32-232 32s-8 87 58 159zm-54-198s102 2 210-28c-38-71-84-130-84-130-107 49-126 158-126 158zm169-174s50 65 85 134c84-31 118-83 118-83s-76-78-203-51zm102 167c6 11 20 44 20 44s64-11 157 7c0-85-51-141-51-141s-38 55-126 90z"/>
</symbol><symbol id="email" viewBox="0 0 800 800">
  <path d="M627 180c29 0 53 24 53 53v334c0 29-24 53-53 53H173c-29 0-53-24-53-53V233c0-29 24-53 53-53h454zm-7 113v-53L400 387 180 240v53l220 147z"/>
</symbol><symbol id="facebook" viewBox="0 0 800 800">
  <path fill="#3b5998" d="M445 643h-90V419h-75v-87h75v-64q0-55 32-86 30-29 80-29 28 0 67 3v78h-47q-42 0-42 38v60h86l-11 87h-75v224z"/>
</symbol><symbol id="facebook_square" viewBox="0 0 800 800">
  <path fill="#3b5998" d="M604 170c15 0 26 11 26 26v408c0 15-11 26-26 26H487V452h60l9-70h-69v-44c0-20 6-34 35-34h37v-62s-24-3-54-3c-53 0-89 33-89 92v51h-60v70h60v178H196c-15 0-26-11-26-26V196c0-15 11-26 26-26h408z"/>
</symbol><symbol id="flickr" viewBox="0 0 800 800">
  <circle fill="#FE0084" cx="234" cy="400" r="136" class="flickr-blue"/>
  <circle fill="#FE0084" cx="566" cy="400" r="136" class="flickr-pink"/>
</symbol><symbol id="github" viewBox="0 0 800 800">
  <path fill="#383940" d="M400 139c144 0 260 116 260 260 0 115-75 213-178 247-9 3-17-2-17-13v-71c0-35-18-48-18-48 57-6 119-28 119-128 0-44-27-70-27-70s14-29-2-69c0 0-22-7-72 27-42-12-88-12-130 0-50-34-72-27-72-27-16 40-2 69-2 69s-27 26-27 70c0 100 62 122 119 128 0 0-14 10-17 35-15 7-53 18-76-22 0 0-13-25-39-27 0 0-26 0-2 16 0 0 17 8 29 38 0 0 16 51 88 35v44c0 11-9 16-18 13-103-34-178-132-178-247 0-144 116-260 260-260z"/>
</symbol><symbol id="github_ring" viewBox="0 0 800 800">
  <path fill="#383940" d="M400 177c-127 0-223 103-223 223 0 104 72 188 160 214v-41c0-33 17-46 17-46-73-8-116-43-116-126 0-45 27-69 27-69s-14-26 2-67c25-6 71 26 71 26s24-9 63-9 63 9 63 9 46-32 71-26c16 41 2 67 2 67s27 24 27 69c0 83-43 118-116 126 0 0 17 13 17 46v41c87-27 158-109 158-214 0-120-96-223-223-223zm0-42c146 0 265 119 265 265S546 665 400 665 135 546 135 400s119-265 265-265z"/>
</symbol><symbol id="google" viewBox="0 0 800 800">
  <path fill="#567EF0" d="M651 363c23 168-80 297-246 297-144 0-260-116-260-260s116-260 260-260c70 0 130 26 175 68l-71 68c-19-19-53-40-104-40-89 0-161 73-161 164s72 164 161 164c104 0 142-74 148-112h-148v-89h246z"/>
</symbol><symbol id="googleplus" viewBox="0 0 800 800">
  <path fill="#dd4b39" d="M487 370c21 129-62 237-195 237-114 0-207-93-207-207s93-207 207-207c89 0 138 54 138 54l-56 54s-29-32-82-32c-71 0-128 59-128 131 0 73 57 131 128 131 81 0 113-58 117-90H292v-71h195zm189-59v59h59v60h-59v59h-59v-59h-59v-60h59v-59h59z"/>
</symbol><symbol id="instagram" viewBox="0 0 800 800">
  <path fill="#383940" d="M150 400c0-119 0-166 42-208s88-42 208-42 166 0 208 42 42 89 42 208 0 166-42 208-88 42-208 42-166 0-208-42-42-89-42-208zm455 0c0-114 0-148-29-176-29-29-62-29-176-29s-148 0-176 29c-29 29-29 62-29 176s0 148 29 176c29 29 62 29 176 29s148 0 176-29c29-29 29-62 29-176zM400 272a128 128 0 1 1 0 256 128 128 0 0 1 0-256zm0 211c46 0 83-37 83-83s-37-83-83-83-83 37-83 83 37 83 83 83zm163-216c0 16-13 30-30 30-16 0-30-14-30-30 0-17 14-30 30-30 17 0 30 13 30 30z"/>
</symbol><symbol id="linkedin" viewBox="0 0 800 800">
  <path fill="#007bb6" d="M268 629h-97V319h97zm157 0h-97V319h93v42h1q31-50 93-50 114 0 114 133v185h-96V466q0-70-49-70-59 0-59 69z"/><circle cx="219" cy="220" r="56"/>
</symbol><symbol id="location" viewBox="0 0 800 800">
  <path d="M400 130c97 0 175 79 175 176 0 168-175 388-175 388S225 474 225 306c0-97 78-176 175-176zm0 262c46 0 83-37 83-83s-37-84-83-84-83 38-83 84 37 83 83 83z"/>
</symbol><symbol id="medium" viewBox="0 0 800 800"><g>
  <path fill="#383940" d="M650 267v328c0 14-12 20-28 12l-139-70 167-270z" fill-opacity=".4"/>
  <path fill="#383940" d="M374 360l101-164c4-7 14-10 22-6l153 77-167 270-109-177z" fill-opacity=".6"/>
  <path fill="#383940" d="M483 537l-170-85 4-185 166 270z" fill-opacity=".8"/>
  <path fill="#383940" d="M317 595c0 14-10 20-23 14l-130-65c-8-4-14-13-14-22V204c0-11 7-17 18-12l149 75v328z"/>
</g></symbol><symbol id="phone" viewBox="0 0 800 800">
  <path d="M627 513c22 23 38 50 1 95-35 42-61 42-92 42-76 0-188-96-243-152-53-55-143-170-143-251 0-30 13-59 47-81 35-23 68-22 95 11 22 27 81 92 44 142-25 33-22 32 2 59 25 28 51 55 89 89 21 16 17 19 55-7 44-30 123 33 145 53z"/>
</symbol><symbol id="pinterest" viewBox="0 0 800 800">
  <path fill="#bd081c" d="M287 681c-9-3-15-77-6-115l38-163s-9-20-9-49c0-46 26-80 59-80 28 0 42 21 42 46 0 28-19 71-28 110-8 33 17 59 49 59 58 0 104-61 104-150 0-79-57-134-138-134-94 0-148 69-148 142 0 28 9.7 57.4 23 74 4 5 5 6 2 17l-8 31s-2 9.5-14 3c-41-22.3-63-78-63-126 0-104 75-199 217-199 114 0 203 81 203 190 0 113-72 205-171 205-55 0-75-38-75-38l-21 78c-11 41-47 102-56 99z"/>
</symbol><symbol id="reddit" viewBox="0 0 800 800">
  <path fill="#ffffff" stroke="#000000" stroke-width="1" vector-effect="non-scaling-stroke" d="M460 668c36-19 84 7 74 43h-268c-10-36 38-62 74-43h120z"/>
  <ellipse fill="#ffffff" stroke="#000000" stroke-width="1" vector-effect="non-scaling-stroke" cx="472" cy="536" rx="72" ry="86"/>
  <ellipse fill="#ffffff" stroke="#000000" stroke-width="1" vector-effect="non-scaling-stroke" cx="328" cy="536" rx="72" ry="86"/>
  <path fill="#ffffff" stroke="#000000" stroke-width="1" vector-effect="non-scaling-stroke" d="M425 711c55-30 89-158 67-268h-184c-22 110 12 238 67 268h50z"/>
  <circle fill="#ffffff" stroke="#000000" stroke-width="1" vector-effect="non-scaling-stroke" cx="578" cy="269" r="44"/>
  <circle fill="#ffffff" stroke="#000000" stroke-width="1" vector-effect="non-scaling-stroke" cx="222" cy="269" r="44"/>
  <ellipse fill="#ffffff" stroke="#000000" stroke-width="1" vector-effect="non-scaling-stroke" cx="400" cy="329" rx="197" ry="129"/>
  <circle fill="#EE4B2D" class="reddit-eyes" cx="331" cy="304" r="32"/>
  <circle fill="#EE4B2D" class="reddit-eyes" cx="469" cy="304" r="32"/>
  <path fill="none" stroke="#000000" stroke-width="1" vector-effect="non-scaling-stroke" class="reddit-line" d="M521 116l-88-20-32 102M468 388s-16 21-68 21-68-21-68-21"/>
  <circle fill="#ffffff" stroke="#000000" stroke-width="1" vector-effect="non-scaling-stroke" cx="556" cy="123" r="34"/>
</symbol><symbol id="reddit_head" viewBox="0 0 800 800">
  <circle fill="#ffffff" stroke="#000000" stroke-width="1" vector-effect="non-scaling-stroke" cx="616" cy="373" r="53"/>
  <circle fill="#ffffff" stroke="#000000" stroke-width="1" vector-effect="non-scaling-stroke" cx="184" cy="373" r="53"/>
  <ellipse fill="#ffffff" stroke="#000000" stroke-width="1" vector-effect="non-scaling-stroke" cx="400" cy="446" rx="240" ry="157"/>
  <circle fill="#EE4B2D" class="reddit-eyes" cx="315" cy="416" r="39"/>
  <circle fill="#EE4B2D" class="reddit-eyes" cx="485" cy="416" r="39"/>
  <path fill="none" stroke="#000000" stroke-width="1" vector-effect="non-scaling-stroke" class="reddit-line" d="M548 188l-107-25-40 126m82 229s-18 25-83 25-83-25-83-25"/>
  <circle fill="#ffffff" stroke="#000000" stroke-width="1" vector-effect="non-scaling-stroke" cx="590" cy="196" r="42"/>
</symbol><symbol id="rss" viewBox="0 0 800 800">
  <path fill="#D95B29" d="M493 652H392c0-134-111-244-244-244V307c189 0 345 156 345 345zm71 0c0-228-188-416-416-416V132c285 0 520 235 520 520z"/>
  <circle fill="#D95B29" cx="219" cy="581" r="71"/>
</symbol><symbol id="sina_weibo" viewBox="0 0 2000 2000">
  <path d="M282 1082l279 509 869-103-56-860-1092 454z" fill="#fff"/>
  <path d="M1467 920c101 17 207 81 207 213 0 249-359 516-798 516-330 0-612-164-612-444 0-362 434-764 663-764 68 0 139 43 139 131 0 73-31 112-15 127 11 10 42-7 56-13 75-34 139-67 227-67 77 0 141 43 141 149 0 30-8 71-23 108-13 32 5 42 15 44zm-587-39c-279 19-495 184-482 367s249 316 528 297 495-184 482-367-249-316-528-297z" fill="#e10c10"/>
  <path d="M1425 485c152-10 234 121 200 240" fill="none" stroke-width="109" stroke="#ff9906"/>
  <path d="M1403 271c323-22 499 256 426 510" fill="none" stroke-width="126" stroke="#ff9906"/>
  <path d="M1130 1181c31 125-61 255-205 291s-286-35-317-160 60-255 204-291 287 35 318 160zm-391 48c-39 26-51 77-26 114s77 45 116 19 51-78 26-115-77-44-116-18zm230-19c0-46-72-39-72 3 0 44 72 40 72-3z"/>
</symbol><symbol id="snapchat" viewBox="0 0 800 800">
  <path fill="#f7ec1e" d="M400 152c-23 0-98 6-133 83-14 30-7 82-5 122-14 14-38-3-48-3-20 0-39 21 1 36 21 8 55 16 39 49-2 3-36 79-112 94-10 2-9 25 63 34 8 1 6 35 17 35s23-5 42-5c65 0 68 50 136 50s71-50 136-50c19 0 31 5 42 5s9-34 17-35c72-9 73-32 63-34-76-15-110-91-112-94-16-33 18-41 39-49 40-15 21-36 1-36-10 0-34 17-48 3 2-40 9-92-5-122-35-77-110-83-133-83z"/>
</symbol><symbol id="soundcloud" viewBox="0 0 800 800">
  <path fill="#ff6000" d="M231 534c-1 8-11 7-11 0l-5-73 5-140c0-7 11-8 11 0l6 140zm130-3l-4-70 4-176c0-11 17-11 17 0l4 176-4 70c-1 11-16 12-17 0zm-13-218l5 148-5 70c-1 12-15 10-16 0l-4-70 4-148c0-10 16-11 16 0zm-58 219c-1 9-13 10-14 1l-5-72 5-157c0-9 14-10 14 0l5 157zm455-77c0 47-38 84-85 84h-235c-5-1-9-4-9-9v-270c0-5 2-8 8-10 100-37 195 33 203 127 59-24 118 19 118 78zm-426-147l4 153-4 71c-1 10-14 10-15 0l-4-71 4-153c0-11 15-10 15 0zm-116 38l6 114-6 74c-1 7-9 7-10 0l-6-74 6-114c0-6 10-6 10 0zm58-37l5 152-5 72c-1 8-12 8-13 0l-5-72 5-152c0-9 13-9 13 0zm128-40c0-12 19-11 19 0l4 192-4 69c-1 12-18 12-19 0l-4-69zm-214 121l6 70-6 74c0 6-9 6-9 0l-6-74 6-70c1-6 9-5 9 0zm-28-5l7 75-7 74c0 4-8 4-8 0l-6-74 6-75c0-5 8-5 8 0zm-28 2l7 73-7 71c0 5-7 5-7 0l-6-71 6-73c0-4 7-5 7 0zm-28 13l8 60-8 61c-1 4-6 4-6 0l-6-61 6-59c1-7 5-7 6-1zm-25 25l6 35-6 38c-1 4-5 4-6 0l-5-38 5-36c1-6 5-7 6 1z"/>
</symbol><symbol id="soundcloud_text" viewBox="0 0 800 800">
  <path fill="#ff6000" d="M123 545c10 2 21 6 21 20 0 12-8 20-25 20-10 0-19-5-24-12l9-8c4 5 10 8 16 8 7 0 11-2 11-7 0-4-2-6-14-9s-20-7-20-19c0-11 11-18 23-18 10 0 16 4 22 10l-9 9c-4-4-8-7-14-7-7 0-9 3-9 6 0 4 3 5 13 7zm58-25c17 0 27 13 27 32s-10 33-27 33-28-14-28-33 11-32 28-32zm52 1v35c0 10 4 17 12 17s13-7 13-17v-35h13v35c0 18-10 29-26 29-15 0-25-11-25-29v-35h13zm210 12c-9 0-15 7-15 19 0 11 6 20 15 20 6 0 10-2 13-8l10 7c-4 9-12 14-23 14-16 0-27-13-27-33 0-19 11-32 27-32 12 0 19 6 23 14l-11 5c-2-4-6-6-12-6zm105-13c17 0 27 13 27 32s-10 33-27 33-27-14-27-33 10-32 27-32zm52 1v35c0 10 5 17 13 17s13-7 13-17v-35h12v35c0 18-9 29-25 29-15 0-25-11-25-29v-35h12zm-301 0l26 40v-40h12v63h-11l-27-41v41h-12v-63h12zm74 0c18 0 31 8 31 31 0 22-16 32-32 32h-18v-63h19zm117 0v50h25v13h-38v-63h13zm184 0c18 0 31 8 31 31 0 22-16 32-32 32h-19v-63h20zm-493 51c10 0 14-9 14-20s-4-19-14-19-15 8-15 19 5 20 15 20zm367 0c10 0 14-9 14-20s-4-19-14-19-14 8-14 19 4 20 14 20zm-176 0c13 0 20-9 20-20 0-13-6-19-19-19h-7v39h6zm301 0c13 0 19-9 19-20 0-13-6-19-19-19h-6v39h6zm-442-83c-1 8-11 7-11 0l-5-73 5-140c0-7 11-8 11 0l6 140zm130-3l-4-70 4-176c0-11 17-11 17 0l4 176-4 70c-1 11-16 12-17 0zm-13-218l5 148-5 70c-1 12-15 10-16 0l-4-70 4-148c0-10 16-11 16 0zm-58 219c-1 9-13 10-14 1l-5-72 5-157c0-9 14-10 14 0l5 157zm455-77c0 47-38 84-85 84h-235c-5-1-9-4-9-9v-270c0-5 2-8 8-10 100-37 195 33 203 127 59-24 118 19 118 78zm-426-147l4 153-4 71c-1 10-14 10-15 0l-4-71 4-153c0-11 15-10 15 0zm-116 38l6 114-6 74c-1 7-9 7-10 0l-6-74 6-114c0-6 10-6 10 0zm58-37l5 152-5 72c-1 8-12 8-13 0l-5-72 5-152c0-9 13-9 13 0zm128-40c0-12 19-11 19 0l4 192-4 69c-1 12-18 12-19 0l-4-69zm-214 121l6 70-6 74c0 6-9 6-9 0l-6-74 6-70c1-6 9-5 9 0zm-28-5l7 75-7 74c0 4-8 4-8 0l-6-74 6-75c0-5 8-5 8 0zm-28 2l7 73-7 71c0 5-7 5-7 0l-6-71 6-73c0-4 7-5 7 0zm-28 13l8 60-8 61c-1 4-6 4-6 0l-6-61 6-59c1-7 5-7 6-1zm-25 25l6 35-6 38c-1 4-5 4-6 0l-5-38 5-36c1-6 5-7 6 1z"/>
</symbol><symbol id="tumblr" viewBox="0 0 800 800">
  <path fill="#36465D" d="M570 602c-15 25-66 44-121 44-126 0-194-46-194-144V378h-50c-2 0-3-1-3-3v-98c0-3 4-4 7-5 50-17 77-51 84-110 2-14 14-22 24-22h144c2 0 3 1 3 3v112c0 2 1 3 3 3h80c2 0 3 1 3 3v114c0 2-1 3-3 3h-81c-2 0-3 1-3 3v115c0 11 2 11 4 11h69s2 0 3 3zM440 161h-65s-3-1-4 6c-9 63-38 101-87 121 0 0-4 1-4 4v63c0 2 1 3 3 3h48c2 0 3 1 3 3v141c0 46 27 124 129 124 33 0 66-11 83-27 1-1 0-3 0-3l-20-60c-1-4-3-3-3-3-13 5-26 7-37 7-28 0-44-15-44-45V361c0-2 1-3 3-3h81c2 0 3-1 3-3v-74c0-2-1-3-3-3h-80c-2 0-3-1-3-3V164c0-2-1-3-3-3z"/>
</symbol><symbol id="twitter" viewBox="0 0 800 800">
  <path fill="#55acee" d="M679 239s-21 34-55 57c7 156-107 329-314 329-103 0-169-50-169-50s81 17 163-45c-83-5-103-77-103-77s23 6 50-2c-93-23-89-110-89-110s23 14 50 14c-84-65-34-148-34-148s76 107 228 116c-22-121 117-177 188-101 37-6 71-27 71-27s-12 41-49 61c30-2 63-17 63-17z"/>
</symbol><symbol id="vine" viewBox="0 0 800 800">
  <path fill="#00B289" d="M615 399v58s-27 7-59 7c-41 87-116 163-141 177-16 9-31 9-48-1-31-18-146-114-185-413h84c21 180 73 272 130 341 31-31 61-74 85-121-56-29-91-92-91-165 0-74 43-129 116-129 71 0 109 44 109 120 0 28-6 60-17 85-53 10-72-24-72-24s9-27 9-55c0-35-13-52-32-52-20 0-34 19-34 56 0 76 48 120 110 120 20 0 36-4 36-4z"/>
</symbol><symbol id="vk" viewBox="0 0 800 800">
  <path fill="#4D76A4" d="M393 566c-135 0-208-143-276-285-10-21 6-23 16-23l81-1c12 0 17 9 20 15 13 31 66 142 92 129 18-9 15-107 4-122-7-9-20-12-26-13-5-1 3-11 13-16 18-9 87-9 111-3 28 7 19 32 19 95 0 20-4 50 11 58 24 12 81-101 91-131 3-8 9-11 19-11h85c20 0 27 1 30 8 5 12-9 40-44 87-57 77-65 70-17 114 46 42 55 63 57 66 14 28-11 34-21 34h-76c-9 0-21 0-38-11-29-19-55-70-76-64-17 5-20 34-21 53-1 16-10 21-20 21h-34z"/>
</symbol><symbol id="whatsapp" viewBox="0 0 800 800">
  <path fill="#25D366" d="M519 454c4 2 7 10-1 31-6 16-33 29-49 29-96 0-189-113-189-167 0-26 9-39 18-48 8-9 14-10 18-10h12c4 0 9 0 13 10l19 44c5 11-9 25-15 31-3 3-6 7-2 13 25 39 41 51 81 71 6 3 10 1 13-2l19-24c5-6 9-4 13-2zM401 200c-110 0-199 90-199 199 0 68 35 113 35 113l-20 74 76-20s42 32 108 32c110 0 199-89 199-199 0-111-89-199-199-199zm0-40c133 0 239 108 239 239 0 132-108 239-239 239-67 0-114-29-114-29l-127 33 34-124s-32-49-32-119c0-131 108-239 239-239z"/>
</symbol><symbol id="youtube" viewBox="0 0 800 800">
  <path fill="#cd201f" d="M400 224c144 0 201 2 224 25 17 17 26 52.125 26 151s-9 134-26 151c-23 23-80 25-224 25s-201-2-224-25c-17-17-26-52.125-26-151s9-134 26-151c23-23 80-25 224-25zm-52 100v141l135-70z"/>
</symbol><symbol id="youtube_text" viewBox="0 0 800 800">
  <path fill="#cd201f" d="M535 256c118 0 165 1 184 20 14 14 21 43 21 124s-7 110-21 124c-19 19-66 20-184 20s-166-1-185-20c-14-14-21-43-21-124s7-110 21-124c19-19 67-20 185-20zm-357 93c25 0 37 18 37 43v56c0 27-13 43-37 43s-37-17-37-43v-56c0-24 11-43 37-43zm267 111c0 18 4 31 20 31 9 0 17-6 27-17v15h26V351h-26v105c-6 8-10 12-15 12-3 0-5-1-6-5V351h-26v109zm-191 31c-16 0-19-13-19-31V350h26v113c1 4 2 5 5 5 5 0 9-4 15-12V350h27v139h-27v-15c-10 11-18 17-27 17zm415 0c17.997 0 37-8.907 37-50h-26c0 16 0 27-12 27-9 0-12-6-12-19v-25h50v-28c0-28-13-47-38-47-26 0-38 19-38 48v48c0 28 14 46 39 46zm-56-98c0-24-4-44-23-44-9 0-18 6-26 16v-60h-25v184h25v-14c8 10 17 16 26 16 20 0 23-19 23-43v-55zm-221-62v158h27V331h30v-26h-86v26h29zM112 489H84v-76L50 303h29l19 73 19-73h29l-34 110v76zm77-39v-60c0-11-2-18-11-18s-11 7-11 18v60c0 13 3 18 11 18s11-5 11-18zm398-1c0 14-3 19-10 19-4 0-9-2-13-6v-84c4-4 9-6 13-6 7 0 10 4 10 18v59zm69-61c0-13 5-16 12-16 8 0 11 4 11 17v15h-23v-16z"/>
</symbol><symbol id="comment-circle-fill" viewBox="0 0 48 48"><title>comment-circle-fill</title><path d="M24.57 35a13.5 13.5 0 0 1-11.88 4.92 14.3 14.3 0 0 0 5.08-5.66C10.33 32.42 5 27.4 5 21.5 5 14.04 13.5 8 24 8s19 6.04 19 13.5c0 7.32-8.2 13.28-18.43 13.5z" fill="currentColor" fill-rule="evenodd"/></symbol><symbol id="comment-square-fill" viewBox="0 0 48 48"><title>comment-square-fill</title><path d="M13 34h27a3 3 0 0 0 3-3V10a3 3 0 0 0-3-3H8a3 3 0 0 0-3 3v32l8-8z" fill="currentColor" fill-rule="evenodd"/></symbol><symbol id="dislike1-fill" viewBox="0 0 48 48"><title>dislike1-fill</title><path d="M30 25.64V9.74s-2.23-1.62-5.29-2.22c-3.06-.59-8.53-.73-12.12-.14-3.58.59-2.7 4.67-2.7 4.67s-3.6 1.1-1.4 5.03c-3.25 1.64-1.59 4.3-1.54 4.87-3.75 2.55-1.21 5.5.33 5.5h10.91s.3 1.53-.47 3.35c-.76 1.82-1.41 2.45-1.64 3.99-.6 3.98.83 7.21 2.83 7.21 2.01 0 2.14-4.7 3.45-7.5 1.31-2.79 7.64-8.86 7.64-8.86zM43 27H31.96V7H43v20z" fill="currentColor" fill-rule="evenodd"/></symbol><symbol id="downarrow-fill" viewBox="0 0 48 48"><title>downarrow-fill</title><path d="M12 14h24L24 26z" fill="currentColor" fill-rule="evenodd"/></symbol><symbol id="eye-fill" viewBox="0 0 48 48"><title>eye-fill</title><path d="M24 9C10.9 9 2 24 2 24s8.9 15 22 15 22-15 22-15S37.1 9 24 9zm0 23a8 8 0 1 0 0-16 8 8 0 0 0 0 16z" fill="currentColor" fill-rule="evenodd"/></symbol><symbol id="fastbackward-fill" viewBox="0 0 48 48"><title>fastbackward-fill</title><g fill="currentColor" fill-rule="evenodd"><path d="M23 5v38L5 24z"/><path d="M43 5v38L25 24z"/></g></symbol><symbol id="fastforward-fill" viewBox="0 0 48 48"><title>fastforward-fill</title><g fill="currentColor" fill-rule="evenodd"><path d="M5 5v38l18-19z"/><path d="M25 5v38l18-19z"/></g></symbol><symbol id="forward-fill" viewBox="0 0 48 48"><title>forward-fill</title><path d="M32.7 8L45 20.7 32.7 33.37v-5.92S2 21.16 2 39c0-27.08 30.7-25.08 30.7-25.08V8z" fill="currentColor" fill-rule="evenodd"/></symbol><symbol id="grid-circle-fill" viewBox="0 0 48 48"><title>grid-circle-fill</title><path d="M9.5 14a4.5 4.5 0 1 0 0-9 4.5 4.5 0 0 0 0 9zm0 15a4.5 4.5 0 1 0 0-9 4.5 4.5 0 0 0 0 9zm15-15a4.5 4.5 0 1 0 0-9 4.5 4.5 0 0 0 0 9zm0 15a4.5 4.5 0 1 0 0-9 4.5 4.5 0 0 0 0 9zm14-15a4.5 4.5 0 1 0 0-9 4.5 4.5 0 0 0 0 9zm0 15a4.5 4.5 0 1 0 0-9 4.5 4.5 0 0 0 0 9zm-29 14a4.5 4.5 0 1 0 0-9 4.5 4.5 0 0 0 0 9zm15 0a4.5 4.5 0 1 0 0-9 4.5 4.5 0 0 0 0 9zm14 0a4.5 4.5 0 1 0 0-9 4.5 4.5 0 0 0 0 9z" fill="currentColor" fill-rule="evenodd"/></symbol><symbol id="grid-rect-fill" viewBox="0 0 48 48"><title>grid-rect-fill</title><path d="M5 5h8v8H5V5zm0 15h8v8H5v-8zM20 5h8v8h-8V5zm0 15h8v8h-8v-8zM35 5h8v8h-8V5zm0 15h8v8h-8v-8zM5 35h8v8H5v-8zm15 0h8v8h-8v-8zm15 0h8v8h-8v-8z" fill="currentColor" fill-rule="evenodd"/></symbol><symbol id="heart-fill" viewBox="0 0 48 48"><title>heart-fill</title><path d="M40.87 28.86L24 46 7.13 28.86A12.57 12.57 0 0 1 3 19.51C3 12.6 8.51 7 15.31 7c3.4 0 6.46 1.4 8.69 3.65A12.17 12.17 0 0 1 32.69 7C39.49 7 45 12.6 45 19.5c0 3.73-1.6 7.07-4.13 9.36z" fill="currentColor" fill-rule="evenodd"/></symbol><symbol id="heart-round-fill" viewBox="0 0 48 48"><title>heart-round-fill</title><path d="M24.7 12.26c5.93-8.73 18.8-4.36 19.8 5.3 1.08 10.43-6.18 14.4-18.08 25.57a4 4 0 0 1-5.62 0C9.18 31.98 2.44 27.99 3.5 17.56c1-9.82 14.34-13.72 19.64-5.3.37.58 1.17.58 1.56 0z" fill="currentColor" fill-rule="evenodd"/></symbol><symbol id="home-fill" viewBox="0 0 48 48"><title>home-fill</title><g fill="currentColor" fill-rule="evenodd"><path d="M11 22.72V43h9v-9.3h8V43h9V22.72L24 13z"/><path d="M37 14.86l6 4.55L41.13 22 24 9 6.87 22 5 19.4 24 5l10 7.58V9h3v5.86z"/></g></symbol><symbol id="leftarrow-fill" viewBox="0 0 48 48"><title>leftarrow-fill</title><path d="M22 24l12-12v24z" fill="currentColor" fill-rule="evenodd"/></symbol><symbol id="like1-fill" viewBox="0 0 48 48"><title>like1-fill</title><path d="M18 23.36v15.9s2.23 1.62 5.29 2.22c3.06.59 8.53.73 12.12.14 3.58-.59 2.7-4.67 2.7-4.67s3.6-1.1 1.4-5.03c3.25-1.64 1.59-4.3 1.54-4.87 3.75-2.55 1.21-5.5-.33-5.5H29.81s-.3-1.53.47-3.35c.76-1.82 1.41-2.45 1.64-3.99.6-3.98-.83-7.21-2.83-7.21-2.01 0-2.14 4.7-3.45 7.5-1.31 2.79-7.64 8.86-7.64 8.86zM5 22h11.04v20H5V22z" fill="currentColor" fill-rule="evenodd"/></symbol><symbol id="menu-circle-fill-horizontal" viewBox="0 0 48 48"><title>menu-circle-fill-horizontal</title><path d="M9.5 29a4.5 4.5 0 1 0 0-9 4.5 4.5 0 0 0 0 9zM24 29a4.5 4.5 0 1 0 0-9 4.5 4.5 0 0 0 0 9zm14.5 0a4.5 4.5 0 1 0 0-9 4.5 4.5 0 0 0 0 9z" fill="currentColor" fill-rule="evenodd"/></symbol><symbol id="menu-circle-fill-vertical" viewBox="0 0 48 48"><title>menu-circle-fill-vertical</title><path d="M24.5 14a4.5 4.5 0 1 0 0-9 4.5 4.5 0 0 0 0 9zm0 14.5a4.5 4.5 0 1 0 0-9 4.5 4.5 0 0 0 0 9zm0 14.5a4.5 4.5 0 1 0 0-9 4.5 4.5 0 0 0 0 9z" fill="currentColor" fill-rule="evenodd"/></symbol><symbol id="menu-rect-fill-horizontal" viewBox="0 0 48 48"><title>menu-rect-fill-horizontal</title><path d="M5 20h8v8H5v-8zm15 0h8v8h-8v-8zm15 0h8v8h-8v-8z" fill="currentColor" fill-rule="evenodd"/></symbol><symbol id="menu-rect-fill-vertical" viewBox="0 0 48 48"><title>menu-rect-fill-vertical</title><path d="M20 5h8v8h-8V5zm0 15h8v8h-8v-8zm0 15h8v8h-8v-8z" fill="currentColor" fill-rule="evenodd"/></symbol><symbol id="menu1-fill" viewBox="0 0 48 48"><title>menu1-fill</title><path d="M2 8h44v4H2V8zm0 14h44v4H2v-4zm0 14h44v4H2v-4z" fill="currentColor" fill-rule="evenodd"/></symbol><symbol id="notification-fill" viewBox="0 0 48 48"><title>notification-fill</title><g fill="currentColor" fill-rule="evenodd"><path d="M21.5 9.38C17.19 10.7 14 15.4 14 21v4h-.01l.01.5c0 3.8-2.04 7.2-5.25 9.5h30.5C36.04 32.7 34 29.3 34 25.5l.01-.5H34v-4c0-5.6-3.19-10.29-7.5-11.62V7.5a2.5 2.5 0 0 0-5 0v1.88z"/><path d="M28.47 37a4.5 4.5 0 1 1-8.95 0h8.95z"/></g></symbol><symbol id="notification-off-fill" viewBox="0 0 48 48"><title>notification-off-fill</title><g fill="none" fill-rule="evenodd"><g fill="currentColor"><path d="M21.5 9.38C17.19 10.7 14 15.4 14 21v4h-.01l.01.5c0 3.8-2.04 7.2-5.25 9.5h30.5C36.04 32.7 34 29.3 34 25.5l.01-.5H34v-4c0-5.6-3.19-10.29-7.5-11.62V7.5a2.5 2.5 0 0 0-5 0v1.88z"/><path d="M28.47 37a4.5 4.5 0 1 1-8.95 0h8.95z"/></g><path fill="currentColor" d="M11.44 9.44l27.58 27.58-2.12 2.12L9.32 11.57z"/><path fill="#FFF" d="M13.56 7.32L41.14 34.9l-2.12 2.12L11.44 9.44z"/></g></symbol><symbol id="pause-fill" viewBox="0 0 48 48"><title>pause-fill</title><path d="M5 5h12v38H5V5zm26 0h12v38H31V5z" fill="currentColor" fill-rule="evenodd"/></symbol><symbol id="photogallery-fill" viewBox="0 0 48 48"><title>photogallery-fill</title><g fill="currentColor" fill-rule="evenodd"><path d="M5 13h30v30H5z"/><path d="M9 9V5h34v34h-4V9z"/></g></symbol><symbol id="pin1-fill" viewBox="0 0 48 48"><title>pin1-fill</title><path d="M23.51 46s14.51-20.6 14.51-29.49a14.51 14.51 0 0 0-29.02 0C9 25.87 23.51 46 23.51 46zm0-22.47a7.02 7.02 0 1 0 0-14.04 7.02 7.02 0 0 0 0 14.04z" fill="currentColor" fill-rule="evenodd"/></symbol><symbol id="pin2-fill" viewBox="0 0 48 48"><title>pin2-fill</title><path d="M30.96 2C30.73 3.32 29.6 4.47 28 5.2v10.62A10 10 0 0 1 34.03 25h-20A10 10 0 0 1 20 15.85V5.19c-1.61-.72-2.73-1.87-2.96-3.19h13.92zM23 27h2v17l-.97 2L23 44V27z" fill="currentColor" fill-rule="evenodd"/></symbol><symbol id="play-circle-fill" viewBox="0 0 48 48"><title>play-circle-fill</title><path d="M24 46a22 22 0 1 0 0-44 22 22 0 0 0 0 44zm-7-35v27l19-13.5L17 11z" fill="currentColor" fill-rule="evenodd"/></symbol><symbol id="playarrow-fill" viewBox="0 0 48 48"><title>playarrow-fill</title><path d="M8 3l32 21L8 45z" fill="currentColor" fill-rule="evenodd"/></symbol><symbol id="playnext-fill" viewBox="0 0 48 48"><title>playnext-fill</title><g fill="currentColor" fill-rule="evenodd"><path d="M5 5l25 19L5 43z"/><path d="M35 5h8v38h-8z"/></g></symbol><symbol id="playprev-fill" viewBox="0 0 48 48"><title>playprev-fill</title><g fill="currentColor" fill-rule="evenodd"><path d="M43 5L18 24l25 19z"/><path d="M5 5h8v38H5z"/></g></symbol><symbol id="rightarrow-fill" viewBox="0 0 48 48"><title>rightarrow-fill</title><path d="M14 12v24l12-12z" fill="currentColor" fill-rule="evenodd"/></symbol><symbol id="setting-fill" viewBox="0 0 48 48"><title>setting-fill</title><path d="M20.38 10.47L21.5 6h5l1.12 4.47c1.2.32 2.34.8 3.39 1.4l3.95-2.37 3.54 3.54-2.38 3.95c.61 1.05 1.09 2.2 1.4 3.4L42 21.5v5l-4.47 1.12c-.32 1.2-.8 2.34-1.4 3.39l2.37 3.95-3.54 3.54-3.95-2.38c-1.05.61-2.2 1.09-3.4 1.4L26.5 42h-5l-1.12-4.47c-1.2-.32-2.34-.8-3.39-1.4l-3.95 2.37-3.54-3.54 2.38-3.95a13.92 13.92 0 0 1-1.4-3.4L6 26.5v-5l4.47-1.12c.32-1.2.8-2.34 1.4-3.39L9.5 13.04l3.54-3.54 3.95 2.38c1.05-.61 2.2-1.09 3.4-1.4zM24 31a7 7 0 1 0 0-14 7 7 0 0 0 0 14z" fill="currentColor" fill-rule="evenodd"/></symbol><symbol id="share-circle-fill" viewBox="0 0 48 48"><title>share-circle-fill</title><g fill="none" fill-rule="evenodd"><circle fill="currentColor" cx="12" cy="24" r="7"/><circle fill="currentColor" cx="37.5" cy="10.5" r="5.5"/><circle fill="currentColor" cx="37.5" cy="37.5" r="5.5"/><path d="M12 24l26 13" stroke="currentColor" stroke-width="2"/><path d="M11.5 24.5L37 11" stroke="currentColor" stroke-width="2"/></g></symbol><symbol id="star-fill" viewBox="0 0 48 48"><title>star-fill</title><path d="M24 2l4.87 15H45l-13.01 9.56L37 42l-13-9.56L11 42l5.02-15.44L3 17h16.13z" fill="currentColor" fill-rule="evenodd"/></symbol><symbol id="tag1-fill" viewBox="0 0 48 48"><title>tag1-fill</title><path d="M43 5H26.77L5 26.77 21.23 43 43 21.23V5zm-8.5 11a2.5 2.5 0 1 0 0-5 2.5 2.5 0 0 0 0 5z" fill="currentColor" fill-rule="evenodd"/></symbol><symbol id="tag2-fill" viewBox="0 0 48 48"><title>tag2-fill</title><path d="M13 2h22v44L24 34 13 46z" fill="currentColor" fill-rule="evenodd"/></symbol><symbol id="trash1-fill" viewBox="0 0 48 48"><title>trash1-fill</title><g fill="currentColor" fill-rule="evenodd"><path d="M12 15h24l-1.95 25a3.3 3.3 0 0 1-3.24 3H17.2a3.3 3.3 0 0 1-3.24-3L12 15z"/><path d="M18 10H8v3h32v-3H30V5H18v5zm3-3h6v3h-6V7z"/></g></symbol><symbol id="trash2-fill" viewBox="0 0 48 48"><title>trash2-fill</title><g fill="currentColor" fill-rule="evenodd"><path d="M11 16h26l-.18 24a3.02 3.02 0 0 1-3.02 3H14.2a3.02 3.02 0 0 1-3.02-3L11 16z"/><path d="M18 11H8v3h32v-3H30V6H18v5zm3-3h6v3h-6V8z"/></g></symbol><symbol id="uparrow-fill" viewBox="0 0 48 48"><title>uparrow-fill</title><path d="M24 22l12 12H12z" fill="currentColor" fill-rule="evenodd"/></symbol><symbol id="user1-fill" viewBox="0 0 48 48"><title>user1-fill</title><g fill="currentColor" fill-rule="evenodd"><path d="M43 34.57a29.5 29.5 0 0 0-11.68-5.22A7.5 7.5 0 0 1 17.7 29c-4.88.8-9.25 2.55-12.7 4.97V43h38v-8.43z"/><ellipse cx="8.5" cy="11" rx="8.5" ry="11" transform="translate(16 5)"/></g></symbol><symbol id="user2-fill" viewBox="0 0 48 48"><title>user2-fill</title><g fill="none" fill-rule="evenodd"><use fill="currentColor" xlink:href="#a" transform="translate(5 28)"/><path d="M24.5 27c3.7 0 8.5-5.92 8.5-12S30.2 5 24.5 5 16 8.92 16 15s4.8 12 8.5 12z" fill="currentColor"/></g></symbol><symbol id="user3-fill" viewBox="0 0 48 48"><title>user3-fill</title><g fill="currentColor" fill-rule="evenodd"><path d="M5.8 34.73L18.95 29 24 40.9 29.66 29l12.53 5.73L43 43H5z"/><path d="M16.32 19.02c-.49-.58-.93-1.21-1.32-1.9V14.5a9.5 9.5 0 0 1 19 0v3.11a12.7 12.7 0 0 1-1.61 2.05l-.49-4.34a2.7 2.7 0 0 0-2.2-2.24l-9.93-1.33a2.15 2.15 0 0 0-2.37 1.7l-1.08 5.57z"/></g></symbol><symbol id="volumedown1-fill" viewBox="0 0 48 48"><title>volumedown1-fill</title><g fill="currentColor" fill-rule="evenodd"><path d="M11 20h4l7-7v22l-7-7h-4z"/><path d="M27.5 30.06l-1-1.73a5 5 0 0 0 0-8.66l1-1.73a7 7 0 0 1 0 12.12z"/></g></symbol><symbol id="volumedown2-fill" viewBox="0 0 48 48"><title>volumedown2-fill</title><g fill="none" fill-rule="evenodd"><path d="M11 20h4l7-7v22l-7-7h-4z" fill="currentColor"/><path d="M29 24h12" stroke="currentColor" stroke-width="2"/></g></symbol><symbol id="volumemiddle-fill" viewBox="0 0 48 48"><title>volumemiddle-fill</title><g fill="currentColor" fill-rule="evenodd"><path d="M11 20h4l7-7v22l-7-7h-4z"/><path d="M27.5 30.06l-1-1.73a5 5 0 0 0 0-8.66l1-1.73a7 7 0 0 1 0 12.12z"/><path d="M31 36.13l-1-1.74a12 12 0 0 0 0-20.78l1-1.74a14 14 0 0 1 0 24.26z"/></g></symbol><symbol id="volumeoff-fill" viewBox="0 0 48 48"><title>volumeoff-fill</title><path d="M11 20h4l7-7v22l-7-7h-4z" fill="currentColor" fill-rule="evenodd"/></symbol><symbol id="volumeup1-fill" viewBox="0 0 48 48"><title>volumeup1-fill</title><g fill="currentColor" fill-rule="evenodd"><path d="M11 20h4l7-7v22l-7-7h-4z"/><path d="M27.5 30.06l-1-1.73a5 5 0 0 0 0-8.66l1-1.73a7 7 0 0 1 0 12.12z"/><path d="M31 36.13l-1-1.74a12 12 0 0 0 0-20.78l1-1.74a14 14 0 0 1 0 24.26z"/><path d="M34.5 42.19l-1-1.73a19 19 0 0 0 0-32.92l1-1.73a21 21 0 0 1 0 36.38z"/></g></symbol><symbol id="volumeup2-fill" viewBox="0 0 48 48"><title>volumeup2-fill</title><g fill="none" fill-rule="evenodd"><path d="M35 18v12" stroke="currentColor" stroke-width="2"/><path d="M29 24h12" stroke="currentColor" stroke-width="2"/><path d="M11 20h4l7-7v22l-7-7h-4z" fill="currentColor"/></g></symbol><symbol id="add-circle-line" viewBox="0 0 48 48"><title>add-circle-line</title><g stroke="currentColor" fill="none" fill-rule="evenodd"><circle cx="24" cy="24" r="21.5"/><path d="M13 23.5h22"/><path d="M24.5 13v22"/></g></symbol><symbol id="add-line" viewBox="0 0 48 48"><title>add-line</title><g stroke="currentColor" fill="none" fill-rule="evenodd"><path d="M2 23.5h44"/><path d="M24.5 2v44"/></g></symbol><symbol id="checked-circle-line" viewBox="0 0 48 48"><title>checked-circle-line</title><g stroke="currentColor" fill="none" fill-rule="evenodd"><path d="M12 25l8.33 8L37 17"/><circle cx="24" cy="24" r="21.5"/></g></symbol><symbol id="checked-line" viewBox="0 0 48 48"><title>checked-line</title><path d="M3 25.72L17 39.5l28-31" stroke="currentColor" fill="none" fill-rule="evenodd"/></symbol><symbol id="comment-circle-line" viewBox="0 0 48 48"><title>comment-circle-line</title><path d="M24.55 34.65A13.17 13.17 0 0 1 13 39.42a13.87 13.87 0 0 0 4.94-5.48C10.69 32.16 5.5 27.3 5.5 21.58 5.5 14.36 13.78 8.5 24 8.5s18.5 5.86 18.5 13.08c0 7.09-7.98 12.86-17.95 13.07z" stroke="currentColor" fill="none" fill-rule="evenodd"/></symbol><symbol id="comment-square-line" viewBox="0 0 48 48"><title>comment-square-line</title><path d="M13.29 33.73H39.5a3 3 0 0 0 3-3.01V10.51a3 3 0 0 0-3-3.01h-31a3 3 0 0 0-3 3v31l7.79-7.77z" stroke="currentColor" fill="none" fill-rule="evenodd"/></symbol><symbol id="dislike1-line" viewBox="0 0 48 48"><title>dislike1-line</title><path d="M30.5 26.14v-15.9s-2.23-1.62-5.29-2.22c-3.06-.59-8.53-.73-12.12-.14-3.58.59-2.7 4.67-2.7 4.67s-3.6 1.1-1.4 5.03c-3.25 1.64-1.59 4.3-1.54 4.87-3.75 2.55-1.21 5.5.33 5.5h10.91s.3 1.53-.47 3.35c-.76 1.82-1.41 2.45-1.64 3.99-.6 3.98.83 7.21 2.83 7.21 2.01 0 2.14-4.7 3.45-7.5 1.31-2.79 7.64-8.86 7.64-8.86zm13 1.36h-10v-20h10v20z" stroke="currentColor" fill="none" fill-rule="evenodd"/></symbol><symbol id="downangle135" viewBox="0 0 48 48"><title>downangle135</title><path d="M2 17l22 15 22-15" stroke="currentColor" fill="none" fill-rule="evenodd"/></symbol><symbol id="downangle90" viewBox="0 0 48 48"><title>downangle90</title><path d="M2 13l22 22 22-22" stroke="currentColor" fill="none" fill-rule="evenodd"/></symbol><symbol id="downarrow-line" viewBox="0 0 48 48"><title>downarrow-line</title><g stroke="currentColor" fill="none" fill-rule="evenodd"><path d="M14.5 35.5l10 10 10-10"/><path d="M24.5 2v43"/></g></symbol><symbol id="eye-line" viewBox="0 0 48 48"><title>eye-line</title><g stroke="currentColor" fill="none" fill-rule="evenodd"><path d="M24 10C11.2 10 2.5 24 2.5 24S11.2 38 24 38s21.5-14 21.5-14S36.8 10 24 10z"/><circle cx="24" cy="24" r="7"/></g></symbol><symbol id="fastbackward-line" viewBox="0 0 48 48"><title>fastbackward-line</title><g stroke="currentColor" fill="none" fill-rule="evenodd"><path d="M22.5 6v36l-17-18z"/><path d="M25.5 24l17-18v36z"/></g></symbol><symbol id="fastforward-line" viewBox="0 0 48 48"><title>fastforward-line</title><g stroke="currentColor" fill="none" fill-rule="evenodd"><path d="M5.5 6v36l17-18z"/><path d="M25.5 6v36l17-18z"/></g></symbol><symbol id="forward-line" viewBox="0 0 48 48"><title>forward-line</title><path d="M32.7 9L45 21.7 32.7 34.37v-5.92S2 22.16 2 40c0-27.08 30.7-25.08 30.7-25.08V9z" stroke="currentColor" fill="none" fill-rule="evenodd"/></symbol><symbol id="grid-circle-line" viewBox="0 0 48 48"><title>grid-circle-line</title><g stroke="currentColor" fill="none" fill-rule="evenodd"><circle cx="9.5" cy="9.5" r="4"/><circle cx="24" cy="9.5" r="4"/><circle cx="38.5" cy="9.5" r="4"/><circle cx="9.5" cy="24" r="4"/><circle cx="24" cy="24" r="4"/><circle cx="38.5" cy="24" r="4"/><circle cx="9.5" cy="38.5" r="4"/><circle cx="24" cy="38.5" r="4"/><circle cx="38.5" cy="38.5" r="4"/></g></symbol><symbol id="grid-rect-line" viewBox="0 0 48 48"><title>grid-rect-line</title><g stroke="currentColor" fill="none" fill-rule="evenodd"><path d="M5.5 5.5h8v8h-8z"/><path d="M20 5.5h8v8h-8z"/><path d="M34.5 5.5h8v8h-8z"/><path d="M5.5 20h8v8h-8z"/><path d="M20 20h8v8h-8z"/><path d="M34.5 20h8v8h-8z"/><path d="M5.5 34.5h8v8h-8z"/><path d="M20 34.5h8v8h-8z"/><path d="M34.5 34.5h8v8h-8z"/></g></symbol><symbol id="heart-line" viewBox="0 0 48 48"><title>heart-line</title><path d="M40.46 28.86L24 46 7.54 28.86a12.7 12.7 0 0 1-4.04-9.35C3.5 12.6 8.88 7 15.52 7c3.3 0 6.3 1.4 8.48 3.65A11.75 11.75 0 0 1 32.48 7c6.64 0 12.02 5.6 12.02 12.5a12.7 12.7 0 0 1-4.04 9.36z" stroke="currentColor" fill="none" fill-rule="evenodd"/></symbol><symbol id="heart-round-line" viewBox="0 0 48 48"><title>heart-round-line</title><path d="M24.68 12.07C30.43 3.6 42.93 7.83 43.9 17.2c1.04 10.12-6 13.99-17.55 24.82a3.89 3.89 0 0 1-5.45 0C9.62 31.2 3.08 27.33 4.1 17.2c.98-9.53 13.93-13.31 19.07-5.14.36.56 1.13.56 1.51 0z" stroke="currentColor" fill="none" fill-rule="evenodd"/></symbol><symbol id="home-line" viewBox="0 0 48 48"><title>home-line</title><g stroke="currentColor" fill="none" fill-rule="evenodd"><path d="M5 20.38L24 5l19 15.38"/><path d="M10.5 22.5v20h10v-9.82h7v9.82h10v-20"/><path d="M37.5 16v-5"/></g></symbol><symbol id="leftangle135" viewBox="0 0 48 48"><title>leftangle135</title><path d="M32 2L17 24l15 22" stroke="currentColor" fill="none" fill-rule="evenodd"/></symbol><symbol id="leftangle90" viewBox="0 0 48 48"><title>leftangle90</title><path d="M35 2L13 24l22 22" stroke="currentColor" fill="none" fill-rule="evenodd"/></symbol><symbol id="leftarrow-line" viewBox="0 0 48 48"><title>leftarrow-line</title><g stroke="currentColor" fill="none" fill-rule="evenodd"><path d="M3 24.5h43"/><path d="M12.5 14.5l-10 10 10 10"/></g></symbol><symbol id="like1-line" viewBox="0 0 48 48"><title>like1-line</title><path d="M17.5 23.36v15.9s2.23 1.62 5.29 2.22c3.06.59 8.53.73 12.12.14 3.58-.59 2.7-4.67 2.7-4.67s3.6-1.1 1.4-5.03c3.25-1.64 1.59-4.3 1.54-4.87 3.75-2.55 1.21-5.5-.33-5.5H29.31s-.3-1.53.47-3.35c.76-1.82 1.41-2.45 1.64-3.99.6-3.98-.83-7.21-2.83-7.21-2.01 0-2.14 4.7-3.45 7.5-1.31 2.79-7.64 8.86-7.64 8.86zM5.5 22h10v20h-10V22z" stroke="currentColor" fill="none" fill-rule="evenodd"/></symbol><symbol id="menu-circle-line-horizontal" viewBox="0 0 48 48"><title>menu-circle-line-horizontal</title><g stroke="currentColor" fill="none" fill-rule="evenodd"><circle cx="9.5" cy="24.5" r="4"/><circle cx="24" cy="24.5" r="4"/><circle cx="38.5" cy="24.5" r="4"/></g></symbol><symbol id="menu-circle-line-vertical" viewBox="0 0 48 48"><title>menu-circle-line-vertical</title><g stroke="currentColor" fill="none" fill-rule="evenodd"><circle cx="24.5" cy="9.5" r="4"/><circle cx="24.5" cy="24" r="4"/><circle cx="24.5" cy="38.5" r="4"/></g></symbol><symbol id="menu-rect-line-horizontal" viewBox="0 0 48 48"><title>menu-rect-line-horizontal</title><g stroke="currentColor" fill="none" fill-rule="evenodd"><path d="M5.5 20.5h8v8h-8z"/><path d="M20 20.5h8v8h-8z"/><path d="M34.5 20.5h8v8h-8z"/></g></symbol><symbol id="menu-rect-line-vertical" viewBox="0 0 48 48"><title>menu-rect-line-vertical</title><g stroke="currentColor" fill="none" fill-rule="evenodd"><path d="M20.5 5.5h8v8h-8z"/><path d="M20.5 20h8v8h-8z"/><path d="M20.5 34.5h8v8h-8z"/></g></symbol><symbol id="menu1-line" viewBox="0 0 48 48"><title>menu1-line</title><g stroke="currentColor" fill="none" fill-rule="evenodd" stroke-linecap="square"><path d="M2.5 11.5h43"/><path d="M2.5 24.5h43"/><path d="M2.5 37.5h43"/></g></symbol><symbol id="notification-line" viewBox="0 0 48 48"><title>notification-line</title><g stroke="currentColor" fill="none" fill-rule="evenodd"><path d="M22 9.58c-4 1.15-7 5.7-7 11.12v4.86a11.14 11.14 0 0 1-4.44 7.94h26.9a11.13 11.13 0 0 1-4.44-8H33v-4.8c0-5.43-3-9.97-7-11.12V7.5a2 2 0 0 0-4 0v2.1z"/><path d="M28.47 36.5a4.5 4.5 0 1 1-8.95 0h8.95z"/></g></symbol><symbol id="notification-off-line" viewBox="0 0 48 48"><title>notification-off-line</title><g fill="none" fill-rule="evenodd"><g stroke="currentColor"><path d="M22 9.58c-4 1.15-7 5.7-7 11.12v4.86a11.14 11.14 0 0 1-4.44 7.94h26.9a11.13 11.13 0 0 1-4.44-8H33v-4.8c0-5.43-3-9.97-7-11.12V7.5a2 2 0 0 0-4 0v2.1z"/><path d="M28.47 36.5a4.5 4.5 0 1 1-8.95 0h8.95z"/></g><g stroke-linecap="square"><path d="M11.86 9.56l27.58 27.58" stroke="currentColor"/><path d="M12.56 8.86l27.58 27.58" stroke="#FFF"/></g></g></symbol><symbol id="pause-line" viewBox="0 0 48 48"><title>pause-line</title><g stroke="currentColor" fill="none" fill-rule="evenodd"><path d="M5.5 5.5h12v37h-12z"/><path d="M30.5 5.5h12v37h-12z"/></g></symbol><symbol id="photogallery-line" viewBox="0 0 48 48"><title>photogallery-line</title><g stroke="currentColor" fill="none" fill-rule="evenodd"><path d="M5.5 10.5h32v32h-32z"/><path d="M10.5 5.5h32v32"/></g></symbol><symbol id="pin1-line" viewBox="0 0 48 48"><title>pin1-line</title><g stroke="currentColor" fill="none" fill-rule="evenodd"><path d="M24 45.5s14.5-20.13 14.5-28.82C38.5 8.85 32 2.5 24 2.5S9.5 8.85 9.5 16.68C9.5 25.83 24 45.5 24 45.5z"/><ellipse cx="24.5" cy="17.5" rx="6.5" ry="6.5"/></g></symbol><symbol id="pin2-line" viewBox="0 0 48 48"><title>pin2-line</title><g stroke="currentColor" fill="none" fill-rule="evenodd"><path d="M31.46 2.5c-.23 1.32-1.35 2.47-2.96 3.2v10.63a10 10 0 0 1 6 9.17h-20a10 10 0 0 1 6-9.17V5.7c-1.61-.72-2.73-1.87-2.96-3.19h13.92z"/><path d="M24.5 27.5v18" stroke-linecap="square"/></g></symbol><symbol id="play-circle-line" viewBox="0 0 48 48"><title>play-circle-line</title><g stroke="currentColor" fill="none" fill-rule="evenodd"><circle cx="24" cy="24" r="21.5"/><path d="M17 11v27l18.5-13.5z"/></g></symbol><symbol id="playarrow-line" viewBox="0 0 48 48"><title>playarrow-line</title><path d="M8.5 3l31 21-31 21z" stroke="currentColor" fill="none" fill-rule="evenodd"/></symbol><symbol id="playnext-line" viewBox="0 0 48 48"><title>playnext-line</title><g stroke="currentColor" fill="none" fill-rule="evenodd"><path d="M5.5 5.5L30 24 5.5 42.5z"/><path d="M35.5 5.5h7v37h-7z"/></g></symbol><symbol id="playprev-line" viewBox="0 0 48 48"><title>playprev-line</title><g stroke="currentColor" fill="none" fill-rule="evenodd"><path d="M42.5 5.5L18 23.6l24.5 18.9z"/><path d="M5.5 5.5h7v37h-7z"/></g></symbol><symbol id="remove-circle-line" viewBox="0 0 48 48"><title>remove-circle-line</title><g stroke="currentColor" fill="none" fill-rule="evenodd"><circle cx="24" cy="24" r="21.5"/><path d="M13 23.5h22"/></g></symbol><symbol id="remove-line" viewBox="0 0 48 48"><title>remove-line</title><path d="M2 23.5h44" stroke="currentColor" fill="none" fill-rule="evenodd"/></symbol><symbol id="rightangle135" viewBox="0 0 48 48"><title>rightangle135</title><path d="M17 2l15 22-15 22" stroke="currentColor" fill="none" fill-rule="evenodd"/></symbol><symbol id="rightangle90" viewBox="0 0 48 48"><title>rightangle90</title><path d="M13 2l22 22-22 22" stroke="currentColor" fill="none" fill-rule="evenodd"/></symbol><symbol id="rightarrow-line" viewBox="0 0 48 48"><title>rightarrow-line</title><g stroke="currentColor" fill="none" fill-rule="evenodd"><path d="M35.5 14.5l10 10-10 10"/><path d="M2 24.5h43"/></g></symbol><symbol id="search-lg-line" viewBox="0 0 48 48"><title>search-lg-line</title><g stroke="currentColor" fill="none" fill-rule="evenodd"><path d="M30.18 30.18l9.76 9.76"/><circle cx="19.5" cy="19.5" r="15"/></g></symbol><symbol id="search-md-line" viewBox="0 0 48 48"><title>search-md-line</title><g stroke="currentColor" fill="none" fill-rule="evenodd"><path d="M28.18 28.18l11.76 11.76"/><circle cx="18.5" cy="18.5" r="14"/></g></symbol><symbol id="search-sm-line" viewBox="0 0 48 48"><title>search-sm-line</title><g stroke="currentColor" fill="none" fill-rule="evenodd"><path d="M25.18 25.18l14.76 14.76"/><circle cx="16.5" cy="16.5" r="12"/></g></symbol><symbol id="send-line" viewBox="0 0 48 48"><title>send-line</title><g stroke="currentColor" fill="none" fill-rule="evenodd"><path d="M5.5 32v10.5h37V32"/><path d="M16 32L39 9"/><path d="M29 8.5h10.5V19"/></g></symbol><symbol id="setting-line" viewBox="0 0 48 48"><title>setting-line</title><path d="M20.38 10.47L21.5 6h5l1.12 4.47c1.2.32 2.34.8 3.39 1.4l3.95-2.37 3.54 3.54-2.38 3.95c.61 1.05 1.09 2.2 1.4 3.4L42 21.5v5l-4.47 1.12c-.32 1.2-.8 2.34-1.4 3.39l2.37 3.95-3.54 3.54-3.95-2.38c-1.05.61-2.2 1.09-3.4 1.4L26.5 42h-5l-1.12-4.47c-1.2-.32-2.34-.8-3.39-1.4l-3.95 2.37-3.54-3.54 2.38-3.95a13.92 13.92 0 0 1-1.4-3.4L6 26.5v-5l4.47-1.12c.32-1.2.8-2.34 1.4-3.39L9.5 13.04l3.54-3.54 3.95 2.38c1.05-.61 2.2-1.09 3.4-1.4zM24 31a7 7 0 1 0 0-14 7 7 0 0 0 0 14z" stroke="currentColor" fill="none" fill-rule="evenodd"/></symbol><symbol id="share-circle-line" viewBox="0 0 48 48"><title>share-circle-line</title><g stroke="currentColor" fill="none" fill-rule="evenodd"><circle cx="12.5" cy="24" r="7"/><circle cx="37" cy="11" r="5.5"/><circle cx="37" cy="37" r="5.5"/><path d="M18.5 21l14-7.5"/><path d="M18.5 27.5l13.93 7.24"/></g></symbol><symbol id="star-line" viewBox="0 0 48 48"><title>star-line</title><path d="M24 2l4.87 15H45l-13.01 9.56L37 42l-13-9.56L11 42l5.02-15.44L3 17h16.13z" stroke="currentColor" fill="none" fill-rule="evenodd"/></symbol><symbol id="tag1-line" viewBox="0 0 48 48"><title>tag1-line</title><g stroke="currentColor" fill="none" fill-rule="evenodd"><path d="M42 5.5H26.86L5.5 26.86 20.64 42 42 20.64z"/><circle cx="34.5" cy="12.5" r="3"/></g></symbol><symbol id="tag2-line" viewBox="0 0 48 48"><title>tag2-line</title><path d="M13.5 2.5h21v43L24 35.33 13.5 45.5z" stroke="currentColor" fill="none" fill-rule="evenodd"/></symbol><symbol id="trash1-line" viewBox="0 0 48 48"><title>trash1-line</title><g stroke="currentColor" fill="none" fill-rule="evenodd"><path d="M8.5 12.5h31" stroke-linecap="square"/><path d="M19.5 12.5v-6h9v6"/><path d="M12.5 15.57l1.78 23.95a3.27 3.27 0 0 0 3.22 2.98h13c1.66 0 3.1-1.34 3.22-3l1.78-24"/></g></symbol><symbol id="trash2-line" viewBox="0 0 48 48"><title>trash2-line</title><g stroke="currentColor" fill="none" fill-rule="evenodd"><path d="M8.5 13.5h31" stroke-linecap="square"/><path d="M19.5 13.5v-6h9v6"/><path d="M11.5 16.5v23a3 3 0 0 0 3 3h19a3 3 0 0 0 3-3v-23"/></g></symbol><symbol id="unchecked-circle-line" viewBox="0 0 48 48"><title>unchecked-circle-line</title><g stroke="currentColor" fill="none" fill-rule="evenodd"><path d="M15.5 15.5l17 17"/><path d="M32.5 15.5l-17 17"/><circle cx="24" cy="24" r="21.5"/></g></symbol><symbol id="unchecked-line" viewBox="0 0 48 48"><title>unchecked-line</title><g stroke="currentColor" fill="none" fill-rule="evenodd"><path d="M6 6l36 36"/><path d="M6 42L42 6"/></g></symbol><symbol id="upangle135" viewBox="0 0 48 48"><title>upangle135</title><path d="M2 32l22-15 22 15" stroke="currentColor" fill="none" fill-rule="evenodd"/></symbol><symbol id="upangle90" viewBox="0 0 48 48"><title>upangle90</title><path d="M2 35l22-22 22 22" stroke="currentColor" fill="none" fill-rule="evenodd"/></symbol><symbol id="uparrow-line" viewBox="0 0 48 48"><title>uparrow-line</title><g stroke="currentColor" fill="none" fill-rule="evenodd"><path d="M24.5 46V3"/><path d="M14.5 12.5l10-10 10 10"/></g></symbol><symbol id="user1-line" viewBox="0 0 48 48"><title>user1-line</title><g stroke="currentColor" fill="none" fill-rule="evenodd"><path d="M43.5 35.07a29.5 29.5 0 0 0-11.68-5.22 7.5 7.5 0 0 1-13.62-.35c-4.88.8-9.25 2.55-12.7 4.97v9.03h38v-8.43z"/><ellipse cx="9" cy="11.5" rx="8.5" ry="11" transform="translate(15.5 5)"/></g></symbol><symbol id="user2-line" viewBox="0 0 48 48"><title>user2-line</title><g fill="none" fill-rule="evenodd"><use stroke="currentColor" xlink:href="#a" transform="translate(4.5 28.5)"/><path d="M24.5 27.52c3.7 0 8.53-5.94 8.53-12.02 0-6.09-2.82-10.02-8.53-10.02-5.71 0-8.53 3.93-8.53 10.02 0 6.08 4.82 12.02 8.53 12.02z" stroke="currentColor"/></g></symbol><symbol id="user3-line" viewBox="0 0 48 48"><title>user3-line</title><g stroke="currentColor" fill="none" fill-rule="evenodd"><path d="M6.3 35.23l13.14-5.73 5.06 11.9 5.66-11.9 12.53 5.73.81 8.27h-38z"/><path d="M16.32 19.52c-.49-.58-.93-1.21-1.32-1.9V15a9.5 9.5 0 0 1 19 0v3.11a12.7 12.7 0 0 1-1.61 2.05l-.49-4.34a2.7 2.7 0 0 0-2.2-2.24l-9.93-1.33a2.15 2.15 0 0 0-2.37 1.7l-1.08 5.57z"/></g></symbol><symbol id="volumedown1-line" viewBox="0 0 48 48"><title>volumedown1-line</title><g stroke="currentColor" fill="none" fill-rule="evenodd"><path d="M11.5 20.5h4l7-7v22l-7-7h-4z"/><path d="M27 18.8a6 6 0 0 1 0 10.4"/></g></symbol><symbol id="volumedown2-line" viewBox="0 0 48 48"><title>volumedown2-line</title><g stroke="currentColor" fill="none" fill-rule="evenodd"><path d="M28.5 23.5h12"/><path d="M11.5 20.5h4l7-7v22l-7-7h-4z"/></g></symbol><symbol id="volumemiddle-line" viewBox="0 0 48 48"><title>volumemiddle-line</title><g stroke="currentColor" fill="none" fill-rule="evenodd"><path d="M11.5 20.5h4l7-7v22l-7-7h-4z"/><path d="M30.5 12.74a13 13 0 0 1 0 22.52"/><path d="M27 18.8a6 6 0 0 1 0 10.4"/></g></symbol><symbol id="volumeoff-line" viewBox="0 0 48 48"><title>volumeoff-line</title><path d="M11.5 20.5h4l7-7v22l-7-7h-4z" stroke="currentColor" fill="none" fill-rule="evenodd"/></symbol><symbol id="volumeup1-line" viewBox="0 0 48 48"><title>volumeup1-line</title><g stroke="currentColor" fill="none" fill-rule="evenodd"><path d="M11.5 20.5h4l7-7v22l-7-7h-4z"/><path d="M34 6.68a20 20 0 0 1 0 34.64"/><path d="M30.5 12.74a13 13 0 0 1 0 22.52"/><path d="M27 18.8a6 6 0 0 1 0 10.4"/></g></symbol><symbol id="volumeup2-line" viewBox="0 0 48 48"><title>volumeup2-line</title><g stroke="currentColor" fill="none" fill-rule="evenodd"><path d="M34.5 17.5v12"/><path d="M28.5 23.5h12"/><path d="M11.5 20.5h4l7-7v22l-7-7h-4z"/></g></symbol></svg>