<svg width="48" height="48" viewBox="0 0 48 48" xmlns="http://www.w3.org/2000/svg"><title>dislike-line1</title><path d="M30.5 26.14S24.17 32.2 22.86 35c-1.31 2.79-1.44 7.49-3.45 7.49-2 0-3.43-3.23-2.83-7.21.23-1.54.88-2.17 1.64-3.99.77-1.82.47-3.36.47-3.36H7.78c-1.54 0-4.08-2.94-.33-5.5-.05-.56-1.7-3.22 1.54-4.86-2.2-3.93 1.4-5.03 1.4-5.03s-.88-4.08 2.7-4.67c3.6-.6 9.06-.45 12.12.14a14.8 14.8 0 0 1 5.29 2.22v15.9zm13 1.36h-10v-20h10v20z" stroke="currentColor" fill="none" fill-rule="evenodd"/></svg>