<svg width="48" height="48" viewBox="0 0 48 48" xmlns="http://www.w3.org/2000/svg"><title>dislike3-fill</title><g fill="currentColor" fill-rule="evenodd"><path d="M32 26.4c-5 3.7-9.5 16.2-9.5 16.2s.8 4.4-.7 4.4c-2.9 0-8-1.5-4.3-11 2.9-8 0-7.4 0-7.4s-11 3-13.9 0c-2.1-2.2-1.4-4.4-.7-5.8 0 0-3.6-3.7 0-7.4 0 0-2.2-4.4 2.2-7.3 0 0-2.2-5.2 5.8-6.6 0 0 13.8-1.5 21.1.7l4.4 18.4c-3 1.4-3 4.4-4.4 5.8z"/><path d="M37.8 19L34.2 3.8s0-1.5 2.2-1.5h10.1C48 2.2 48 3.7 48 3.7L46.5 19c0 1.5-1.4 1.5-1.4 1.5h-5.8c-1.5 0-1.5-1.5-1.5-1.5zm1.5-15.3c-1.2 0-2.2 1-2.2 2.2C37 7 38 8 39.3 8c1.2 0 2.2-1 2.2-2.2 0-1.2-1-2.2-2.2-2.2z"/></g></svg>