<svg width="48" height="48" viewbox="0 0 48 48" xmlns="http://www.w3.org/2000/svg"><title>user1-fill</title><g fill="currentColor" fill-rule="evenodd"><path d="M24.5 34.6c2.1 0 10-1.4 10.7-17.7 2.1-9.1-1.5-11.3-2.9-11.3-.7-2.8-4.2-4.9-7-4.2-3 .7-9.3 0-9.3 0-.8 1.4.7 2.8.7 2.8-5 2.9-3.6 10-2.9 12.7 0 16.3 8.6 17.7 10.7 17.7zm-7.1-21.9c2.1.7 1.4 2.1 8.5-.7 10.7-4.2 8.6 20.5-1.4 20.5s-10-19-7.1-19.8z"/><path d="M33.8 32.5s-3.6 5-9.3 5c-5.7 0-10-5-10-5L6 38S8.8 48 24.5 48 43 38 43 38l-9.3-5.6z"/></g></svg>