<svg width="48" height="48" viewBox="0 0 48 48" xmlns="http://www.w3.org/2000/svg"><title>dislike1-line</title><g stroke="currentColor" fill="none" fill-rule="evenodd" stroke-linecap="square"><path d="M47.5 26h-16V1h16z"/><ellipse transform="rotate(180 39.59 9.063)" cx="39.591" cy="9.063" rx="2.909" ry="2.938"/><path d="M31.5 4.4S29.1 3 26.2 3h-19s-5 1.5-2.8 6c0 0-4.4 2.1-1.5 5.8 0 0-3.6 3.7 0 6.6 0 0-3.6 5.9 2.2 6.6h8s2.9-.7 0 3c-8.7 8 1.4 20.5 2.9 11.7 1.5-5.9 4.3-7.6 7.3-10.3 4.2-3.8 6.2-8.8 8.2-8.8v-19z"/></g></svg>