<svg width="34" height="34" viewBox="0 0 34 34" xmlns="http://www.w3.org/2000/svg"><title>grid-circle-line</title><path d="M4 7.5a3.5 3.5 0 1 0 0-7 3.5 3.5 0 0 0 0 7zm0 13a3.5 3.5 0 1 0 0-7 3.5 3.5 0 0 0 0 7zm13-13a3.5 3.5 0 1 0 0-7 3.5 3.5 0 0 0 0 7zm0 13a3.5 3.5 0 1 0 0-7 3.5 3.5 0 0 0 0 7zm13-13a3.5 3.5 0 1 0 0-7 3.5 3.5 0 0 0 0 7zm0 13a3.5 3.5 0 1 0 0-7 3.5 3.5 0 0 0 0 7zm-26 13a3.5 3.5 0 1 0 0-7 3.5 3.5 0 0 0 0 7zm13 0a3.5 3.5 0 1 0 0-7 3.5 3.5 0 0 0 0 7zm13 0a3.5 3.5 0 1 0 0-7 3.5 3.5 0 0 0 0 7z" stroke="currentColor" fill="none" fill-rule="evenodd"/></svg>