<svg width="33" height="33" viewBox="0 0 33 33" xmlns="http://www.w3.org/2000/svg"><title>grid-circle-fill</title><path d="M3.5 7a3.5 3.5 0 1 0 0-7 3.5 3.5 0 0 0 0 7zm0 13a3.5 3.5 0 1 0 0-7 3.5 3.5 0 0 0 0 7zm13-13a3.5 3.5 0 1 0 0-7 3.5 3.5 0 0 0 0 7zm0 13a3.5 3.5 0 1 0 0-7 3.5 3.5 0 0 0 0 7zm13-13a3.5 3.5 0 1 0 0-7 3.5 3.5 0 0 0 0 7zm0 13a3.5 3.5 0 1 0 0-7 3.5 3.5 0 0 0 0 7zm-26 13a3.5 3.5 0 1 0 0-7 3.5 3.5 0 0 0 0 7zm13 0a3.5 3.5 0 1 0 0-7 3.5 3.5 0 0 0 0 7zm13 0a3.5 3.5 0 1 0 0-7 3.5 3.5 0 0 0 0 7z" fill="currentColor" fill-rule="evenodd"/></svg>