<svg width="33" height="33" viewBox="0 0 33 33" xmlns="http://www.w3.org/2000/svg"><title>like3-line</title><g stroke="currentColor" fill="none" fill-rule="evenodd"><path d="M11.5 14.5C15 12 18 3.5 18 3.5s-.5-3 .5-3c2 0 5.5 1 3 7.5-2 5.5 0 5 0 5s7.5-2 9.5 0 .5 4 .5 4c2.5 2.5 0 5 0 5 2.5 3.5-1.5 5-1.5 5s2.5 3.5-4 4.5c0 0-9.5 1-14.5-.5l-3-12.5c2-1 2-3 3-4z" stroke-linecap="square"/><path d="M6.5 19.5L9 30s.5 1.5-1.5 1.5h-6C0 31.5.5 30 .5 30l1-10.5c0-1 1-1 1-1h3c1 0 1 1 1 1z" stroke-linecap="square"/><circle cx="5" cy="28" r="1.5"/></g></svg>