<svg width="48" height="48" viewBox="0 0 48 48" xmlns="http://www.w3.org/2000/svg"><title>like3-line</title><g stroke="currentColor" fill="none" fill-rule="evenodd"><path d="M16.4 20.8c5-3.6 9.2-15.8 9.2-15.8S25 .7 26.3.7c2.9 0 7.9 1.5 4.3 10.8-2.8 8 0 7.2 0 7.2s10.7-2.9 13.6 0c2.8 2.9.7 5.7.7 5.7 3.5 3.6 0 7.2 0 7.2 3.5 5-2.2 7.2-2.2 7.2s3.6 5-5.7 6.5c0 0-13.5 1.4-20.6-.7l-4.3-18c2.9-1.4 2.9-4.3 4.3-5.8z" stroke-linecap="square"/><path d="M9.3 28l3.5 15.1s.7 2.2-2.1 2.2H2C0 45.3.7 43 .7 43l1.4-15c0-1.5 1.5-1.5 1.5-1.5h4.2c1.5 0 1.5 1.4 1.5 1.4z" stroke-linecap="square"/><ellipse cx="7.121" cy="40.25" rx="2.136" ry="2.156"/></g></svg>