<svg width="48" height="48" viewBox="0 0 48 48" xmlns="http://www.w3.org/2000/svg"><title>dislike3-fill</title><g fill="currentColor" fill-rule="evenodd"><path d="M32 26.44c-5.1 3.67-9.45 16.15-9.45 16.15s.72 4.41-.73 4.41c-2.91 0-8-1.47-4.37-11.02 2.91-8.07 0-7.34 0-7.34s-10.9 2.94-13.81 0c-2.19-2.2-1.46-4.4-.73-5.87 0 0-3.64-3.68 0-7.35 0 0-2.18-4.4 2.18-7.34 0 0-2.18-5.14 5.82-6.61 0 0 13.82-1.47 21.09.73 0 0 4.3 18.36 4.36 18.36-2.9 1.47-2.9 4.4-4.36 5.88z"/><path d="M37.82 19.1L34.18 3.66s0-1.47 2.18-1.47h10.19C48 2.2 48 3.67 48 3.67L46.55 19.1c0 1.47-1.46 1.47-1.46 1.47h-5.82c-1.45 0-1.45-1.47-1.45-1.47zm1.45-15.43a2.2 2.2 0 0 0-2.18 2.2c0 1.22.98 2.2 2.18 2.2a2.2 2.2 0 0 0 2.18-2.2 2.2 2.2 0 0 0-2.18-2.2z"/></g></svg>