<svg width="48" height="48" viewBox="0 0 48 48" xmlns="http://www.w3.org/2000/svg"><title>grid-circle-fill</title><path d="M9.5 14a4.5 4.5 0 1 0 0-9 4.5 4.5 0 0 0 0 9zm0 15a4.5 4.5 0 1 0 0-9 4.5 4.5 0 0 0 0 9zm15-15a4.5 4.5 0 1 0 0-9 4.5 4.5 0 0 0 0 9zm0 15a4.5 4.5 0 1 0 0-9 4.5 4.5 0 0 0 0 9zm14-15a4.5 4.5 0 1 0 0-9 4.5 4.5 0 0 0 0 9zm0 15a4.5 4.5 0 1 0 0-9 4.5 4.5 0 0 0 0 9zm-29 14a4.5 4.5 0 1 0 0-9 4.5 4.5 0 0 0 0 9zm15 0a4.5 4.5 0 1 0 0-9 4.5 4.5 0 0 0 0 9zm14 0a4.5 4.5 0 1 0 0-9 4.5 4.5 0 0 0 0 9z" fill="currentColor" fill-rule="evenodd"/></svg>