<svg width="48" height="48" viewBox="0 0 48 48" xmlns="http://www.w3.org/2000/svg"><title>like3-fill</title><g fill="currentColor" fill-rule="evenodd"><path d="M16 20.56c5.1-3.67 9.45-16.15 9.45-16.15S24.73 0 26.18 0c2.91 0 8 1.47 4.37 11.02-2.91 8.07 0 7.34 0 7.34s10.9-2.94 13.81 0c2.19 2.2 1.46 4.4.73 5.87 0 0 3.64 3.68 0 7.35 0 0 2.18 4.4-2.18 7.34 0 0 2.18 5.14-5.82 6.61 0 0-13.82 1.47-21.09-.73 0 0-4.3-18.36-4.36-18.36 2.9-1.47 2.9-4.4 4.36-5.88z"/><path d="M10.18 27.9l3.64 15.43s0 1.47-2.18 1.47H1.45C0 44.8 0 43.33 0 43.33L1.45 27.9c0-1.47 1.46-1.47 1.46-1.47h5.82c1.45 0 1.45 1.47 1.45 1.47zM8.73 43.34a2.2 2.2 0 0 0 2.18-2.2 2.2 2.2 0 0 0-2.18-2.2 2.2 2.2 0 0 0-2.18 2.2c0 1.21.97 2.2 2.18 2.2z"/></g></svg>