<svg width="48" height="48" viewBox="0 0 48 48" xmlns="http://www.w3.org/2000/svg"><title>notification-off-fill</title><g fill="none" fill-rule="evenodd"><g fill="currentColor"><path d="M21.5 9.38C17.19 10.7 14 15.4 14 21v4h-.01l.01.5c0 3.8-2.04 7.2-5.25 9.5h30.5C36.04 32.7 34 29.3 34 25.5l.01-.5H34v-4c0-5.6-3.19-10.29-7.5-11.62V7.5a2.5 2.5 0 0 0-5 0v1.88z"/><path d="M28.47 37a4.5 4.5 0 1 1-8.95 0h8.95z"/></g><path fill="currentColor" d="M11.44 9.44l27.58 27.58-2.12 2.12L9.32 11.57z"/><path fill="#FFF" d="M13.56 7.32L41.14 34.9l-2.12 2.12L11.44 9.44z"/></g></svg>