<svg width="48" height="48" viewBox="0 0 48 48" xmlns="http://www.w3.org/2000/svg"><title>setting-fill</title><path d="M20.38 10.47L21.5 6h5l1.12 4.47c1.2.32 2.34.8 3.39 1.4l3.95-2.37 3.54 3.54-2.38 3.95c.61 1.05 1.09 2.2 1.4 3.4L42 21.5v5l-4.47 1.12c-.32 1.2-.8 2.34-1.4 3.39l2.37 3.95-3.54 3.54-3.95-2.38c-1.05.61-2.2 1.09-3.4 1.4L26.5 42h-5l-1.12-4.47c-1.2-.32-2.34-.8-3.39-1.4l-3.95 2.37-3.54-3.54 2.38-3.95a13.92 13.92 0 0 1-1.4-3.4L6 26.5v-5l4.47-1.12c.32-1.2.8-2.34 1.4-3.39L9.5 13.04l3.54-3.54 3.95 2.38c1.05-.61 2.2-1.09 3.4-1.4zM24 31a7 7 0 1 0 0-14 7 7 0 0 0 0 14z" fill="currentColor" fill-rule="evenodd"/></svg>