<svg width="48" height="48" viewBox="0 0 48 48" xmlns="http://www.w3.org/2000/svg"><title>user1-fill</title><g fill="currentColor" fill-rule="evenodd"><path d="M24.5 34.59c2.13 0 9.96-1.41 10.67-17.65 2.14-9.18-1.42-11.3-2.84-11.3-.71-2.82-4.27-4.93-7.12-4.23-2.84.7-9.25 0-9.25 0-.71 1.41.71 2.83.71 2.83-4.98 2.82-3.55 9.88-2.84 12.7 0 16.24 8.54 17.65 10.67 17.65zM17.38 12.7c2.14.7 1.43 2.11 8.54-.71 10.68-4.23 8.54 20.47-1.42 20.47-9.96 0-9.96-19.06-7.12-19.76z"/><path d="M33.75 32.47s-3.56 4.94-9.25 4.94c-5.7 0-9.96-4.94-9.96-4.94L6 38.11S8.85 48 24.5 48 43 38.12 43 38.12l-9.25-5.65z"/></g></svg>