<svg width="48" height="48" viewBox="0 0 48 48" xmlns="http://www.w3.org/2000/svg"><title>user1-fill</title><g fill="none" fill-rule="evenodd"><path fill="#FFF" d="M0 0h48v48H0z"/><circle stroke="#BD0FE1" stroke-width=".02" cx="24" cy="24" r="22"/><circle stroke="#BD0FE1" stroke-width=".02" cx="24" cy="24" r="10"/><rect stroke="#BD0FE1" stroke-width=".02" x="2" y="8" width="44" height="32" rx="3"/><rect stroke="#BD0FE1" stroke-width=".02" transform="rotate(90 24 24)" x="2" y="8" width="44" height="32" rx="3"/><rect stroke="#BD0FE1" stroke-width=".02" x="5" y="5" width="38" height="38" rx="3"/><g fill="currentColor"><path d="M43 34.57a29.5 29.5 0 0 0-11.68-5.22A7.5 7.5 0 0 1 17.7 29c-4.88.8-9.25 2.55-12.7 4.97V43h38v-8.43z"/></g><g transform="translate(16 5)" fill="currentColor"><ellipse cx="8.5" cy="11" rx="8.5" ry="11"/></g></g></svg>