<svg width="48" height="48" viewBox="0 0 48 48" xmlns="http://www.w3.org/2000/svg" xmlns:xlink="http://www.w3.org/1999/xlink"><title>user2-fill</title><defs><path d="M.02 14a19.31 19.31 0 0 1 1.44-8.27A26.91 26.91 0 0 1 12.19 0c.77 2.89 3.75 5.04 7.31 5.04 3.56 0 6.54-2.15 7.3-5.04 3.38.91 6.47 2.43 9.14 4.43A18.92 18.92 0 0 1 37.98 14H.02z" id="a"/></defs><g fill="none" fill-rule="evenodd"><use fill="currentColor" xlink:href="#a" transform="translate(5 28)"/><path d="M24.5 27c3.7 0 8.5-5.92 8.5-12S30.2 5 24.5 5 16 8.92 16 15s4.8 12 8.5 12z" fill="currentColor"/></g></svg>