<svg width="48" height="48" viewBox="0 0 48 48" xmlns="http://www.w3.org/2000/svg"><title>volumeup1-fill</title><g fill="currentColor" fill-rule="evenodd"><path d="M2 18h13l8-8v28l-8-8H2z"/><path d="M27.44 29.41l1.68 1.19a8.98 8.98 0 0 0 .2-13l-1.66 1.18a6.98 6.98 0 0 1-.22 10.63z"/><path d="M33.03 33.35l1.66 1.17C37.36 31.82 39 28.1 39 24c0-4-1.56-7.63-4.11-10.32l-1.66 1.17a12.96 12.96 0 0 1-.2 18.5z"/><path d="M38.6 37.27l1.65 1.16A20.93 20.93 0 0 0 46 24c0-5.49-2.1-10.49-5.55-14.23l-1.66 1.16C42.02 14.34 44 18.93 44 24c0 5.16-2.06 9.84-5.4 13.27z"/></g></svg>