<?xml version="1.0" encoding="UTF-8"?>
<svg width="48px" height="48px" viewBox="0 0 48 48" version="1.1" xmlns="http://www.w3.org/2000/svg" xmlns:xlink="http://www.w3.org/1999/xlink">
    <!-- Generator: Sketch 44.1 (41455) - http://www.bohemiancoding.com/sketch -->
    <title>grid-circle-fill</title>
    <desc>Created with Sketch.</desc>
    <defs></defs>
    <g id="fill" stroke="none" stroke-width="1" fill="none" fill-rule="evenodd">
        <g id="grid-circle-fill" fill="#000000">
            <path d="M9.5,14 C7.01471863,14 5,11.9852814 5,9.5 C5,7.01471863 7.01471863,5 9.5,5 C11.9852814,5 14,7.01471863 14,9.5 C14,11.9852814 11.9852814,14 9.5,14 Z M9.5,29 C7.01471863,29 5,26.9852814 5,24.5 C5,22.0147186 7.01471863,20 9.5,20 C11.9852814,20 14,22.0147186 14,24.5 C14,26.9852814 11.9852814,29 9.5,29 Z M24.5,14 C22.0147186,14 20,11.9852814 20,9.5 C20,7.01471863 22.0147186,5 24.5,5 C26.9852814,5 29,7.01471863 29,9.5 C29,11.9852814 26.9852814,14 24.5,14 Z M24.5,29 C22.0147186,29 20,26.9852814 20,24.5 C20,22.0147186 22.0147186,20 24.5,20 C26.9852814,20 29,22.0147186 29,24.5 C29,26.9852814 26.9852814,29 24.5,29 Z M38.5,14 C36.0147186,14 34,11.9852814 34,9.5 C34,7.01471863 36.0147186,5 38.5,5 C40.9852814,5 43,7.01471863 43,9.5 C43,11.9852814 40.9852814,14 38.5,14 Z M38.5,29 C36.0147186,29 34,26.9852814 34,24.5 C34,22.0147186 36.0147186,20 38.5,20 C40.9852814,20 43,22.0147186 43,24.5 C43,26.9852814 40.9852814,29 38.5,29 Z M9.5,43 C7.01471863,43 5,40.9852814 5,38.5 C5,36.0147186 7.01471863,34 9.5,34 C11.9852814,34 14,36.0147186 14,38.5 C14,40.9852814 11.9852814,43 9.5,43 Z M24.5,43 C22.0147186,43 20,40.9852814 20,38.5 C20,36.0147186 22.0147186,34 24.5,34 C26.9852814,34 29,36.0147186 29,38.5 C29,40.9852814 26.9852814,43 24.5,43 Z M38.5,43 C36.0147186,43 34,40.9852814 34,38.5 C34,36.0147186 36.0147186,34 38.5,34 C40.9852814,34 43,36.0147186 43,38.5 C43,40.9852814 40.9852814,43 38.5,43 Z" id="Combined-Shape"></path>
        </g>
    </g>
</svg>