<?xml version="1.0" encoding="UTF-8"?>
<svg width="48px" height="48px" viewBox="0 0 48 48" version="1.1" xmlns="http://www.w3.org/2000/svg" xmlns:xlink="http://www.w3.org/1999/xlink">
    <!-- Generator: Sketch 44.1 (41455) - http://www.bohemiancoding.com/sketch -->
    <title>like-line1</title>
    <desc>Created with Sketch.</desc>
    <defs></defs>
    <g id="line" stroke="none" stroke-width="1" fill="none" fill-rule="evenodd">
        <g id="like-line1" stroke="#000000">
            <path d="M17.5,23.3620164 C17.5,23.3620164 23.8276707,17.2890671 25.1401033,14.4944873 C26.452536,11.6999076 26.5802321,7 28.5875259,7 C30.5948198,7 32.020151,10.2295861 31.4218868,14.2135818 C31.1905855,15.753877 30.5432174,16.3767113 29.7766604,18.1975775 C29.0101034,20.0184438 29.3053323,21.556957 29.3053323,21.556957 C29.3053323,21.556957 38.6864587,21.556957 40.2246775,21.556957 C41.7628963,21.556957 44.2993794,24.5 40.5454151,27.0509014 C40.5954444,27.6202234 42.2551209,30.2807479 39.0121242,31.9198193 C41.2059216,35.8511804 37.603546,36.9549578 37.603546,36.9549578 C37.603546,36.9549578 38.4947097,41.0323816 34.9051248,41.6226032 C31.3155399,42.2128248 25.8478383,42.0703926 22.7902757,41.4750478 C19.7327132,40.8797029 17.5,39.2639181 17.5,39.2639181 L17.5,23.3620164 Z M5.5,22 L15.5,22 L15.5,42 L5.5,42 L5.5,22 Z" id="Combined-Shape"></path>
        </g>
    </g>
</svg>