<?xml version="1.0" encoding="UTF-8"?>
<svg width="48px" height="48px" viewBox="0 0 48 48" version="1.1" xmlns="http://www.w3.org/2000/svg" xmlns:xlink="http://www.w3.org/1999/xlink">
    <!-- Generator: Sketch 44.1 (41455) - http://www.bohemiancoding.com/sketch -->
    <title>like-fill1</title>
    <desc>Created with Sketch.</desc>
    <defs></defs>
    <g id="fill" stroke="none" stroke-width="1" fill="none" fill-rule="evenodd">
        <g id="like-fill1" fill="#000000">
            <path d="M18,23.3620164 C18,23.3620164 24.3276707,17.2890671 25.6401033,14.4944873 C26.952536,11.6999076 27.0802321,7 29.0875259,7 C31.0948198,7 32.520151,10.2295861 31.9218868,14.2135818 C31.6905855,15.753877 31.0432174,16.3767113 30.2766604,18.1975775 C29.5101034,20.0184438 29.8053323,21.556957 29.8053323,21.556957 C29.8053323,21.556957 39.1864587,21.556957 40.7246775,21.556957 C42.2628963,21.556957 44.7993794,24.5 41.0454151,27.0509014 C41.0954444,27.6202234 42.7551209,30.2807479 39.5121242,31.9198193 C41.7059216,35.8511804 38.103546,36.9549578 38.103546,36.9549578 C38.103546,36.9549578 38.9947097,41.0323816 35.4051248,41.6226032 C31.8155399,42.2128248 26.3478383,42.0703926 23.2902757,41.4750478 C20.2327132,40.8797029 18,39.2639181 18,39.2639181 L18,23.3620164 Z M5,22 L16.0401161,22 L16.0401161,42 L5,42 L5,22 Z" id="Combined-Shape"></path>
        </g>
    </g>
</svg>