<?xml version="1.0" encoding="UTF-8"?>
<svg width="48px" height="48px" viewBox="0 0 48 48" version="1.1" xmlns="http://www.w3.org/2000/svg" xmlns:xlink="http://www.w3.org/1999/xlink">
    <!-- Generator: Sketch 44.1 (41455) - http://www.bohemiancoding.com/sketch -->
    <title>menu-circle-fill-horizontal</title>
    <desc>Created with Sketch.</desc>
    <defs></defs>
    <g id="fill" stroke="none" stroke-width="1" fill="none" fill-rule="evenodd">
        <g id="menu-circle-fill-horizontal" fill="#000000">
            <path d="M9.5,29 C7.01471863,29 5,26.9852814 5,24.5 C5,22.0147186 7.01471863,20 9.5,20 C11.9852814,20 14,22.0147186 14,24.5 C14,26.9852814 11.9852814,29 9.5,29 Z M24,29 C21.5147186,29 19.5,26.9852814 19.5,24.5 C19.5,22.0147186 21.5147186,20 24,20 C26.4852814,20 28.5,22.0147186 28.5,24.5 C28.5,26.9852814 26.4852814,29 24,29 Z M38.5,29 C36.0147186,29 34,26.9852814 34,24.5 C34,22.0147186 36.0147186,20 38.5,20 C40.9852814,20 43,22.0147186 43,24.5 C43,26.9852814 40.9852814,29 38.5,29 Z" id="Combined-Shape"></path>
        </g>
    </g>
</svg>