<?xml version="1.0" encoding="UTF-8"?>
<svg width="48px" height="48px" viewBox="0 0 48 48" version="1.1" xmlns="http://www.w3.org/2000/svg" xmlns:xlink="http://www.w3.org/1999/xlink">
    <!-- Generator: Sketch 44.1 (41455) - http://www.bohemiancoding.com/sketch -->
    <title>notification-line</title>
    <desc>Created with Sketch.</desc>
    <defs></defs>
    <g id="line" stroke="none" stroke-width="1" fill="none" fill-rule="evenodd">
        <g id="notification-line" stroke="#000000">
            <g id="notification" transform="translate(8.000000, 5.000000)">
                <path d="M14,4.58248747 C9.9920226,5.73446802 7,10.2746453 7,15.7 L7,20.5585511 C6.78713858,23.6815949 5.12489466,26.4817526 2.56454632,28.5 L29.458686,28.5 C26.8823474,26.4691479 25.2153662,23.6465885 25.0194139,20.5 L25,20.5 L25,15.7 C25,10.2746453 22.0079774,5.73446802 18,4.58248747 L18,2.49151131 C18,1.39373694 17.1045695,0.5 16,0.5 C14.8877296,0.5 14,1.39162998 14,2.49151131 L14,4.58248747 Z" id="Combined-Shape"></path>
                <path d="M11.5274644,31.5 C11.5093167,31.6641669 11.5,31.8309955 11.5,32 C11.5,34.4852814 13.5147186,36.5 16,36.5 C18.4852814,36.5 20.5,34.4852814 20.5,32 C20.5,31.8309955 20.4906833,31.6641669 20.4725356,31.5 L11.5274644,31.5 Z" id="Oval-7"></path>
            </g>
        </g>
    </g>
</svg>