<?xml version="1.0" encoding="UTF-8"?>
<svg width="48px" height="48px" viewBox="0 0 48 48" version="1.1" xmlns="http://www.w3.org/2000/svg" xmlns:xlink="http://www.w3.org/1999/xlink">
    <!-- Generator: Sketch 44.1 (41455) - http://www.bohemiancoding.com/sketch -->
    <title>setting-fill</title>
    <desc>Created with Sketch.</desc>
    <defs></defs>
    <g id="fill" stroke="none" stroke-width="1" fill="none" fill-rule="evenodd">
        <g id="setting-fill" fill="#000000">
            <path d="M20.382004,10.4719841 L21.5,6 L26.5,6 L27.617996,10.4719841 C28.8185816,10.7922567 29.9556613,11.2681029 31.0063227,11.8766104 L34.9601551,9.50431099 L38.495689,13.0398449 L36.1233896,16.9936773 C36.7318971,18.0443387 37.2077433,19.1814184 37.5280159,20.382004 L42,21.5 L42,26.5 L37.5280159,27.617996 C37.2077433,28.8185816 36.7318971,29.9556613 36.1233896,31.0063227 L38.495689,34.9601551 L34.9601551,38.495689 L31.0063227,36.1233896 C29.9556613,36.7318971 28.8185816,37.2077433 27.617996,37.5280159 L26.5,42 L21.5,42 L20.382004,37.5280159 C19.1814184,37.2077433 18.0443387,36.7318971 16.9936773,36.1233896 L13.0398449,38.495689 L9.50431099,34.9601551 L11.8766104,31.0063227 C11.2681029,29.9556613 10.7922567,28.8185816 10.4719841,27.617996 L6,26.5 L6,21.5 L10.4719841,20.382004 C10.7922567,19.1814184 11.2681029,18.0443387 11.8766104,16.9936773 L9.50431099,13.0398449 L13.0398449,9.50431099 L16.9936773,11.8766104 C18.0443387,11.2681029 19.1814184,10.7922567 20.382004,10.4719841 Z M24,31 C27.8659932,31 31,27.8659932 31,24 C31,20.1340068 27.8659932,17 24,17 C20.1340068,17 17,20.1340068 17,24 C17,27.8659932 20.1340068,31 24,31 Z" id="Combined-Shape"></path>
        </g>
    </g>
</svg>