<?xml version="1.0" encoding="UTF-8"?>
<svg width="30px" height="33px" viewBox="0 0 30 33" version="1.1" xmlns="http://www.w3.org/2000/svg" xmlns:xlink="http://www.w3.org/1999/xlink">
    <!-- Generator: Sketch 41 (35326) - http://www.bohemiancoding.com/sketch -->
    <title>user</title>
    <desc>Created with Sketch.</desc>
    <defs></defs>
    <g id="page" stroke="none" stroke-width="1" fill="none" fill-rule="evenodd">
        <g id="Artboard" transform="translate(-257.000000, -608.000000)" fill="#000000">
            <g id="user fill" transform="translate(257.000000, 608.000000)">
                <path d="M29.6506326,28.4550945 C27.4957133,25.8378477 24.9035056,23.7923186 22.0264419,22.5113172 C20.1180091,24.0589369 17.7585817,25 15.2047184,25 C12.5872961,25 10.1741081,24.0115128 8.24134898,22.3946465 C5.25727582,23.666322 2.57094214,25.7568917 0.349367382,28.4550945 C4.13289698,30.7708502 9.30137265,32.1973233 15,32.1973233 C20.6986274,32.1973233 25.867103,30.7708502 29.6506326,28.4550945 Z M15,22 C19.9705627,22 24,17.0751322 24,11.5789474 C24,4.92486775 19.9705627,0 15,0 C10.0294373,0 6,4.92486775 6,11.5789474 C6,17.0751322 10.0294373,22 15,22 Z" id="Combined-Shape"></path>
            </g>
        </g>
    </g>
</svg>