<svg width="48" height="48" viewBox="0 0 48 48" xmlns="http://www.w3.org/2000/svg"><title>dislike3-line</title><g stroke="currentColor" fill="none" fill-rule="evenodd"><path d="M30.7 26.4c-4.8 3.5-9 15.4-9 15.4s.7 4.2-.6 4.2c-2.8 0-7.6-1.4-4.2-10.5 2.8-7.7 0-7 0-7s-10.4 2.8-13.1 0C1 25.7 3 23 3 23c-3.5-3.4 0-7 0-7-3.5-4.8 2-7 2-7s-3.4-4.8 5.6-6.2c0 0 13.1-1.4 20 .7L35 20.8C32 22.2 32 25 30.7 26.4z" stroke-linecap="square"/><path d="M37.4 18L34.2 3.8s-.7-2 2-2H44c2 0 1.3 2 1.3 2L44 18c0 1.4-1.3 1.4-1.3 1.4h-4c-1.3 0-1.3-1.4-1.3-1.4z" stroke-linecap="square"/><ellipse transform="rotate(180 39.879 6.75)" cx="39.879" cy="6.75" rx="2.136" ry="2.156"/></g></svg>