<svg width="48" height="48" viewBox="0 0 48 48" xmlns="http://www.w3.org/2000/svg"><title>dislike3-line</title><g stroke="currentColor" fill="none" fill-rule="evenodd"><path d="M30.6 26.2c-5 3.5-9.2 15.8-9.2 15.8s.7 4.3-.7 4.3c-2.9 0-7.9-1.5-4.3-10.8 2.8-8 0-7.2 0-7.2s-10.7 2.9-13.6 0c-2.8-2.9-.7-5.7-.7-5.7-3.5-3.6 0-7.2 0-7.2-3.5-5 2.2-7.2 2.2-7.2S.7 3.2 10 1.7c0 0 13.5-1.4 20.6.7l4.3 18c-2.9 1.4-2.9 4.3-4.3 5.8z" stroke-linecap="square"/><path d="M37.7 19L34.2 3.9s-.7-2.2 2.1-2.2H45C47 1.7 46.3 4 46.3 4l-1.4 15c0 1.5-1.5 1.5-1.5 1.5h-4.2c-1.5 0-1.5-1.4-1.5-1.4z" stroke-linecap="square"/><ellipse transform="rotate(180 39.879 6.75)" cx="39.879" cy="6.75" rx="2.136" ry="2.156"/></g></svg>