<svg width="48" height="48" viewBox="0 0 48 48" xmlns="http://www.w3.org/2000/svg"><title>like3-line</title><g stroke="currentColor" fill="none" fill-rule="evenodd"><path d="M16.3 21.3c4.8-3.5 9-15.4 9-15.4s-.7-4.2.6-4.2c2.8 0 7.6 1.4 4.2 10.5-2.8 7.7 0 7 0 7s10.4-2.8 13.1 0c2.8 2.8.7 5.5.7 5.5 3.5 3.5 0 7 0 7 3.5 5-2 7-2 7s3.4 4.9-5.6 6.3c0 0-13.1 1.4-20-.7L12 26.8c2.8-1.4 2.8-4.1 4.2-5.5z" stroke-linecap="square"></path><path d="M9.6 29l3.2 14.2s.7 2-2 2H3c-2 0-1.3-2-1.3-2L3 29c0-1.4 1.3-1.4 1.3-1.4h4c1.3 0 1.3 1.4 1.3 1.4z" stroke-linecap="square"></path><ellipse cx="7.121" cy="40.25" rx="2.136" ry="2.156"></ellipse></g></svg>