<?xml version="1.0" encoding="UTF-8"?>
<svg width="48px" height="48px" viewBox="0 0 48 48" version="1.1" xmlns="http://www.w3.org/2000/svg" xmlns:xlink="http://www.w3.org/1999/xlink">
    <!-- Generator: Sketch 41.2 (35397) - http://www.bohemiancoding.com/sketch -->
    <title>dislike3-fill</title>
    <desc>Created with Sketch.</desc>
    <defs></defs>
    <g id="fill" stroke="none" stroke-width="1" fill="none" fill-rule="evenodd">
        <g id="dislike3-fill" fill="#000000">
            <path d="M5.65656566,21.5516582 C10.7474747,17.8797832 15.1111111,5.39540816 15.1111111,5.39540816 C15.1111111,5.39540816 14.3838384,0.989158163 15.8383838,0.989158163 C18.7474747,0.989158163 23.8383838,2.45790816 20.2020202,12.0047832 C17.2929293,20.0829082 20.2020202,19.3485332 20.2020202,19.3485332 C20.2020202,19.3485332 31.1111111,16.4110332 34.020202,19.3485332 C36.2020202,21.5516582 35.4747475,23.7547832 34.7474747,25.2235332 C34.7474747,25.2235332 38.3838384,28.8954082 34.7474747,32.5672832 C34.7474747,32.5672832 36.9292929,36.9735332 32.5656566,39.9110332 C32.5656566,39.9110332 34.7474747,45.0516582 26.7474747,46.5204082 C26.7474747,46.5204082 12.9292929,47.9891582 5.65656566,45.7860332 C5.65656566,45.7860332 1.36383453,27.4266582 1.29292929,27.4266582 C4.2020202,25.9579082 4.2020202,23.0204082 5.65656566,21.5516582 Z" id="Shape" transform="translate(18.828283, 23.994579) scale(-1, -1) translate(-18.828283, -23.994579) "></path>
            <path d="M44.3636364,3.671875 L48,19.09375 C48,19.09375 48,20.5625 45.8181818,20.5625 L35.6363636,20.5625 C34.1818182,20.5625 34.1818182,19.09375 34.1818182,19.09375 L35.6363636,3.671875 C35.6363636,2.203125 37.0909091,2.203125 37.0909091,2.203125 L42.9090909,2.203125 C44.3636364,2.203125 44.3636364,3.671875 44.3636364,3.671875 Z M42.9090909,19.09375 C44.1140758,19.09375 45.0909091,18.1073773 45.0909091,16.890625 C45.0909091,15.6738727 44.1140758,14.6875 42.9090909,14.6875 C41.704106,14.6875 40.7272727,15.6738727 40.7272727,16.890625 C40.7272727,18.1073773 41.704106,19.09375 42.9090909,19.09375 Z" id="Combined-Shape" transform="translate(41.090909, 11.382812) scale(-1, -1) translate(-41.090909, -11.382812) "></path>
        </g>
    </g>
</svg>