<?xml version="1.0" encoding="UTF-8"?>
<svg width="48px" height="48px" viewBox="0 0 48 48" version="1.1" xmlns="http://www.w3.org/2000/svg" xmlns:xlink="http://www.w3.org/1999/xlink">
    <!-- Generator: Sketch 41.2 (35397) - http://www.bohemiancoding.com/sketch -->
    <title>grid-circle-fill</title>
    <desc>Created with Sketch.</desc>
    <defs></defs>
    <g id="fill" stroke="none" stroke-width="1" fill="none" fill-rule="evenodd">
        <g id="grid-circle-fill" fill="#000000">
            <path d="M9.5,14 C11.9852814,14 14,11.9852814 14,9.5 C14,7.01471863 11.9852814,5 9.5,5 C7.01471863,5 5,7.01471863 5,9.5 C5,11.9852814 7.01471863,14 9.5,14 Z M9.5,29 C11.9852814,29 14,26.9852814 14,24.5 C14,22.0147186 11.9852814,20 9.5,20 C7.01471863,20 5,22.0147186 5,24.5 C5,26.9852814 7.01471863,29 9.5,29 Z M24.5,14 C26.9852814,14 29,11.9852814 29,9.5 C29,7.01471863 26.9852814,5 24.5,5 C22.0147186,5 20,7.01471863 20,9.5 C20,11.9852814 22.0147186,14 24.5,14 Z M24.5,29 C26.9852814,29 29,26.9852814 29,24.5 C29,22.0147186 26.9852814,20 24.5,20 C22.0147186,20 20,22.0147186 20,24.5 C20,26.9852814 22.0147186,29 24.5,29 Z M38.5,14 C40.9852814,14 43,11.9852814 43,9.5 C43,7.01471863 40.9852814,5 38.5,5 C36.0147186,5 34,7.01471863 34,9.5 C34,11.9852814 36.0147186,14 38.5,14 Z M38.5,29 C40.9852814,29 43,26.9852814 43,24.5 C43,22.0147186 40.9852814,20 38.5,20 C36.0147186,20 34,22.0147186 34,24.5 C34,26.9852814 36.0147186,29 38.5,29 Z M9.5,43 C11.9852814,43 14,40.9852814 14,38.5 C14,36.0147186 11.9852814,34 9.5,34 C7.01471863,34 5,36.0147186 5,38.5 C5,40.9852814 7.01471863,43 9.5,43 Z M24.5,43 C26.9852814,43 29,40.9852814 29,38.5 C29,36.0147186 26.9852814,34 24.5,34 C22.0147186,34 20,36.0147186 20,38.5 C20,40.9852814 22.0147186,43 24.5,43 Z M38.5,43 C40.9852814,43 43,40.9852814 43,38.5 C43,36.0147186 40.9852814,34 38.5,34 C36.0147186,34 34,36.0147186 34,38.5 C34,40.9852814 36.0147186,43 38.5,43 Z" id="Combined-Shape"></path>
        </g>
    </g>
</svg>