<?xml version="1.0" encoding="UTF-8"?>
<svg width="48px" height="48px" viewBox="0 0 48 48" version="1.1" xmlns="http://www.w3.org/2000/svg" xmlns:xlink="http://www.w3.org/1999/xlink">
    <!-- Generator: Sketch 41.2 (35397) - http://www.bohemiancoding.com/sketch -->
    <title>grid-rect-fill</title>
    <desc>Created with Sketch.</desc>
    <defs></defs>
    <g id="fill" stroke="none" stroke-width="1" fill="none" fill-rule="evenodd">
        <g id="grid-rect-fill" fill="#000000">
            <path d="M5,5 L13,5 L13,13 L5,13 L5,5 Z M5,20 L13,20 L13,28 L5,28 L5,20 Z M20,5 L28,5 L28,13 L20,13 L20,5 Z M20,20 L28,20 L28,28 L20,28 L20,20 Z M35,5 L43,5 L43,13 L35,13 L35,5 Z M35,20 L43,20 L43,28 L35,28 L35,20 Z M5,35 L13,35 L13,43 L5,43 L5,35 Z M20,35 L28,35 L28,43 L20,43 L20,35 Z M35,35 L43,35 L43,43 L35,43 L35,35 Z" id="Combined-Shape"></path>
        </g>
    </g>
</svg>