<?xml version="1.0" encoding="UTF-8"?>
<svg width="48px" height="48px" viewBox="0 0 48 48" version="1.1" xmlns="http://www.w3.org/2000/svg" xmlns:xlink="http://www.w3.org/1999/xlink">
    <!-- Generator: Sketch 41.2 (35397) - http://www.bohemiancoding.com/sketch -->
    <title>heart-round-fill</title>
    <desc>Created with Sketch.</desc>
    <defs></defs>
    <g id="fill" stroke="none" stroke-width="1" fill="none" fill-rule="evenodd">
        <g id="heart-round-fill">
            <g id="guide">
                <rect id="bg" fill="#FFFFFF" fill-rule="evenodd" x="0" y="0" width="48" height="48"></rect>
                <circle id="circle-outer" stroke="#BD0FE1" stroke-width="0.02" cx="24" cy="24" r="22"></circle>
                <circle id="circle-inner" stroke="#BD0FE1" stroke-width="0.02" cx="24" cy="24" r="10"></circle>
                <rect id="rectangle-horizontal" stroke="#BD0FE1" stroke-width="0.02" x="2" y="8" width="44" height="32" rx="3"></rect>
                <rect id="rectangle-vertical" stroke="#BD0FE1" stroke-width="0.02" transform="translate(24.000000, 24.000000) rotate(90.000000) translate(-24.000000, -24.000000) " x="2" y="8" width="44" height="32" rx="3"></rect>
                <rect id="square" stroke="#BD0FE1" stroke-width="0.02" x="5" y="5" width="38" height="38" rx="3"></rect>
            </g>
            <path d="M24.7015209,12.2603986 C30.6254753,3.5296024 43.5,7.89500049 44.5,17.5612391 C45.5787193,27.988397 38.3188569,31.9688607 26.4163498,43.1299994 C24.7896921,44.6553379 22.4045998,44.6656588 20.8041825,43.1299994 C9.18349012,31.9795166 2.43854995,27.9869562 3.5,17.5612391 C4.5,7.73909341 17.8422053,3.84141655 23.1425856,12.2603986 C23.5091142,12.8425828 24.3080821,12.8402535 24.7015209,12.2603986 Z" id="Path-5" fill="#000000"></path>
        </g>
    </g>
</svg>