<?xml version="1.0" encoding="UTF-8"?>
<svg width="48px" height="48px" viewBox="0 0 48 48" version="1.1" xmlns="http://www.w3.org/2000/svg" xmlns:xlink="http://www.w3.org/1999/xlink">
    <!-- Generator: Sketch 41.2 (35397) - http://www.bohemiancoding.com/sketch -->
    <title>heart-fill</title>
    <desc>Created with Sketch.</desc>
    <defs></defs>
    <g id="fill" stroke="none" stroke-width="1" fill="none" fill-rule="evenodd">
        <g id="heart-fill">
            <g id="guide">
                <rect id="bg" fill="#FFFFFF" fill-rule="evenodd" x="0" y="0" width="48" height="48"></rect>
                <circle id="circle-outer" stroke="#BD0FE1" stroke-width="0.02" cx="24" cy="24" r="22"></circle>
                <circle id="circle-inner" stroke="#BD0FE1" stroke-width="0.02" cx="24" cy="24" r="10"></circle>
                <rect id="rectangle-horizontal" stroke="#BD0FE1" stroke-width="0.02" x="2" y="8" width="44" height="32" rx="3"></rect>
                <rect id="rectangle-vertical" stroke="#BD0FE1" stroke-width="0.02" transform="translate(24.000000, 24.000000) rotate(90.000000) translate(-24.000000, -24.000000) " x="2" y="8" width="44" height="32" rx="3"></rect>
                <rect id="square" stroke="#BD0FE1" stroke-width="0.02" x="5" y="5" width="38" height="38" rx="3"></rect>
            </g>
            <path d="M40.8656793,28.8615604 L24,46 L7.13432066,28.8615604 C4.59791897,26.5701687 3,23.2294262 3,19.509434 C3,12.6006644 8.51152911,7 15.3103448,7 C18.7020923,7 21.7734669,8.39386282 24,10.6486378 C26.2265331,8.39386282 29.2979077,7 32.6896552,7 C39.4884709,7 45,12.6006644 45,19.509434 C45,23.2294262 43.402081,26.5701687 40.8656793,28.8615604 Z" id="Combined-Shape" fill="#000000"></path>
        </g>
    </g>
</svg>