<?xml version="1.0" encoding="UTF-8"?>
<svg width="48px" height="48px" viewBox="0 0 48 48" version="1.1" xmlns="http://www.w3.org/2000/svg" xmlns:xlink="http://www.w3.org/1999/xlink">
    <!-- Generator: Sketch 41.2 (35397) - http://www.bohemiancoding.com/sketch -->
    <title>like1-fill</title>
    <desc>Created with Sketch.</desc>
    <defs></defs>
    <g id="fill" stroke="none" stroke-width="1" fill="none" fill-rule="evenodd">
        <g id="like1-fill" fill="#000000">
            <path d="M16.5,43.5 C16.5,43.5 18.9577495,45 21.75,45 L41.25,45 C41.25,45 46.5,43.5 44.25,39 C44.25,39 48.75,36.75 45.75,33 C45.75,33 49.5,29.25 45.75,26.25 C45.75,26.25 49.5,20.25 43.5,19.5 L35.25,19.5 C35.25,19.5 32.25,19.5 35.25,16.5 C43.5,7.5 33,-4.5 32.25,4.5 C31.5,11.25 27.75,12 24.75,15 C23.25,16.5 20.25,20.25 20.25,20.25 C20.25,20.25 18,24 16.5,24 L16.5,43.5 Z" id="Path-2"></path>
            <path d="M0,22.5 L15,22.5 L15,48 L0,48 L0,22.5 Z M7.5,42 C9.15685425,42 10.5,40.6568542 10.5,39 C10.5,37.3431458 9.15685425,36 7.5,36 C5.84314575,36 4.5,37.3431458 4.5,39 C4.5,40.6568542 5.84314575,42 7.5,42 Z" id="Combined-Shape"></path>
        </g>
    </g>
</svg>