<?xml version="1.0" encoding="UTF-8"?>
<svg width="48px" height="48px" viewBox="0 0 48 48" version="1.1" xmlns="http://www.w3.org/2000/svg" xmlns:xlink="http://www.w3.org/1999/xlink">
    <!-- Generator: Sketch 41.2 (35397) - http://www.bohemiancoding.com/sketch -->
    <title>like3-fill</title>
    <desc>Created with Sketch.</desc>
    <defs></defs>
    <g id="fill" stroke="none" stroke-width="1" fill="none" fill-rule="evenodd">
        <g id="like3-fill" fill="#000000">
            <path d="M16,20.5625 C21.0909091,16.890625 25.4545455,4.40625 25.4545455,4.40625 C25.4545455,4.40625 24.7272727,0 26.1818182,0 C29.0909091,0 34.1818182,1.46875 30.5454545,11.015625 C27.6363636,19.09375 30.5454545,18.359375 30.5454545,18.359375 C30.5454545,18.359375 41.4545455,15.421875 44.3636364,18.359375 C46.5454545,20.5625 45.8181818,22.765625 45.0909091,24.234375 C45.0909091,24.234375 48.7272727,27.90625 45.0909091,31.578125 C45.0909091,31.578125 47.2727273,35.984375 42.9090909,38.921875 C42.9090909,38.921875 45.0909091,44.0625 37.0909091,45.53125 C37.0909091,45.53125 23.2727273,47 16,44.796875 C16,44.796875 11.7072689,26.4375 11.6363636,26.4375 C14.5454545,24.96875 14.5454545,22.03125 16,20.5625 Z" id="Shape"></path>
            <path d="M10.1818182,27.90625 L13.8181818,43.328125 C13.8181818,43.328125 13.8181818,44.796875 11.6363636,44.796875 L1.45454545,44.796875 C-3.8353159e-16,44.796875 0,43.328125 0,43.328125 L1.45454545,27.90625 C1.45454545,26.4375 2.90909091,26.4375 2.90909091,26.4375 L8.72727273,26.4375 C10.1818182,26.4375 10.1818182,27.90625 10.1818182,27.90625 Z M8.72727273,43.328125 C9.93225764,43.328125 10.9090909,42.3417523 10.9090909,41.125 C10.9090909,39.9082477 9.93225764,38.921875 8.72727273,38.921875 C7.52228782,38.921875 6.54545455,39.9082477 6.54545455,41.125 C6.54545455,42.3417523 7.52228782,43.328125 8.72727273,43.328125 Z" id="Combined-Shape"></path>
        </g>
    </g>
</svg>