<?xml version="1.0" encoding="UTF-8"?>
<svg width="48px" height="48px" viewBox="0 0 48 48" version="1.1" xmlns="http://www.w3.org/2000/svg" xmlns:xlink="http://www.w3.org/1999/xlink">
    <!-- Generator: Sketch 41.2 (35397) - http://www.bohemiancoding.com/sketch -->
    <title>menu-circle-fill-horizontal</title>
    <desc>Created with Sketch.</desc>
    <defs></defs>
    <g id="fill" stroke="none" stroke-width="1" fill="none" fill-rule="evenodd">
        <g id="menu-circle-fill-horizontal" fill="#000000">
            <path d="M9.5,29 C11.9852814,29 14,26.9852814 14,24.5 C14,22.0147186 11.9852814,20 9.5,20 C7.01471863,20 5,22.0147186 5,24.5 C5,26.9852814 7.01471863,29 9.5,29 Z M24,29 C26.4852814,29 28.5,26.9852814 28.5,24.5 C28.5,22.0147186 26.4852814,20 24,20 C21.5147186,20 19.5,22.0147186 19.5,24.5 C19.5,26.9852814 21.5147186,29 24,29 Z M38.5,29 C40.9852814,29 43,26.9852814 43,24.5 C43,22.0147186 40.9852814,20 38.5,20 C36.0147186,20 34,22.0147186 34,24.5 C34,26.9852814 36.0147186,29 38.5,29 Z" id="Combined-Shape"></path>
        </g>
    </g>
</svg>