<?xml version="1.0" encoding="UTF-8"?>
<svg width="48px" height="48px" viewBox="0 0 48 48" version="1.1" xmlns="http://www.w3.org/2000/svg" xmlns:xlink="http://www.w3.org/1999/xlink">
    <!-- Generator: Sketch 41.2 (35397) - http://www.bohemiancoding.com/sketch -->
    <title>user2-fill</title>
    <desc>Created with Sketch.</desc>
    <defs></defs>
    <g id="fill" stroke="none" stroke-width="1" fill="none" fill-rule="evenodd">
        <g id="user2-fill" fill="#000000">
            <path d="M33.75,23.4390244 C35.25,24.1869919 38.25,16.7073171 35.25,16.7073171 C37.5,11.4715447 34.5,1 24,1 C13.5,1 10.5,12.2195122 12.75,16.7073171 C9.75,16.7073171 12.75,24.1869919 14.25,23.4390244 C14.25,23.4390244 15,26.4308943 16.5,28.6747967 L16.5,32.4146341 C16.5,34.6585366 3.82327809e-16,35.4065189 0,41.3902439 C0,48.8699187 48,48.8699187 48,41.3902439 C48,35.4065136 31.5,34.6585366 31.5,32.4146341 L31.5,28.6747967 C33,26.4308943 33.75,23.4390244 33.75,23.4390244 Z" id="Shape"></path>
        </g>
    </g>
</svg>