<?xml version="1.0" encoding="UTF-8"?>
<svg width="48px" height="48px" viewBox="0 0 48 48" version="1.1" xmlns="http://www.w3.org/2000/svg" xmlns:xlink="http://www.w3.org/1999/xlink">
    <!-- Generator: Sketch 41.2 (35397) - http://www.bohemiancoding.com/sketch -->
    <title>user3-fill</title>
    <desc>Created with Sketch.</desc>
    <defs></defs>
    <g id="fill" stroke="none" stroke-width="1" fill="none" fill-rule="evenodd">
        <g id="user3-fill" fill="#000000">
            <path d="M31.3333333,21 C38.9259259,21.75 45,23.25 45,29.25 C45,36.75 33.6111111,48 24.5,48 C15.3888889,48 4,36.75 4,29.25 C4,24 9.31481481,21.75 16.1481481,21 C18.4259259,24 21.462963,25.5 23.7407407,25.5 C26.0185185,25.5 29.0555556,24 31.3333333,21 Z" id="Combined-Shape"></path>
            <path d="M23.7407407,21.75 C28.2962963,21.75 33.6111111,15 33.6111111,9 C33.6111111,3 29.0555556,0 23.7407407,0 C18.4259259,7.17124905e-16 13.8703704,3 13.8703704,9 C13.8703704,15 19.1851852,21.75 23.7407407,21.75 Z" id="Oval"></path>
        </g>
    </g>
</svg>