<?xml version="1.0" encoding="UTF-8"?>
<svg width="48px" height="48px" viewBox="0 0 48 48" version="1.1" xmlns="http://www.w3.org/2000/svg" xmlns:xlink="http://www.w3.org/1999/xlink">
    <!-- Generator: Sketch 41.2 (35397) - http://www.bohemiancoding.com/sketch -->
    <title>user3-fill</title>
    <desc>Created with Sketch.</desc>
    <defs></defs>
    <g id="fill" stroke="none" stroke-width="1" fill="none" fill-rule="evenodd">
        <g id="user3-fill" fill="#000000">
            <g id="body-man-suit" transform="translate(5.000000, 29.000000)">
                <polygon points="0.808510638 5.72727273 13.9361702 0 19 11.9090909 24.6595745 0 37.1914894 5.72727273 38 14 0 14"></polygon>
            </g>
            <g id="hear-man" transform="translate(15.000000, 5.000000)">
                <path d="M1.32280979,14.0191413 C0.83238519,13.437799 0.38913442,12.8051511 -9.99200722e-16,12.1290457 L0,9.49591445 C0,4.25146571 4.25214127,0 9.5,0 C14.7467051,0 19,4.25015576 19,9.49591445 L19,12.6133538 C18.5266233,13.3600131 17.9850212,14.0476471 17.3854983,14.6646069 L16.9032151,10.3240579 C16.7829097,9.24130963 15.7911315,8.22255737 14.6910463,8.07587934 L4.77236836,6.75338895 C3.67129664,6.60657939 2.61000459,7.3686348 2.3997029,8.45519357 L1.32280979,14.0191413 Z"></path>
            </g>
        </g>
    </g>
</svg>