<?xml version="1.0" encoding="UTF-8"?>
<svg width="48px" height="48px" viewBox="0 0 48 48" version="1.1" xmlns="http://www.w3.org/2000/svg" xmlns:xlink="http://www.w3.org/1999/xlink">
    <!-- Generator: Sketch 41.2 (35397) - http://www.bohemiancoding.com/sketch -->
    <title>user4-fill</title>
    <desc>Created with Sketch.</desc>
    <defs></defs>
    <g id="fill" stroke="none" stroke-width="1" fill="none" fill-rule="evenodd">
        <g id="user4-fill">
            <ellipse id="Shape" stroke="#000000" stroke-linecap="square" cx="24" cy="24" rx="23.5" ry="23.5"></ellipse>
            <path d="M19.5300455,36.4340777 L19.8424415,35.0059816 C16.7904527,33.3877073 15,29.9630779 15,26 C15,20.4771525 18.4771525,16 24,16 C29.5228475,16 33,20.4771525 33,26 C33,29.9630779 31.2095473,33.3877073 28.1575585,35.0059816 L28.4699545,36.4340777 C32.5807226,37.2437402 36.2983248,39.1486581 39.306199,41.8322693 C44.3226467,37.5224627 47.5,31.1322867 47.5,24 C47.5,11.0213084 36.9786916,0.5 24,0.5 C11.0213084,0.5 0.5,11.0213084 0.5,24 C0.5,31.1322867 3.67735327,37.5224627 8.69380098,41.8322693 C11.7016752,39.1486581 15.4192774,37.2437402 19.5300455,36.4340777 Z" id="Combined-Shape" fill="#000000"></path>
        </g>
    </g>
</svg>