<?xml version="1.0" encoding="UTF-8"?>
<svg width="48px" height="48px" viewBox="0 0 48 48" version="1.1" xmlns="http://www.w3.org/2000/svg" xmlns:xlink="http://www.w3.org/1999/xlink">
    <!-- Generator: Sketch 41.2 (35397) - http://www.bohemiancoding.com/sketch -->
    <title>user1-fill</title>
    <desc>Created with Sketch.</desc>
    <defs></defs>
    <g id="fill" stroke="none" stroke-width="1" fill="none" fill-rule="evenodd">
        <g id="user1-fill" fill="#000000">
            <path d="M24.5,34.5882353 C26.6346154,34.5882353 34.4615385,33.1764706 35.1730769,16.9411765 C37.3076923,7.76470588 33.75,5.64705882 32.3269231,5.64705882 C31.6153846,2.82352941 28.0576915,0.705882547 25.2115385,1.41176471 C22.3653846,2.11764706 15.9615385,1.41176471 15.9615385,1.41176471 C15.25,2.82352941 16.6730769,4.23529412 16.6730769,4.23529412 C11.6923077,7.05882353 13.1153846,14.1176471 13.8269231,16.9411765 C13.8269231,33.1764706 22.3653846,34.5882353 24.5,34.5882353 Z M17.3846154,12.7058824 C19.5192308,13.4117647 18.8076923,14.8235294 25.9230769,12 C36.5952639,7.76505904 34.4615385,32.4705882 24.5,32.4705882 C14.5384615,32.4705882 14.5384615,13.4117647 17.3846154,12.7058824 Z" id="Shape"></path>
            <path d="M33.75,32.4705882 C33.75,32.4705882 30.1923077,37.4054262 24.5,37.4054262 C18.8076923,37.4054262 14.5384615,32.4705882 14.5384615,32.4705882 L6,38.1113085 C6,38.1113085 8.84615385,47.9936615 24.5,47.9936615 C40.1538462,47.9936615 43,38.1176471 43,38.1176471 L33.75,32.4705882 Z" id="Shape"></path>
        </g>
    </g>
</svg>