<?xml version="1.0" encoding="UTF-8"?>
<svg width="48px" height="48px" viewBox="0 0 48 48" version="1.1" xmlns="http://www.w3.org/2000/svg" xmlns:xlink="http://www.w3.org/1999/xlink">
    <!-- Generator: Sketch 41.2 (35397) - http://www.bohemiancoding.com/sketch -->
    <title>user1-fill</title>
    <desc>Created with Sketch.</desc>
    <defs></defs>
    <g id="fill" stroke="none" stroke-width="1" fill="none" fill-rule="evenodd">
        <g id="user1-fill">
            <g id="guide">
                <rect id="bg" fill="#FFFFFF" fill-rule="evenodd" x="0" y="0" width="48" height="48"></rect>
                <circle id="circle-outer" stroke="#BD0FE1" stroke-width="0.02" cx="24" cy="24" r="22"></circle>
                <circle id="circle-inner" stroke="#BD0FE1" stroke-width="0.02" cx="24" cy="24" r="10"></circle>
                <rect id="rectangle-horizontal" stroke="#BD0FE1" stroke-width="0.02" x="2" y="8" width="44" height="32" rx="3"></rect>
                <rect id="rectangle-vertical" stroke="#BD0FE1" stroke-width="0.02" transform="translate(24.000000, 24.000000) rotate(90.000000) translate(-24.000000, -24.000000) " x="2" y="8" width="44" height="32" rx="3"></rect>
                <rect id="square" stroke="#BD0FE1" stroke-width="0.02" x="5" y="5" width="38" height="38" rx="3"></rect>
            </g>
            <g id="body-man-shirt" transform="translate(-3.000000, 29.000000)" fill="#000000">
                <path d="M34.2282133,0.81756516 C45.0939158,3.18013244 53,10.3948645 53,18.9285714 C53,29.3825328 41.1355459,37.8571429 26.5,37.8571429 C11.8644541,37.8571429 0,29.3825328 0,18.9285714 C0,9.92042308 8.80961728,2.38198643 20.6106549,0.469116428 C21.7608865,3.13445748 24.4125828,5 27.5,5 C30.4510311,5 33.0039869,3.29563701 34.2282133,0.81756516 Z"></path>
            </g>
            <g id="head-oval" transform="translate(16.000000, 5.000000)" fill="#000000">
                <ellipse cx="8.5" cy="11" rx="8.5" ry="11"></ellipse>
            </g>
        </g>
    </g>
</svg>