<?xml version="1.0" encoding="UTF-8"?>
<svg width="48px" height="48px" viewBox="0 0 48 48" version="1.1" xmlns="http://www.w3.org/2000/svg" xmlns:xlink="http://www.w3.org/1999/xlink">
    <!-- Generator: Sketch 41.2 (35397) - http://www.bohemiancoding.com/sketch -->
    <title>user1-fill</title>
    <desc>Created with Sketch.</desc>
    <defs></defs>
    <g id="fill" stroke="none" stroke-width="1" fill="none" fill-rule="evenodd">
        <g id="user1-fill">
            <g id="guide">
                <rect id="bg" fill="#FFFFFF" fill-rule="evenodd" x="0" y="0" width="48" height="48"></rect>
                <circle id="circle-outer" stroke="#BD0FE1" stroke-width="0.02" cx="24" cy="24" r="22"></circle>
                <circle id="circle-inner" stroke="#BD0FE1" stroke-width="0.02" cx="24" cy="24" r="10"></circle>
                <rect id="rectangle-horizontal" stroke="#BD0FE1" stroke-width="0.02" x="2" y="8" width="44" height="32" rx="3"></rect>
                <rect id="rectangle-vertical" stroke="#BD0FE1" stroke-width="0.02" transform="translate(24.000000, 24.000000) rotate(90.000000) translate(-24.000000, -24.000000) " x="2" y="8" width="44" height="32" rx="3"></rect>
                <rect id="square" stroke="#BD0FE1" stroke-width="0.02" x="5" y="5" width="38" height="38" rx="3"></rect>
            </g>
            <g id="body-man-shirt" transform="translate(5.000000, 29.000000)" fill="#000000">
                <path d="M38,5.57030695 C34.858654,3.15816291 30.84652,1.33245253 26.3209801,0.348448732 C25.0967537,2.82652059 22.5437979,4.53088357 19.5927668,4.53088357 C16.5053496,4.53088357 13.8536533,2.66534105 12.7034217,3.33066907e-16 C7.81895761,0.791739263 3.44696641,2.54721818 1.33226763e-15,4.97175681 L0,14 L38,14 L38,5.57030695 Z" id="Combined-Shape"></path>
            </g>
            <g id="head-oval" transform="translate(16.000000, 5.000000)" fill="#000000">
                <ellipse cx="8.5" cy="11" rx="8.5" ry="11"></ellipse>
            </g>
        </g>
    </g>
</svg>